<svg height="199.33243" viewBox="0 0 202.99666 199.33243" width="202.99666" xmlns="http://www.w3.org/2000/svg" xmlns:xlink="http://www.w3.org/1999/xlink"><g transform="matrix(1.3333333 0 0 1.3333333 -174.50492 66.273095)"><image height="149.49933" preserveAspectRatio="none" stroke-width="5.45821" width="152.2475" x="130.4704" xlink:href="../../../../3d/cubitosbien.png" y="-49.272789"/><g fill="none" stroke="#000" stroke-linecap="round" stroke-width=".9"><path d="m134.11936-29.477139 2.55547 39.3380225 26.26528 12.9559245-1.91722-41.191327z" stroke-linejoin="bevel"/><path d="m134.11936-29.477139 63.42699-18.066593 27.62904 9.117524-64.1525 20.051689" stroke-linejoin="round"/><path d="m162.94011 22.816808 32.41633-12.3463.32576 36.647991 28.53811 14.703612-.75464 35.421715-52.20994-30.392575-1.71403-46.250909" stroke-linejoin="round"/><path d="m224.22031 61.822111 53.63696-26.38977-2.33435 32.957283" stroke-linejoin="round"/><path d="m277.85727 35.432341-28.42036-12.232209-25.4283 11.366668 1.16678-72.993008" stroke-linejoin="round"/><path d="m275.52292 68.389624-52.05725 28.8542" stroke-linejoin="round"/><path d="m195.35644 10.470508v-39.622127l-26.04337-9.933148" stroke-linejoin="round"/><path d="m162.94011 22.816808 61.56942-23.26584106" stroke-linejoin="round"/><path d="m195.6822 47.118499 28.32641-12.551699" stroke-linejoin="round"/><path d="m224.22031 61.822111-54.16987-27.181511" stroke-linejoin="round"/><path d="m195.6822 47.118499v33.766821" stroke-linejoin="round"/><path d="m224.00861 34.5668 29.09308 13.242678-.20671 33.006794" stroke-linejoin="round"/></g></g></svg>