<svg enable-background="new 0 0 612 792" viewBox="0 0 612 792" xmlns="http://www.w3.org/2000/svg"><path d="m327.13 186.26 29.44 29.44v41.63l-29.44 29.44h-41.63l-29.44-29.44v-41.63l29.44-29.44zm1.65-4h-44.95l-31.78 31.78v44.95l31.78 31.78h44.95l31.78-31.78v-44.95z" fill="#4bbab1"/><path d="m323.24 253.45h-33.87v-33.87h33.87zm-28.86-5h23.87v-23.87h-23.87z" fill="#ffd331"/><path d="m308.99 161.75h-5.5l2.75-2.75 2.75 2.75.56.56 7.44 7.44 4 4 8 8 32.09 32.09v-11.31l-52.01-52.01c-1.56-1.56-4.1-1.56-5.66 0l-11.23 11.23h-5.66l19.72-19.72 25.9 25.9c.33.53.77.97 1.3 1.3l10.7 10.7c.33.53.77.97 1.3 1.3l15.64 15.64v-11.31l-3.72-3.72h.01l-8-8h-.01l-4-4h.01l-8-8h-.01l-28.29-28.29c-.75-.75-1.77-1.17-2.83-1.17s-2.08.42-2.83 1.17l-28.21 28.21" fill="#e7980b"/><path d="m361.08 185.59-3.89-3.89h3.89v3.89.8 10.52 5.66 11.31 45.38l8-8v-73.55c0-2.21-1.79-4-4-4h-15.89l-4-4h27.89v77.55l8-8v-5.26l.01.01v-11.31l-.01-.01v-5.66l.01.01v-11.31l-.01-.01v-40.01c0-1.06-.42-2.08-1.17-2.83s-1.77-1.17-2.83-1.17h-39.89" fill="#ffd331"/><path d="m381.08 239.21v-5.5l2.75 2.75-2.75 2.75-.56.56-7.44 7.44-4 4-8 8-32.09 32.09h11.31l52.01-52.01c1.56-1.56 1.56-4.1 0-5.66l-11.23-11.23v-5.66l19.72 19.72-25.9 25.9c-.53.33-.97.77-1.3 1.3l-27.64 27.64h11.31l3.72-3.72v.01l8-8v-.01l4-4v.01l8-8v-.01l28.29-28.29c.75-.75 1.17-1.77 1.17-2.83s-.42-2.08-1.17-2.83l-28.21-28.21" fill="#e7980b"/><path d="m357.29 291.33 3.89-3.89v3.89h-3.89-.8-10.52-5.66-11.31-45.38l8 8h73.55c2.21 0 4-1.79 4-4v-15.89l4-4v27.89h-36.63c-.6-.14-1.23-.14-1.83 0h-15.14c-.6-.14-1.23-.14-1.83 0h-22.12l8 8h5.26 11.31 5.66l-.01.01h11.31l.01-.01h40.01c1.06 0 2.08-.42 2.83-1.17s1.17-1.77 1.17-2.83v-39.89" fill="#ffd331"/><path d="m303.63 311.29h5.5l-2.75 2.75-2.75-2.75-.56-.56-7.44-7.44-4-4-8-8-32.09-32.09v11.31l52.01 52.01c1.56 1.56 4.1 1.56 5.66 0l11.23-11.23h5.66l-19.72 19.72-25.9-25.9c-.33-.53-.77-.97-1.3-1.3l-10.7-10.7c-.33-.53-.77-.97-1.3-1.3l-15.64-15.64v11.31l3.72 3.72h-.01l8 8h.01l4 4h-.01l8 8h.01l28.29 28.29c.75.75 1.77 1.17 2.83 1.17s2.08-.42 2.83-1.17l28.21-28.21" fill="#e7980b"/><path d="m251.54 287.49 3.89 3.89h-3.89v-3.89-.8-10.52-5.66-11.31-45.38l-8 8v73.55c0 2.21 1.79 4 4 4h15.89l4 4h-27.89v-77.55l-8 8v5.26l-.01-.01v11.31l.01.01v5.66l-.01-.01v11.31l.01.01v40.01c0 1.06.42 2.08 1.17 2.83s1.77 1.17 2.83 1.17h39.89" fill="#ffd331"/><path d="m231.54 233.82v5.5l-2.75-2.75 2.75-2.75.56-.56 7.44-7.44 4-4 8-8 32.09-32.09h-11.31l-52.01 52.01c-1.56 1.56-1.56 4.1 0 5.66l11.23 11.23v5.66l-19.72-19.72 25.9-25.9c.53-.33.97-.77 1.3-1.3l27.64-27.64h-11.31l-3.72 3.72v-.01l-8 8v.01l-4 4v-.01l-8 8v.01l-28.29 28.29c-.75.75-1.17 1.77-1.17 2.83s.42 2.08 1.17 2.83l28.21 28.21" fill="#e7980b"/><path d="m255.33 181.78-3.89 3.89v-3.89h3.89.8 10.52 5.66 11.31 45.38l-8-8h-73.55c-2.21 0-4 1.79-4 4v15.89l-4 4v-27.89h77.55l-8-8h-5.26l.01-.01h-11.31l-.01.01h-5.66l.01-.01h-11.31l-.01.01h-40.01c-1.06 0-2.08.42-2.83 1.17s-1.17 1.77-1.17 2.83v39.89" fill="#ffd331"/><path d="m317.63 209.19v8.01 8h8 8.01l-5.66 5.66-5.66 5.66 5.66 5.66 5.66 5.66h-8-8v8 8.01l-5.66-5.66-5.66-5.66-5.66 5.66-5.66 5.66v-8.01-8h-8-8.01l5.66-5.66 5.66-5.66-5.66-5.66-5.66-5.66h8 8v-8-8.01l5.66 5.66 5.66 5.66 5.66-5.66zm8-19.31-19.32 19.32-19.19-19.19-.13-.13v27.32h-26.61-.71l.26.25 19.07 19.07-19.32 19.32h27.32v27.32l19.32-19.32 19.32 19.32v-27.32h26.87.44l-19.32-19.32 19.32-19.32h-27.32z" fill="#4bbab1"/><path d="m327.13 504.43 29.44 29.44v41.63l-29.44 29.44h-41.63l-29.44-29.44v-41.63l29.44-29.44zm1.65-4h-44.95l-31.78 31.78v44.95l31.78 31.78h44.95l31.78-31.78v-44.95z" fill="#4bbab1"/><path d="m323.24 571.62h-33.87v-33.87h33.87zm-28.86-5h23.87v-23.87h-23.87z" fill="#ffd331"/><path d="m308.99 479.91h-5.5l2.75-2.75 2.75 2.75.56.56 7.44 7.44 4 4 8 8 32.09 32.09v-11.31l-52.01-52.01c-1.56-1.56-4.1-1.56-5.66 0l-11.23 11.23h-5.66l19.72-19.72 54.84 54.84v-11.31l-3.72-3.72h.01l-8-8h-.01l-4-4h.01l-8-8h-.01l-28.29-28.29c-.75-.75-1.77-1.17-2.83-1.17s-2.08.42-2.83 1.17l-28.21 28.21" fill="#e7980b"/><path d="m361.08 503.76-3.89-3.89h3.89v3.89.8 10.52 5.66 11.31 45.38l8-8v-73.55c0-2.21-1.79-4-4-4h-15.89l-4-4h27.89v77.55l8-8v-5.26l.01.01v-11.31l-.01-.01v-5.66l.01.01v-11.31l-.01-.01v-40.01c0-1.06-.42-2.08-1.17-2.83s-1.77-1.17-2.83-1.17h-39.89" fill="#ffd331"/><path d="m381.08 557.38v-5.5l2.75 2.75-2.75 2.75-.56.56-7.44 7.44-4 4-8 8-32.09 32.09h11.31l52.01-52.01c1.56-1.56 1.56-4.1 0-5.66l-11.23-11.23v-5.66l19.72 19.72-25.9 25.9c-.53.33-.97.77-1.3 1.3l-27.64 27.64h11.31l3.72-3.72v.01l8-8v-.01l4-4v.01l8-8v-.01l28.29-28.29c.75-.75 1.17-1.77 1.17-2.83s-.42-2.08-1.17-2.83l-28.21-28.21" fill="#e7980b"/><path d="m357.29 609.5 3.89-3.89v3.89h-3.89-.8-10.52-5.66-11.31-45.38l8 8h73.55c2.21 0 4-1.79 4-4v-15.89l4-4v27.89h-36.63c-.6-.14-1.23-.14-1.83 0h-15.14c-.6-.14-1.23-.14-1.83 0h-22.12l8 8h5.26 11.31 5.66l-.01.01h11.31l.01-.01h40.01c1.06 0 2.08-.42 2.83-1.17s1.17-1.77 1.17-2.83v-39.89" fill="#ffd331"/><path d="m303.63 629.46h5.5l-2.75 2.75-2.75-2.75-.56-.56-7.44-7.44-4-4-8-8-32.09-32.09v11.31l52.01 52.01c1.56 1.56 4.1 1.56 5.66 0l11.23-11.23h5.66l-19.72 19.72-25.9-25.9c-.33-.53-.77-.97-1.3-1.3l-10.7-10.7c-.33-.53-.77-.97-1.3-1.3l-15.64-15.64v11.31l3.72 3.72h-.01l8 8h.01l4 4h-.01l8 8h.01l28.29 28.29c.75.75 1.77 1.17 2.83 1.17s2.08-.42 2.83-1.17l28.21-28.21" fill="#e7980b"/><path d="m251.54 605.66 3.89 3.89h-3.89v-3.89-.8-10.52-5.66-11.31-45.38l-8 8v73.55c0 2.21 1.79 4 4 4h15.89l4 4h-27.89v-77.55l-8 8v5.26l-.01-.01v11.31l.01.01v5.66l-.01-.01v11.31l.01.01v40.01c0 1.06.42 2.08 1.17 2.83s1.77 1.17 2.83 1.17h39.89" fill="#ffd331"/><path d="m231.54 551.99v5.5l-2.75-2.75 2.75-2.75.56-.56 7.44-7.44 4-4 8-8 32.09-32.09h-11.31l-52.01 52.01c-1.56 1.56-1.56 4.1 0 5.66l11.23 11.23v5.66l-19.72-19.72 25.9-25.9c.53-.33.97-.77 1.3-1.3l27.64-27.64h-11.31l-3.72 3.72v-.01l-8 8v.01l-4 4v-.01l-8 8v.01l-28.29 28.29c-.75.75-1.17 1.77-1.17 2.83s.42 2.08 1.17 2.83l28.21 28.21" fill="#e7980b"/><path d="m255.33 499.95-3.89 3.89v-3.89h3.89.8 10.52 5.66 11.31 45.38l-8-8h-73.55c-2.21 0-4 1.79-4 4v15.89l-4 4v-27.89h77.55l-8-8h-5.26l.01-.01h-11.31l-.01.01h-5.66l.01-.01h-11.31l-.01.01h-40.01c-1.06 0-2.08.42-2.83 1.17s-1.17 1.77-1.17 2.83v39.89" fill="#ffd331"/><path d="m317.63 527.36v8.01 8h8 8.01l-5.66 5.66-5.66 5.66 5.66 5.66 5.66 5.66h-8-8v8 8.01l-5.66-5.66-5.66-5.66-5.66 5.66-5.66 5.66v-8.01-8h-8-8.01l5.66-5.66 5.66-5.66-5.66-5.66-5.66-5.66h8 8v-8-8.01l5.66 5.66 5.66 5.66 5.66-5.66zm8-19.31-19.32 19.32-19.19-19.19-.13-.13v27.32h-26.61-.71l.26.25 19.07 19.07-19.32 19.32h27.32v27.32l19.32-19.32 19.32 19.32v-27.32h26.87.44l-19.32-19.32 19.32-19.32h-27.32z" fill="#4bbab1"/><path d="m513.55 416.42-29.44 29.44h-41.63l-29.44-29.44v-41.63l29.44-29.44h41.63l29.44 29.44zm4 1.66v-44.95l-31.78-31.78h-44.95l-31.78 31.78v44.95l31.78 31.78h44.95z" fill="#f3944a"/><path d="m446.36 412.54v-33.87h33.87v33.87zm5-28.87v23.87h23.87v-23.87z" fill="#28b4ae"/><path d="m538.06 398.29v-5.5l2.75 2.75-2.75 2.75-.56.56-7.44 7.44-4 4-8 8-32.09 32.09h11.31l52.01-52.01c1.56-1.56 1.56-4.1 0-5.66l-11.23-11.23v-5.66l19.72 19.72-25.9 25.9c-.53.33-.97.77-1.3 1.3l-10.7 10.7c-.53.33-.97.77-1.3 1.3l-15.64 15.64h11.31l3.72-3.72v.01l8-8v-.01l4-4v.01l8-8v-.01l28.29-28.29c.75-.75 1.17-1.77 1.17-2.83s-.42-2.08-1.17-2.83l-28.21-28.21" fill="#e83c5b"/><path d="m514.22 450.38 3.89-3.89v3.89h-3.89-.8-10.52-5.66-11.31-45.38l8 8h73.55c2.21 0 4-1.79 4-4v-15.89l4-4v27.89h-77.55l8 8h5.26l-.01.01h11.31l.01-.01h5.66l-.01.01h11.31l.01-.01h40.01c1.06 0 2.08-.42 2.83-1.17s1.17-1.77 1.17-2.83v-39.89" fill="#28b4ae"/><path d="m460.6 470.38h5.5l-2.75 2.75-2.75-2.75-.56-.56-7.44-7.44-4-4-8-8-32.09-32.09v11.31l52.01 52.01c1.56 1.56 4.1 1.56 5.66 0l11.23-11.23h5.66l-19.72 19.72-25.9-25.9c-.33-.53-.77-.97-1.3-1.3l-27.64-27.64v11.31l3.72 3.72h-.01l8 8h.01l4 4h-.01l8 8h.01l28.29 28.29c.75.75 1.77 1.17 2.83 1.17s2.08-.42 2.83-1.17l28.21-28.21" fill="#e83c5b"/><path d="m408.48 446.59 3.89 3.89h-3.89v-3.89-.8-10.52-5.66-11.31-45.38l-8 8v73.55c0 2.21 1.79 4 4 4h15.89l4 4h-27.89v-36.63c.14-.6.14-1.23 0-1.83v-15.14c.14-.6.14-1.23 0-1.83v-22.12l-8 8v5.26 11.31 5.66l-.01-.01v11.31l.01.01v40.01c0 1.06.42 2.08 1.17 2.83s1.77 1.17 2.83 1.17h39.89" fill="#28b4ae"/><path d="m388.52 392.93v5.5l-2.75-2.75 2.75-2.75.56-.56 7.44-7.44 4-4 8-8 32.09-32.09h-11.31l-52.01 52.01c-1.56 1.56-1.56 4.1 0 5.66l11.23 11.23v5.66l-19.72-19.72 25.9-25.9c.53-.33.97-.77 1.3-1.3l10.7-10.7c.53-.33.97-.77 1.3-1.3l15.64-15.64h-11.31l-3.72 3.72v-.01l-8 8v.01l-4 4v-.01l-8 8v.01l-28.29 28.29c-.75.75-1.17 1.77-1.17 2.83s.42 2.08 1.17 2.83l28.21 28.21" fill="#e83c5b"/><path d="m412.32 340.84-3.89 3.89v-3.89h3.89.8 10.52 5.66 11.31 45.38l-8-8h-73.55c-2.21 0-4 1.79-4 4v15.89l-4 4v-27.89h77.55l-8-8h-5.26l.01-.01h-11.31l-.01.01h-5.66l.01-.01h-11.31l-.01.01h-40.01c-1.06 0-2.08.42-2.83 1.17s-1.17 1.77-1.17 2.83v39.89" fill="#28b4ae"/><path d="m465.99 320.84h-5.5l2.75-2.75 2.75 2.75.56.56 7.44 7.44 4 4 8 8 32.09 32.09v-11.31l-52.01-52.01c-1.56-1.56-4.1-1.56-5.66 0l-11.23 11.23h-5.66l19.72-19.72 25.9 25.9c.33.53.77.97 1.3 1.3l27.64 27.64v-11.31l-3.72-3.72h.01l-8-8h-.01l-4-4h.01l-8-8h-.01l-28.29-28.29c-.75-.75-1.77-1.17-2.83-1.17s-2.08.42-2.83 1.17l-28.21 28.21" fill="#e83c5b"/><path d="m518.03 344.63-3.89-3.89h3.89v3.89.8 10.52 5.66 11.31 45.38l8-8v-73.55c0-2.21-1.79-4-4-4h-15.89l-4-4h27.89v77.55l8-8v-5.26l.01.01v-11.31l-.01-.01v-5.66l.01.01v-11.31l-.01-.01v-40.01c0-1.06-.42-2.08-1.17-2.83s-1.77-1.17-2.83-1.17h-39.89" fill="#28b4ae"/><path d="m490.62 406.93h-8.01-8v8 8.01l-5.66-5.66-5.66-5.66-5.66 5.66-5.66 5.66v-8-8h-8-8.01l5.66-5.66 5.66-5.66-5.66-5.66-5.66-5.66h8.01 8v-8-8.01l5.66 5.66 5.66 5.66 5.66-5.66 5.66-5.66v8 8h8 8.01l-5.66 5.66-5.66 5.66 5.66 5.66zm19.31 8-19.32-19.32 19.19-19.19.13-.13h-27.32v-26.61-.71l-.25.26-19.07 19.07-19.32-19.32v27.32h-27.32l19.32 19.32-19.32 19.32h27.32v26.87.44l19.32-19.32 19.32 19.32v-27.32z" fill="#f3944a"/><path d="m198.16 416.42-29.44 29.44h-41.63l-29.44-29.44v-41.63l29.44-29.44h41.63l29.44 29.44zm4 1.66v-44.95l-31.78-31.78h-44.95l-31.78 31.78v44.95l31.78 31.78h44.95z" fill="#f3944a"/><path d="m130.97 412.54v-33.87h33.87v33.87zm5-28.87v23.87h23.87v-23.87z" fill="#28b4ae"/><path d="m222.68 398.29v-5.5l2.75 2.75-2.75 2.75-.56.56-7.44 7.44-4 4-8 8-32.09 32.09h11.31l52.01-52.01c1.56-1.56 1.56-4.1 0-5.66l-11.23-11.23v-5.66l19.72 19.72-54.84 54.84h11.31l3.72-3.72v.01l8-8v-.01l4-4v.01l8-8v-.01l28.29-28.29c.75-.75 1.17-1.77 1.17-2.83s-.42-2.08-1.17-2.83l-28.21-28.21" fill="#e83c5b"/><path d="m198.84 450.38 3.89-3.89v3.89h-3.89-.8-10.52-5.66-11.31-45.38l8 8h73.55c2.21 0 4-1.79 4-4v-15.89l4-4v27.89h-77.55l8 8h5.26l-.01.01h11.31l.01-.01h5.66l-.01.01h11.31l.01-.01h40.01c1.06 0 2.08-.42 2.83-1.17s1.17-1.77 1.17-2.83v-39.89" fill="#28b4ae"/><path d="m145.21 470.38h5.5l-2.75 2.75-2.75-2.75-.56-.56-7.44-7.44-4-4-8-8-32.09-32.09v11.31l52.01 52.01c1.56 1.56 4.1 1.56 5.66 0l11.23-11.23h5.66l-19.72 19.72-25.9-25.9c-.33-.53-.77-.97-1.3-1.3l-27.64-27.64v11.31l3.72 3.72h-.01l8 8h.01l4 4h-.01l8 8h.01l28.29 28.29c.75.75 1.77 1.17 2.83 1.17s2.08-.42 2.83-1.17l28.21-28.2" fill="#e83c5b"/><path d="m93.09 446.59 3.89 3.89h-3.89v-3.89-.8-10.52-5.66-11.31-45.38l-8 8v73.55c0 2.21 1.79 4 4 4h15.89l4 4h-27.89v-36.63c.14-.6.14-1.23 0-1.83v-15.14c.14-.6.14-1.23 0-1.83v-22.12l-8 8v5.26 11.31 5.66l-.01-.01v11.31l.01.01v40.01c0 1.06.42 2.08 1.17 2.83s1.77 1.17 2.83 1.17h39.89" fill="#28b4ae"/><path d="m73.13 392.93v5.5l-2.75-2.75 2.75-2.75.56-.56 7.44-7.44 4-4 8-8 32.09-32.09h-11.31l-52.01 52.01c-1.56 1.56-1.56 4.1 0 5.66l11.23 11.23v5.66l-19.72-19.72 25.9-25.9c.53-.33.97-.77 1.3-1.3l10.7-10.7c.53-.33.97-.77 1.3-1.3l15.64-15.64h-11.31l-3.72 3.72v-.01l-8 8v.01l-4 4v-.01l-8 8v.01l-28.29 28.29c-.75.75-1.17 1.77-1.17 2.83s.42 2.08 1.17 2.83l28.21 28.21" fill="#e83c5b"/><path d="m96.94 340.84-3.89 3.89v-3.89h3.89.8 10.52 5.66 11.31 45.38l-8-8h-73.55c-2.21 0-4 1.79-4 4v15.89l-4 4v-27.89h77.55l-8-8h-5.26l.01-.01h-11.31l-.01.01h-5.66l.01-.01h-11.31l-.01.01h-40.01c-1.06 0-2.08.42-2.83 1.17s-1.17 1.77-1.17 2.83v39.89" fill="#28b4ae"/><path d="m150.6 320.84h-5.5l2.75-2.75 2.75 2.75.56.56 7.44 7.44 4 4 8 8 32.09 32.09v-11.31l-52.01-52.01c-1.56-1.56-4.1-1.56-5.66 0l-11.23 11.23h-5.66l19.72-19.72 25.9 25.9c.33.53.77.97 1.3 1.3l27.64 27.64v-11.31l-3.72-3.72h.01l-8-8h-.01l-4-4h.01l-8-8h-.01l-28.29-28.29c-.75-.75-1.77-1.17-2.83-1.17s-2.08.42-2.83 1.17l-28.21 28.21" fill="#e83c5b"/><path d="m202.64 344.63-3.89-3.89h3.89v3.89.8 10.52 5.66 11.31 45.38l8-8v-73.55c0-2.21-1.79-4-4-4h-15.89l-4-4h27.89v77.55l8-8v-5.26l.01.01v-11.31l-.01-.01v-5.66l.01.01v-11.31l-.01-.01v-40.01c0-1.06-.42-2.08-1.17-2.83s-1.77-1.17-2.83-1.17h-39.89" fill="#28b4ae"/><path d="m175.23 406.93h-8.01-8v8 8.01l-5.66-5.66-5.66-5.66-5.66 5.66-5.66 5.66v-8-8h-8-8.01l5.66-5.66 5.66-5.66-5.66-5.66-5.66-5.66h8.01 8v-8-8.01l5.66 5.66 5.66 5.66 5.66-5.66 5.66-5.66v8 8h8 8.01l-5.66 5.66-5.66 5.66 5.66 5.66zm19.32 8-19.32-19.32 19.19-19.19.13-.13h-27.32v-26.61-.71l-.25.26-19.07 19.07-19.32-19.32v27.32h-27.32l19.32 19.32-19.32 19.32h27.32v26.87.44l19.32-19.32 19.32 19.32v-27.32z" fill="#f3944a"/><path d="m306.31 499.91c-1.02 0-2.05-.39-2.83-1.17l-100.3-100.3c-.75-.75-1.17-1.77-1.17-2.83s.42-2.08 1.17-2.83l100.3-100.3c1.56-1.56 4.09-1.56 5.66 0l100.3 100.3c1.56 1.56 1.56 4.09 0 5.66l-100.3 100.3c-.78.77-1.81 1.17-2.83 1.17zm-94.64-104.3 94.64 94.64 94.64-94.64-94.64-94.64zm94.64 87.33c-1.06 0-2.08-.42-2.83-1.17l-83.33-83.33c-.75-.75-1.17-1.77-1.17-2.83s.42-2.08 1.17-2.83l83.33-83.33c1.56-1.56 4.09-1.56 5.66 0l83.33 83.33c1.56 1.56 1.56 4.09 0 5.66l-83.33 83.33c-.75.74-1.77 1.17-2.83 1.17zm-77.67-87.33 77.67 77.67 77.67-77.67-77.67-77.67z" fill="#4a4a4a"/><path d="m484.12 345.3 29.44 29.44v41.63l-29.44 29.44h-41.63l-29.44-29.44v-41.63l29.44-29.44zm1.65-4h-44.95l-31.78 31.78v44.95l31.78 31.78h44.95l31.78-31.78v-44.95z" fill="#28b4ae"/><path d="m480.24 412.49h-33.87v-33.87h33.87zm-28.87-5h23.87v-23.87h-23.87z" fill="#5eb778"/><path d="m465.99 320.78h-5.5l2.75-2.75 2.75 2.75.56.56 7.44 7.44 4 4 8 8 32.09 32.09v-11.31l-52.01-52.01c-1.56-1.56-4.1-1.56-5.66 0l-11.23 11.23h-5.66l19.72-19.72 25.9 25.9c.33.53.77.97 1.3 1.3l10.7 10.7c.33.53.77.97 1.3 1.3l15.64 15.64v-11.31l-3.72-3.72h.01l-8-8h-.01l-4-4h.01l-8-8h-.01l-28.29-28.29c-.75-.75-1.77-1.17-2.83-1.17s-2.08.42-2.83 1.17l-28.21 28.21" fill="#f5a439"/><path d="m518.07 344.62-3.89-3.89h3.89v3.89.8 10.52 5.66 11.31 45.38l8-8v-73.55c0-2.21-1.79-4-4-4h-15.89l-4-4h27.89v77.55l8-8v-5.26l.01.01v-11.31l-.01-.01v-5.66l.01.01v-11.31l-.01-.01v-40.01c0-1.06-.42-2.08-1.17-2.83s-1.77-1.17-2.83-1.17h-39.89" fill="#5eb778"/><path d="m538.07 398.25v-5.5l2.75 2.75-2.75 2.75-.56.56-7.44 7.44-4 4-8 8-32.09 32.09h11.31l52.01-52.01c1.56-1.56 1.56-4.1 0-5.66l-11.23-11.23v-5.66l19.72 19.72-25.9 25.9c-.53.33-.97.77-1.3 1.3l-27.64 27.64h11.31l3.72-3.72v.01l8-8v-.01l4-4v.01l8-8v-.01l28.29-28.29c.75-.75 1.17-1.77 1.17-2.83s-.42-2.08-1.17-2.83l-28.21-28.21" fill="#f5a439"/><path d="m514.28 450.37 3.89-3.89v3.89h-3.89-.8-10.52-5.66-11.3-45.38l8 8h73.55c2.21 0 4-1.79 4-4v-15.89l4-4v27.89h-36.63c-.6-.14-1.23-.14-1.83 0h-15.14c-.6-.14-1.23-.14-1.83 0h-22.12l8 8h5.26 11.31 5.66l-.01.01h11.31l.01-.01h40.01c1.06 0 2.08-.42 2.83-1.17s1.17-1.77 1.17-2.83v-39.89" fill="#5eb778"/><path d="m460.62 470.33h5.5l-2.75 2.75-2.75-2.75-.56-.56-7.44-7.44-4-4-8-8-32.09-32.09v11.31l52.01 52.01c1.56 1.56 4.1 1.56 5.66 0l11.23-11.23h5.66l-19.72 19.72-25.9-25.9c-.33-.53-.77-.97-1.3-1.3l-10.7-10.7c-.33-.53-.77-.97-1.3-1.3l-15.64-15.64v11.31l3.72 3.72h-.01l8 8h.01l4 4h-.01l8 8h.01l28.29 28.29c.75.75 1.77 1.17 2.83 1.17s2.08-.42 2.83-1.17l28.21-28.21" fill="#f5a439"/><path d="m408.53 446.53 3.89 3.89h-3.89v-3.89-.8-10.52-5.66-11.31-45.38l-8 8v73.55c0 2.21 1.79 4 4 4h15.89l4 4h-27.89v-77.55l-8 8v5.26l-.01-.01v11.31l.01.01v5.66l-.01-.01v11.31l.01.01v40.01c0 1.06.42 2.08 1.17 2.83s1.77 1.17 2.83 1.17h39.89" fill="#5eb778"/><path d="m388.53 392.86v5.5l-2.75-2.75 2.75-2.75.56-.56 7.44-7.44 4-4 8-8 32.09-32.09h-11.31l-52.01 52.01c-1.56 1.56-1.56 4.1 0 5.66l11.23 11.23v5.66l-19.72-19.72 25.9-25.9c.53-.33.97-.77 1.3-1.3l27.64-27.64h-11.31l-3.72 3.72v-.01l-8 8v.01l-4 4v-.01l-8 8v.01l-28.29 28.29c-.75.75-1.17 1.77-1.17 2.83s.42 2.08 1.17 2.83l28.21 28.21" fill="#f5a439"/><path d="m412.32 340.82-3.89 3.89v-3.89h3.89.8 10.52 5.66 11.31 45.38l-8-8h-73.55c-2.21 0-4 1.79-4 4v15.89l-4 4v-27.89h77.55l-8-8h-5.26l.01-.01h-11.31l-.01.01h-5.66l.01-.01h-11.31l-.01.01h-40.01c-1.06 0-2.08.42-2.83 1.17s-1.17 1.77-1.17 2.83v39.89" fill="#5eb778"/><path d="m474.62 368.23v8.01 8h8 8.01l-5.66 5.66-5.66 5.66 5.66 5.66 5.66 5.66h-8-8v8 8.01l-5.66-5.66-5.66-5.66-5.66 5.66-5.66 5.66v-8.01-8h-8-8.01l5.66-5.66 5.66-5.66-5.66-5.66-5.66-5.66h8 8v-8-8.01l5.66 5.66 5.66 5.66 5.66-5.66zm8-19.31-19.32 19.32-19.19-19.19-.13-.13v27.32h-26.61-.71l.26.25 19.07 19.07-19.32 19.32h27.32v27.32l19.32-19.32 19.32 19.32v-27.32h26.87.44l-19.32-19.32 19.32-19.32h-27.32z" fill="#28b4ae"/><path d="m168.72 345.3 29.44 29.44v41.63l-29.44 29.44h-41.63l-29.44-29.44v-41.63l29.44-29.44zm1.66-4h-44.95l-31.78 31.78v44.95l31.78 31.78h44.95l31.78-31.78v-44.95z" fill="#28b4ae"/><path d="m164.84 412.49h-33.87v-33.87h33.87zm-28.87-5h23.87v-23.87h-23.87z" fill="#5eb778"/><path d="m150.59 320.78h-5.5l2.75-2.75 2.75 2.75.56.56 7.44 7.44 4 4 8 8 32.09 32.09v-11.31l-52.01-52.01c-1.56-1.56-4.1-1.56-5.66 0l-11.23 11.23h-5.66l19.72-19.72 25.9 25.9c.33.53.77.97 1.3 1.3l10.7 10.7c.33.53.77.97 1.3 1.3l15.64 15.64v-11.31l-3.72-3.72h.01l-8-8h-.01l-4-4h.01l-8-8h-.01l-28.29-28.29c-.75-.75-1.77-1.17-2.83-1.17s-2.08.42-2.83 1.17l-28.21 28.21" fill="#f5a439"/><path d="m202.68 344.62-3.89-3.89h3.89v3.89.8 10.52 5.66 11.31 45.38l8-8v-73.55c0-2.21-1.79-4-4-4h-15.89l-4-4h27.89v77.55l8-8v-5.26l.01.01v-11.31l-.01-.01v-5.66l.01.01v-11.31l-.01-.01v-40.01c0-1.06-.42-2.08-1.17-2.83s-1.77-1.17-2.83-1.17h-39.89" fill="#5eb778"/><path d="m222.68 398.25v-5.5l2.75 2.75-2.75 2.75-.56.56-7.44 7.44-4 4-8 8-32.09 32.09h11.31l52.01-52.01c1.56-1.56 1.56-4.1 0-5.66l-11.23-11.23v-5.66l19.72 19.72-25.9 25.9c-.53.33-.97.77-1.3 1.3l-27.64 27.64h11.31l3.72-3.72v.01l8-8v-.01l4-4v.01l8-8v-.01l28.29-28.29c.75-.75 1.17-1.77 1.17-2.83s-.42-2.08-1.17-2.83l-28.21-28.21" fill="#f5a439"/><path d="m198.89 450.37 3.89-3.89v3.89h-3.89-.8-10.52-5.66-11.31-45.38l8 8h73.55c2.21 0 4-1.79 4-4v-15.89l4-4v27.89h-36.63c-.6-.14-1.23-.14-1.83 0h-15.14c-.6-.14-1.23-.14-1.83 0h-22.12l8 8h5.26 11.31 5.66l-.01.01h11.31l.01-.01h40.01c1.06 0 2.08-.42 2.83-1.17s1.17-1.77 1.17-2.83v-39.89" fill="#5eb778"/><path d="m145.22 470.33h5.5l-2.75 2.75-2.75-2.75-.56-.56-7.44-7.44-4-4-8-8-32.09-32.09v11.31l52.01 52.01c1.56 1.56 4.1 1.56 5.66 0l11.23-11.23h5.66l-19.72 19.72-25.9-25.9c-.33-.53-.77-.97-1.3-1.3l-10.7-10.7c-.33-.53-.77-.97-1.3-1.3l-15.64-15.64v11.31l3.72 3.72h-.01l8 8h.01l4 4h-.01l8 8h.01l28.29 28.29c.75.75 1.77 1.17 2.83 1.17s2.08-.42 2.83-1.17l28.21-28.21" fill="#f5a439"/><path d="m93.14 446.53 3.89 3.89h-3.89v-3.89-.8-10.52-5.66-11.31-45.38l-8 8v73.55c0 2.21 1.79 4 4 4h15.89l4 4h-27.89v-77.55l-8 8v5.26l-.01-.01v11.31l.01.01v5.66l-.01-.01v11.31l.01.01v40.01c0 1.06.42 2.08 1.17 2.83s1.77 1.17 2.83 1.17h39.89" fill="#5eb778"/><path d="m73.14 392.86v5.5l-2.75-2.75 2.75-2.75.56-.56 7.44-7.44 4-4 8-8 32.09-32.09h-11.31l-52.02 52.01c-1.56 1.56-1.56 4.1 0 5.66l11.23 11.23v5.66l-19.72-19.72 25.9-25.9c.53-.33.97-.77 1.3-1.3l27.64-27.64h-11.31l-3.72 3.72v-.01l-8 8v.01l-4 4v-.01l-8 8v.01l-28.29 28.29c-.75.75-1.17 1.77-1.17 2.83s.42 2.08 1.17 2.83l28.21 28.21" fill="#f5a439"/><path d="m96.93 340.82-3.89 3.89v-3.89h3.89.8 10.52 5.66 11.31 45.38l-8-8h-73.55c-2.21 0-4 1.79-4 4v15.89l-4 4v-27.89h77.55l-8-8h-5.26l.01-.01h-11.31l-.01.01h-5.66l.01-.01h-11.31l-.01.01h-40.01c-1.06 0-2.08.42-2.83 1.17s-1.17 1.77-1.17 2.83v39.89" fill="#5eb778"/><path d="m159.22 368.23v8.01 8h8 8.01l-5.66 5.66-5.66 5.66 5.66 5.66 5.66 5.66h-8-8v8 8.01l-5.66-5.66-5.66-5.66-5.66 5.66-5.66 5.66v-8.01-8h-8-8.01l5.66-5.66 5.66-5.66-5.66-5.66-5.66-5.66h8 8v-8-8.01l5.66 5.66 5.66 5.66 5.66-5.66zm8-19.31-19.32 19.32-19.19-19.19-.13-.13v27.32h-26.61-.71l.26.25 19.07 19.07-19.32 19.32h27.32v27.32l19.32-19.32 19.32 19.32v-27.32h26.87.44l-19.32-19.32 19.32-19.32h-27.32z" fill="#28b4ae"/></svg>