<?xml version="1.0" encoding="utf-8"?>
<!-- Generator: Adobe Illustrator 24.3.0, SVG Export Plug-In . SVG Version: 6.00 Build 0)  -->
<svg version="1.1" id="Capa_1" xmlns="http://www.w3.org/2000/svg" xmlns:xlink="http://www.w3.org/1999/xlink" x="0px" y="0px"
	 viewBox="0 0 612 792" style="enable-background:new 0 0 612 792;" xml:space="preserve">
<style type="text/css">
	.st0{fill:#4BBAB1;}
	.st1{fill:#FFD331;}
	.st2{fill:#E7980B;}
	.st3{fill:#F3944A;}
	.st4{fill:#28B4AE;}
	.st5{fill:#E83C5B;}
	.st6{fill:#4A4A4A;}
	.st7{fill:#5EB778;}
	.st8{fill:#F5A439;}
</style>
<g>
	<path class="st0" d="M327.13,186.26l29.44,29.44v41.63l-29.44,29.44h-41.63l-29.44-29.44V215.7l29.44-29.44H327.13 M328.78,182.26
		h-44.95l-31.78,31.78v44.95l31.78,31.78h44.95l31.78-31.78v-44.95L328.78,182.26L328.78,182.26z"/>
</g>
<g>
	<path class="st1" d="M323.24,253.45h-33.87v-33.87h33.87V253.45z M294.38,248.45h23.87v-23.87h-23.87V248.45z"/>
</g>
<g>
	<path class="st2" d="M308.99,161.75L308.99,161.75l-5.5,0l2.75-2.75L308.99,161.75L308.99,161.75l0.56,0.56l7.44,7.44h0l4,4h0l8,8
		h0l32.09,32.09v-11.31l-52.01-52.01c-1.56-1.56-4.1-1.56-5.66,0l-11.23,11.23h-5.66l19.72-19.72l25.9,25.9
		c0.33,0.53,0.77,0.97,1.3,1.3l10.7,10.7c0.33,0.53,0.77,0.97,1.3,1.3l15.64,15.64v-11.31l-3.72-3.72h0.01l-8-8h-0.01l-4-4h0.01
		l-8-8h-0.01l-28.29-28.29c-0.75-0.75-1.77-1.17-2.83-1.17s-2.08,0.42-2.83,1.17l-28.21,28.21"/>
</g>
<g>
	<path class="st1" d="M361.08,185.59L361.08,185.59l-3.89-3.89h3.89L361.08,185.59L361.08,185.59l0,0.8v10.52l0,0v5.66l0,0v11.31
		l0,0l0,45.38l8-8l0-73.55c0-2.21-1.79-4-4-4h-15.89l-4-4h27.89l0,77.55l8-8v-5.26l0.01,0.01v-11.31l-0.01-0.01v-5.66l0.01,0.01
		v-11.31l-0.01-0.01l0-40.01c0-1.06-0.42-2.08-1.17-2.83c-0.75-0.75-1.77-1.17-2.83-1.17h-39.89"/>
</g>
<g>
	<path class="st2" d="M381.08,239.21L381.08,239.21l0-5.5l2.75,2.75L381.08,239.21L381.08,239.21l-0.56,0.56l-7.44,7.44v0l-4,4v0
		l-8,8v0l-32.09,32.09h11.31l52.01-52.01c1.56-1.56,1.56-4.1,0-5.66l-11.23-11.23v-5.66l19.72,19.72l-25.9,25.9
		c-0.53,0.33-0.97,0.77-1.3,1.3l-27.64,27.64h11.31l3.72-3.72v0.01l8-8v-0.01l4-4v0.01l8-8v-0.01l28.29-28.29
		c0.75-0.75,1.17-1.77,1.17-2.83s-0.42-2.08-1.17-2.83l-28.21-28.21"/>
</g>
<g>
	<path class="st1" d="M357.29,291.33L357.29,291.33l3.89-3.89v3.89L357.29,291.33L357.29,291.33l-0.8,0h-10.52l0,0h-5.66l0,0h-11.31
		l0,0l-45.38,0l8,8l73.55,0c2.21,0,4-1.79,4-4v-15.89l4-4v27.89l-36.63,0c-0.6-0.14-1.23-0.14-1.83,0l-15.14,0
		c-0.6-0.14-1.23-0.14-1.83,0l-22.12,0l8,8h5.26l11.31,0h5.66l-0.01,0.01h11.31l0.01-0.01l40.01,0c1.06,0,2.08-0.42,2.83-1.17
		c0.75-0.75,1.17-1.77,1.17-2.83v-39.89"/>
</g>
<g>
	<path class="st2" d="M303.63,311.29L303.63,311.29l5.5,0l-2.75,2.75L303.63,311.29L303.63,311.29l-0.56-0.56l-7.44-7.44h0l-4-4h0
		l-8-8h0l-32.09-32.09v11.31l52.01,52.01c1.56,1.56,4.1,1.56,5.66,0l11.23-11.23h5.66l-19.72,19.72l-25.9-25.9
		c-0.33-0.53-0.77-0.97-1.3-1.3l-10.7-10.7c-0.33-0.53-0.77-0.97-1.3-1.3l-15.64-15.64v11.31l3.72,3.72h-0.01l8,8h0.01l4,4h-0.01
		l8,8h0.01l28.29,28.29c0.75,0.75,1.77,1.17,2.83,1.17s2.08-0.42,2.83-1.17l28.21-28.21"/>
</g>
<g>
	<path class="st1" d="M251.54,287.49L251.54,287.49l3.89,3.89h-3.89L251.54,287.49L251.54,287.49l0-0.8v-10.52l0,0v-5.66l0,0V259.2
		l0,0l0-45.38l-8,8l0,73.55c0,2.21,1.79,4,4,4h15.89l4,4h-27.89l0-77.55l-8,8v5.26l-0.01-0.01v11.31l0.01,0.01v5.66l-0.01-0.01
		v11.31l0.01,0.01l0,40.01c0,1.06,0.42,2.08,1.17,2.83c0.75,0.75,1.77,1.17,2.83,1.17h39.89"/>
</g>
<g>
	<path class="st2" d="M231.54,233.82L231.54,233.82l0,5.5l-2.75-2.75L231.54,233.82L231.54,233.82l0.56-0.56l7.44-7.44v0l4-4v0l8-8
		v0l32.09-32.09h-11.31l-52.01,52.01c-1.56,1.56-1.56,4.1,0,5.66l11.23,11.23v5.66l-19.72-19.72l25.9-25.9
		c0.53-0.33,0.97-0.77,1.3-1.3l27.64-27.64h-11.31l-3.72,3.72v-0.01l-8,8v0.01l-4,4v-0.01l-8,8v0.01l-28.29,28.29
		c-0.75,0.75-1.17,1.77-1.17,2.83s0.42,2.08,1.17,2.83l28.21,28.21"/>
</g>
<g>
	<path class="st1" d="M255.33,181.78L255.33,181.78l-3.89,3.89v-3.89L255.33,181.78L255.33,181.78l0.8,0h10.52l0,0h5.66l0,0h11.31
		l0,0l45.38,0l-8-8l-73.55,0c-2.21,0-4,1.79-4,4v15.89l-4,4v-27.89l77.55,0l-8-8h-5.26l0.01-0.01h-11.31l-0.01,0.01h-5.66l0.01-0.01
		h-11.31l-0.01,0.01l-40.01,0c-1.06,0-2.08,0.42-2.83,1.17s-1.17,1.77-1.17,2.83v39.89"/>
</g>
<path class="st0" d="M317.63,209.19v8.01v8l8,0l8.01,0l-5.66,5.66l-5.66,5.66l5.66,5.66l5.66,5.66h-8h-8v8v8.01l-5.66-5.66
	l-5.66-5.66l-5.66,5.66l-5.66,5.66v-8.01v-8l-8,0l-8.01,0l5.66-5.66l5.66-5.66l-5.66-5.66l-5.66-5.66h8h8v-8v-8.01l5.66,5.66
	l5.66,5.66l5.66-5.66L317.63,209.19 M325.63,189.88L325.63,189.88l-19.32,19.32l-19.19-19.19l-0.13-0.13v27.32h-26.61h-0.71
	l0.26,0.25L279,236.52l-19.32,19.32l0,0H287l0,27.32h0l19.32-19.32l19.32,19.32v0v-27.32h26.87l0.44,0l-19.32-19.32l19.32-19.32l0,0
	h-27.32L325.63,189.88L325.63,189.88z"/>
<g>
	<path class="st0" d="M327.13,504.43l29.44,29.44v41.63l-29.44,29.44h-41.63l-29.44-29.44v-41.63l29.44-29.44H327.13 M328.78,500.43
		h-44.95l-31.78,31.78v44.95l31.78,31.78h44.95l31.78-31.78v-44.95L328.78,500.43L328.78,500.43z"/>
</g>
<g>
	<path class="st1" d="M323.24,571.62h-33.87v-33.87h33.87V571.62z M294.38,566.62h23.87v-23.87h-23.87V566.62z"/>
</g>
<g>
	<path class="st2" d="M308.99,479.91L308.99,479.91l-5.5,0l2.75-2.75L308.99,479.91L308.99,479.91l0.56,0.56l7.44,7.44h0l4,4h0l8,8
		h0L361.08,532v-11.31l-52.01-52.01c-1.56-1.56-4.1-1.56-5.66,0l-11.23,11.23h-5.66l19.72-19.72l54.84,54.84v-11.31l-3.72-3.72h0.01
		l-8-8h-0.01l-4-4h0.01l-8-8h-0.01l-28.29-28.29c-0.75-0.75-1.77-1.17-2.83-1.17s-2.08,0.42-2.83,1.17l-28.21,28.21"/>
</g>
<g>
	<path class="st1" d="M361.08,503.76L361.08,503.76l-3.89-3.89h3.89L361.08,503.76L361.08,503.76l0,0.8v10.52l0,0v5.66l0,0v11.31
		l0,0l0,45.38l8-8l0-73.55c0-2.21-1.79-4-4-4h-15.89l-4-4h27.89l0,77.55l8-8v-5.26l0.01,0.01v-11.31l-0.01-0.01v-5.66l0.01,0.01
		v-11.31l-0.01-0.01l0-40.01c0-1.06-0.42-2.08-1.17-2.83c-0.75-0.75-1.77-1.17-2.83-1.17h-39.89"/>
</g>
<g>
	<path class="st2" d="M381.08,557.38L381.08,557.38l0-5.5l2.75,2.75L381.08,557.38L381.08,557.38l-0.56,0.56l-7.44,7.44v0l-4,4v0
		l-8,8v0l-32.09,32.09h11.31l52.01-52.01c1.56-1.56,1.56-4.1,0-5.66l-11.23-11.23v-5.66l19.72,19.72l-25.9,25.9
		c-0.53,0.33-0.97,0.77-1.3,1.3l-27.64,27.64h11.31l3.72-3.72v0.01l8-8v-0.01l4-4v0.01l8-8v-0.01l28.29-28.29
		c0.75-0.75,1.17-1.77,1.17-2.83s-0.42-2.08-1.17-2.83l-28.21-28.21"/>
</g>
<g>
	<path class="st1" d="M357.29,609.5L357.29,609.5l3.89-3.89v3.89L357.29,609.5L357.29,609.5l-0.8,0h-10.52l0,0h-5.66l0,0h-11.31l0,0
		l-45.38,0l8,8l73.55,0c2.21,0,4-1.79,4-4v-15.89l4-4v27.89l-36.63,0c-0.6-0.14-1.23-0.14-1.83,0l-15.14,0
		c-0.6-0.14-1.23-0.14-1.83,0l-22.12,0l8,8h5.26l11.31,0h5.66l-0.01,0.01h11.31l0.01-0.01l40.01,0c1.06,0,2.08-0.42,2.83-1.17
		c0.75-0.75,1.17-1.77,1.17-2.83v-39.89"/>
</g>
<g>
	<path class="st2" d="M303.63,629.46L303.63,629.46l5.5,0l-2.75,2.75L303.63,629.46L303.63,629.46l-0.56-0.56l-7.44-7.44h0l-4-4h0
		l-8-8h0l-32.09-32.09v11.31l52.01,52.01c1.56,1.56,4.1,1.56,5.66,0l11.23-11.23h5.66l-19.72,19.72l-25.9-25.9
		c-0.33-0.53-0.77-0.97-1.3-1.3l-10.7-10.7c-0.33-0.53-0.77-0.97-1.3-1.3l-15.64-15.64v11.31l3.72,3.72h-0.01l8,8h0.01l4,4h-0.01
		l8,8h0.01l28.29,28.29c0.75,0.75,1.77,1.17,2.83,1.17s2.08-0.42,2.83-1.17l28.21-28.21"/>
</g>
<g>
	<path class="st1" d="M251.54,605.66L251.54,605.66l3.89,3.89h-3.89L251.54,605.66L251.54,605.66l0-0.8v-10.52l0,0v-5.66l0,0v-11.31
		l0,0l0-45.38l-8,8l0,73.55c0,2.21,1.79,4,4,4h15.89l4,4h-27.89l0-77.55l-8,8v5.26l-0.01-0.01v11.31l0.01,0.01v5.66l-0.01-0.01
		v11.31l0.01,0.01l0,40.01c0,1.06,0.42,2.08,1.17,2.83c0.75,0.75,1.77,1.17,2.83,1.17h39.89"/>
</g>
<g>
	<path class="st2" d="M231.54,551.99L231.54,551.99l0,5.5l-2.75-2.75L231.54,551.99L231.54,551.99l0.56-0.56l7.44-7.44v0l4-4v0l8-8
		v0l32.09-32.09h-11.31l-52.01,52.01c-1.56,1.56-1.56,4.1,0,5.66l11.23,11.23v5.66l-19.72-19.72l25.9-25.9
		c0.53-0.33,0.97-0.77,1.3-1.3l27.64-27.64h-11.31l-3.72,3.72v-0.01l-8,8v0.01l-4,4v-0.01l-8,8v0.01l-28.29,28.29
		c-0.75,0.75-1.17,1.77-1.17,2.83s0.42,2.08,1.17,2.83l28.21,28.21"/>
</g>
<g>
	<path class="st1" d="M255.33,499.95L255.33,499.95l-3.89,3.89v-3.89L255.33,499.95L255.33,499.95l0.8,0h10.52l0,0h5.66l0,0h11.31
		l0,0l45.38,0l-8-8l-73.55,0c-2.21,0-4,1.79-4,4v15.89l-4,4v-27.89l77.55,0l-8-8h-5.26l0.01-0.01h-11.31l-0.01,0.01h-5.66l0.01-0.01
		h-11.31l-0.01,0.01l-40.01,0c-1.06,0-2.08,0.42-2.83,1.17c-0.75,0.75-1.17,1.77-1.17,2.83v39.89"/>
</g>
<path class="st0" d="M317.63,527.36v8.01v8l8,0l8.01,0l-5.66,5.66l-5.66,5.66l5.66,5.66l5.66,5.66h-8h-8v8v8.01l-5.66-5.66
	l-5.66-5.66l-5.66,5.66l-5.66,5.66v-8.01v-8l-8,0l-8.01,0l5.66-5.66l5.66-5.66l-5.66-5.66l-5.66-5.66h8h8v-8v-8.01l5.66,5.66
	l5.66,5.66l5.66-5.66L317.63,527.36 M325.63,508.05L325.63,508.05l-19.32,19.32l-19.19-19.19l-0.13-0.13v27.32h-26.61h-0.71
	l0.26,0.25L279,554.69l-19.32,19.32l0,0H287l0,27.32h0l19.32-19.32l19.32,19.32v0v-27.32h26.87l0.44,0l-19.32-19.32l19.32-19.32l0,0
	h-27.32L325.63,508.05L325.63,508.05z"/>
<g>
	<g>
		<path class="st3" d="M513.55,416.42l-29.44,29.44h-41.63l-29.44-29.44v-41.63l29.44-29.44h41.63l29.44,29.44V416.42
			 M517.55,418.08v-44.95l-31.78-31.78h-44.95l-31.78,31.78v44.95l31.78,31.78h44.95L517.55,418.08L517.55,418.08z"/>
	</g>
	<g>
		<path class="st4" d="M446.36,412.54v-33.87h33.87v33.87H446.36z M451.36,383.67v23.87h23.87v-23.87H451.36z"/>
	</g>
	<g>
		<path class="st5" d="M538.06,398.29L538.06,398.29l0-5.5l2.75,2.75L538.06,398.29L538.06,398.29l-0.56,0.56l-7.44,7.44v0l-4,4v0
			l-8,8v0l-32.09,32.09h11.31l52.01-52.01c1.56-1.56,1.56-4.1,0-5.66l-11.23-11.23v-5.66l19.72,19.72l-25.9,25.9
			c-0.53,0.33-0.97,0.77-1.3,1.3l-10.7,10.7c-0.53,0.33-0.97,0.77-1.3,1.3l-15.64,15.64h11.31l3.72-3.72v0.01l8-8v-0.01l4-4v0.01
			l8-8v-0.01l28.29-28.29c0.75-0.75,1.17-1.77,1.17-2.83s-0.42-2.08-1.17-2.83l-28.21-28.21"/>
	</g>
	<g>
		<path class="st4" d="M514.22,450.38L514.22,450.38l3.89-3.89v3.89L514.22,450.38L514.22,450.38l-0.8,0h-10.52l0,0h-5.66l0,0
			h-11.31l0,0l-45.38,0l8,8l73.55,0c2.21,0,4-1.79,4-4v-15.89l4-4v27.89l-77.55,0l8,8h5.26l-0.01,0.01h11.31l0.01-0.01h5.66
			l-0.01,0.01h11.31l0.01-0.01l40.01,0c1.06,0,2.08-0.42,2.83-1.17c0.75-0.75,1.17-1.77,1.17-2.83v-39.89"/>
	</g>
	<g>
		<path class="st5" d="M460.6,470.38L460.6,470.38l5.5,0l-2.75,2.75L460.6,470.38L460.6,470.38l-0.56-0.56l-7.44-7.44h0l-4-4h0l-8-8
			h0l-32.09-32.09v11.31l52.01,52.01c1.56,1.56,4.1,1.56,5.66,0l11.23-11.23h5.66l-19.72,19.72l-25.9-25.9
			c-0.33-0.53-0.77-0.97-1.3-1.3l-27.64-27.64v11.31l3.72,3.72h-0.01l8,8h0.01l4,4h-0.01l8,8h0.01l28.29,28.29
			c0.75,0.75,1.77,1.17,2.83,1.17s2.08-0.42,2.83-1.17l28.21-28.21"/>
	</g>
	<g>
		<path class="st4" d="M408.48,446.59L408.48,446.59l3.89,3.89h-3.89L408.48,446.59L408.48,446.59l0-0.8v-10.52l0,0v-5.66l0,0V418.3
			l0,0l0-45.38l-8,8l0,73.55c0,2.21,1.79,4,4,4h15.89l4,4h-27.89l0-36.63c0.14-0.6,0.14-1.23,0-1.83l0-15.14
			c0.14-0.6,0.14-1.23,0-1.83l0-22.12l-8,8v5.26l0,11.31v5.66l-0.01-0.01v11.31l0.01,0.01l0,40.01c0,1.06,0.42,2.08,1.17,2.83
			c0.75,0.75,1.77,1.17,2.83,1.17h39.89"/>
	</g>
	<g>
		<path class="st5" d="M388.52,392.93L388.52,392.93l0,5.5l-2.75-2.75L388.52,392.93L388.52,392.93l0.56-0.56l7.44-7.44v0l4-4v0l8-8
			v0l32.09-32.09h-11.31l-52.01,52.01c-1.56,1.56-1.56,4.1,0,5.66l11.23,11.23v5.66l-19.72-19.72l25.9-25.9
			c0.53-0.33,0.97-0.77,1.3-1.3l10.7-10.7c0.53-0.33,0.97-0.77,1.3-1.3l15.64-15.64h-11.31l-3.72,3.72v-0.01l-8,8v0.01l-4,4v-0.01
			l-8,8v0.01l-28.29,28.29c-0.75,0.75-1.17,1.77-1.17,2.83s0.42,2.08,1.17,2.83l28.21,28.21"/>
	</g>
	<g>
		<path class="st4" d="M412.32,340.84L412.32,340.84l-3.89,3.89v-3.89L412.32,340.84L412.32,340.84l0.8,0h10.52l0,0h5.66l0,0h11.31
			l0,0l45.38,0l-8-8l-73.55,0c-2.21,0-4,1.79-4,4v15.89l-4,4v-27.89l77.55,0l-8-8h-5.26l0.01-0.01h-11.31l-0.01,0.01h-5.66
			l0.01-0.01h-11.31l-0.01,0.01l-40.01,0c-1.06,0-2.08,0.42-2.83,1.17c-0.75,0.75-1.17,1.77-1.17,2.83v39.89"/>
	</g>
	<g>
		<path class="st5" d="M465.99,320.84L465.99,320.84l-5.5,0l2.75-2.75L465.99,320.84L465.99,320.84l0.56,0.56l7.44,7.44h0l4,4h0l8,8
			h0l32.09,32.09v-11.31l-52.01-52.01c-1.56-1.56-4.1-1.56-5.66,0l-11.23,11.23h-5.66l19.72-19.72l25.9,25.9
			c0.33,0.53,0.77,0.97,1.3,1.3l27.64,27.64v-11.31l-3.72-3.72h0.01l-8-8h-0.01l-4-4h0.01l-8-8h-0.01l-28.29-28.29
			c-0.75-0.75-1.77-1.17-2.83-1.17s-2.08,0.42-2.83,1.17l-28.21,28.21"/>
	</g>
	<g>
		<path class="st4" d="M518.03,344.63L518.03,344.63l-3.89-3.89h3.89L518.03,344.63L518.03,344.63l0,0.8v10.52l0,0v5.66l0,0v11.31
			l0,0l0,45.38l8-8l0-73.55c0-2.21-1.79-4-4-4h-15.89l-4-4h27.89l0,77.55l8-8v-5.26l0.01,0.01v-11.31l-0.01-0.01v-5.66l0.01,0.01
			v-11.31l-0.01-0.01l0-40.01c0-1.06-0.42-2.08-1.17-2.83s-1.77-1.17-2.83-1.17h-39.89"/>
	</g>
	<path class="st3" d="M490.62,406.93h-8.01h-8l0,8l0,8.01l-5.66-5.66l-5.66-5.66l-5.66,5.66l-5.66,5.66v-8v-8h-8h-8.01l5.66-5.66
		l5.66-5.66l-5.66-5.66l-5.66-5.66h8.01h8l0-8l0-8.01l5.66,5.66l5.66,5.66l5.66-5.66l5.66-5.66v8v8h8h8.01l-5.66,5.66l-5.66,5.66
		l5.66,5.66L490.62,406.93 M509.93,414.93L509.93,414.93l-19.32-19.32l19.19-19.19l0.13-0.13h-27.32v-26.61v-0.71l-0.25,0.26
		l-19.07,19.07l-19.32-19.32l0,0v27.32l-27.32,0v0l19.32,19.32l-19.32,19.32h0h27.32v26.87l0,0.44l19.32-19.32l19.32,19.32l0,0
		v-27.32L509.93,414.93L509.93,414.93z"/>
	<g>
		<g>
			<path class="st3" d="M198.16,416.42l-29.44,29.44h-41.63l-29.44-29.44v-41.63l29.44-29.44h41.63l29.44,29.44V416.42
				 M202.16,418.08v-44.95l-31.78-31.78h-44.95l-31.78,31.78v44.95l31.78,31.78h44.95L202.16,418.08L202.16,418.08z"/>
		</g>
		<g>
			<path class="st4" d="M130.97,412.54v-33.87h33.87v33.87H130.97z M135.97,383.67v23.87h23.87v-23.87H135.97z"/>
		</g>
		<g>
			<path class="st5" d="M222.68,398.29L222.68,398.29l0-5.5l2.75,2.75L222.68,398.29L222.68,398.29l-0.56,0.56l-7.44,7.44v0l-4,4v0
				l-8,8v0l-32.09,32.09h11.31l52.01-52.01c1.56-1.56,1.56-4.1,0-5.66l-11.23-11.23v-5.66l19.72,19.72l-54.84,54.84h11.31l3.72-3.72
				v0.01l8-8v-0.01l4-4v0.01l8-8v-0.01l28.29-28.29c0.75-0.75,1.17-1.77,1.17-2.83s-0.42-2.08-1.17-2.83l-28.21-28.21"/>
		</g>
		<g>
			<path class="st4" d="M198.84,450.38L198.84,450.38l3.89-3.89v3.89L198.84,450.38L198.84,450.38l-0.8,0h-10.52l0,0h-5.66l0,0
				h-11.31l0,0l-45.38,0l8,8l73.55,0c2.21,0,4-1.79,4-4v-15.89l4-4v27.89l-77.55,0l8,8h5.26l-0.01,0.01h11.31l0.01-0.01h5.66
				l-0.01,0.01h11.31l0.01-0.01l40.01,0c1.06,0,2.08-0.42,2.83-1.17c0.75-0.75,1.17-1.77,1.17-2.83v-39.89"/>
		</g>
		<g>
			<path class="st5" d="M145.21,470.38L145.21,470.38l5.5,0l-2.75,2.75L145.21,470.38L145.21,470.38l-0.56-0.56l-7.44-7.44h0l-4-4h0
				l-8-8h0l-32.09-32.09v11.31l52.01,52.01c1.56,1.56,4.1,1.56,5.66,0l11.23-11.23h5.66l-19.72,19.72l-25.9-25.9
				c-0.33-0.53-0.77-0.97-1.3-1.3l-27.64-27.64v11.31l3.72,3.72h-0.01l8,8h0.01l4,4h-0.01l8,8h0.01l28.29,28.29
				c0.75,0.75,1.77,1.17,2.83,1.17s2.08-0.42,2.83-1.17L179,470.38"/>
		</g>
		<g>
			<path class="st4" d="M93.09,446.59L93.09,446.59l3.89,3.89h-3.89L93.09,446.59L93.09,446.59l0-0.8v-10.52l0,0v-5.66l0,0V418.3
				l0,0l0-45.38l-8,8l0,73.55c0,2.21,1.79,4,4,4h15.89l4,4H81.09l0-36.63c0.14-0.6,0.14-1.23,0-1.83l0-15.14
				c0.14-0.6,0.14-1.23,0-1.83l0-22.12l-8,8v5.26l0,11.31v5.66l-0.01-0.01v11.31l0.01,0.01l0,40.01c0,1.06,0.42,2.08,1.17,2.83
				c0.75,0.75,1.77,1.17,2.83,1.17h39.89"/>
		</g>
		<g>
			<path class="st5" d="M73.13,392.93L73.13,392.93l0,5.5l-2.75-2.75L73.13,392.93L73.13,392.93l0.56-0.56l7.44-7.44v0l4-4v0l8-8v0
				l32.09-32.09h-11.31L61.9,392.85c-1.56,1.56-1.56,4.1,0,5.66l11.23,11.23v5.66l-19.72-19.72l25.9-25.9
				c0.53-0.33,0.97-0.77,1.3-1.3l10.7-10.7c0.53-0.33,0.97-0.77,1.3-1.3l15.64-15.64H96.94l-3.72,3.72v-0.01l-8,8v0.01l-4,4v-0.01
				l-8,8v0.01l-28.29,28.29c-0.75,0.75-1.17,1.77-1.17,2.83s0.42,2.08,1.17,2.83l28.21,28.21"/>
		</g>
		<g>
			<path class="st4" d="M96.94,340.84L96.94,340.84l-3.89,3.89v-3.89L96.94,340.84L96.94,340.84l0.8,0h10.52l0,0h5.66l0,0h11.31l0,0
				l45.38,0l-8-8l-73.55,0c-2.21,0-4,1.79-4,4v15.89l-4,4v-27.89l77.55,0l-8-8h-5.26l0.01-0.01h-11.31l-0.01,0.01h-5.66l0.01-0.01
				h-11.31l-0.01,0.01l-40.01,0c-1.06,0-2.08,0.42-2.83,1.17c-0.75,0.75-1.17,1.77-1.17,2.83v39.89"/>
		</g>
		<g>
			<path class="st5" d="M150.6,320.84L150.6,320.84l-5.5,0l2.75-2.75L150.6,320.84L150.6,320.84l0.56,0.56l7.44,7.44h0l4,4h0l8,8h0
				l32.09,32.09v-11.31l-52.01-52.01c-1.56-1.56-4.1-1.56-5.66,0l-11.23,11.23h-5.66l19.72-19.72l25.9,25.9
				c0.33,0.53,0.77,0.97,1.3,1.3l27.64,27.64v-11.31l-3.72-3.72h0.01l-8-8h-0.01l-4-4h0.01l-8-8h-0.01l-28.29-28.29
				c-0.75-0.75-1.77-1.17-2.83-1.17s-2.08,0.42-2.83,1.17l-28.21,28.21"/>
		</g>
		<g>
			<path class="st4" d="M202.64,344.63L202.64,344.63l-3.89-3.89h3.89L202.64,344.63L202.64,344.63l0,0.8v10.52l0,0v5.66l0,0v11.31
				l0,0l0,45.38l8-8l0-73.55c0-2.21-1.79-4-4-4h-15.89l-4-4h27.89l0,77.55l8-8v-5.26l0.01,0.01v-11.31l-0.01-0.01v-5.66l0.01,0.01
				v-11.31l-0.01-0.01l0-40.01c0-1.06-0.42-2.08-1.17-2.83s-1.77-1.17-2.83-1.17h-39.89"/>
		</g>
	</g>
	<path class="st3" d="M175.23,406.93h-8.01h-8l0,8l0,8.01l-5.66-5.66l-5.66-5.66l-5.66,5.66l-5.66,5.66v-8v-8h-8h-8.01l5.66-5.66
		l5.66-5.66l-5.66-5.66l-5.66-5.66h8.01h8l0-8l0-8.01l5.66,5.66l5.66,5.66l5.66-5.66l5.66-5.66v8v8h8h8.01l-5.66,5.66l-5.66,5.66
		l5.66,5.66L175.23,406.93 M194.55,414.93L194.55,414.93l-19.32-19.32l19.19-19.19l0.13-0.13h-27.32v-26.61v-0.71l-0.25,0.26
		l-19.07,19.07l-19.32-19.32l0,0v27.32l-27.32,0v0l19.32,19.32l-19.32,19.32h0h27.32v26.87l0,0.44l19.32-19.32l19.32,19.32l0,0
		v-27.32L194.55,414.93L194.55,414.93z"/>
	<path class="st6" d="M306.31,499.91c-1.02,0-2.05-0.39-2.83-1.17l-100.3-100.3c-0.75-0.75-1.17-1.77-1.17-2.83s0.42-2.08,1.17-2.83
		l100.3-100.3c1.56-1.56,4.09-1.56,5.66,0l100.3,100.3c1.56,1.56,1.56,4.09,0,5.66l-100.3,100.3
		C308.36,499.51,307.33,499.91,306.31,499.91z M211.67,395.61l94.64,94.64l94.64-94.64l-94.64-94.64L211.67,395.61z M306.31,482.94
		c-1.06,0-2.08-0.42-2.83-1.17l-83.33-83.33c-0.75-0.75-1.17-1.77-1.17-2.83s0.42-2.08,1.17-2.83l83.33-83.33
		c1.56-1.56,4.09-1.56,5.66,0l83.33,83.33c1.56,1.56,1.56,4.09,0,5.66l-83.33,83.33C308.39,482.51,307.37,482.94,306.31,482.94z
		 M228.64,395.61l77.67,77.67l77.67-77.67l-77.67-77.67L228.64,395.61z"/>
</g>
<g>
	<g>
		<path class="st4" d="M484.12,345.3l29.44,29.44v41.63l-29.44,29.44h-41.63l-29.44-29.44v-41.63l29.44-29.44H484.12 M485.77,341.3
			h-44.95l-31.78,31.78v44.95l31.78,31.78h44.95l31.78-31.78v-44.95L485.77,341.3L485.77,341.3z"/>
	</g>
	<g>
		<path class="st7" d="M480.24,412.49h-33.87v-33.87h33.87V412.49z M451.37,407.49h23.87v-23.87h-23.87V407.49z"/>
	</g>
	<g>
		<path class="st8" d="M465.99,320.78L465.99,320.78l-5.5,0l2.75-2.75L465.99,320.78L465.99,320.78l0.56,0.56l7.44,7.44h0l4,4h0l8,8
			h0l32.09,32.09v-11.31l-52.01-52.01c-1.56-1.56-4.1-1.56-5.66,0l-11.23,11.23h-5.66l19.72-19.72l25.9,25.9
			c0.33,0.53,0.77,0.97,1.3,1.3l10.7,10.7c0.33,0.53,0.77,0.97,1.3,1.3l15.64,15.64v-11.31l-3.72-3.72h0.01l-8-8h-0.01l-4-4h0.01
			l-8-8h-0.01l-28.29-28.29c-0.75-0.75-1.77-1.17-2.83-1.17s-2.08,0.42-2.83,1.17l-28.21,28.21"/>
	</g>
	<g>
		<path class="st7" d="M518.07,344.62L518.07,344.62l-3.89-3.89h3.89L518.07,344.62L518.07,344.62l0,0.8v10.52l0,0v5.66l0,0v11.31
			l0,0l0,45.38l8-8l0-73.55c0-2.21-1.79-4-4-4h-15.89l-4-4h27.89l0,77.55l8-8v-5.26l0.01,0.01v-11.31l-0.01-0.01v-5.66l0.01,0.01
			v-11.31l-0.01-0.01l0-40.01c0-1.06-0.42-2.08-1.17-2.83c-0.75-0.75-1.77-1.17-2.83-1.17h-39.89"/>
	</g>
	<g>
		<path class="st8" d="M538.07,398.25L538.07,398.25l0-5.5l2.75,2.75L538.07,398.25L538.07,398.25l-0.56,0.56l-7.44,7.44v0l-4,4v0
			l-8,8v0l-32.09,32.09h11.31l52.01-52.01c1.56-1.56,1.56-4.1,0-5.66l-11.23-11.23v-5.66l19.72,19.72l-25.9,25.9
			c-0.53,0.33-0.97,0.77-1.3,1.3l-27.64,27.64h11.31l3.72-3.72v0.01l8-8v-0.01l4-4v0.01l8-8v-0.01l28.29-28.29
			c0.75-0.75,1.17-1.77,1.17-2.83s-0.42-2.08-1.17-2.83l-28.21-28.21"/>
	</g>
	<g>
		<path class="st7" d="M514.28,450.37L514.28,450.37l3.89-3.89v3.89L514.28,450.37L514.28,450.37l-0.8,0h-10.52l0,0h-5.66l0,0H486
			l0,0l-45.38,0l8,8l73.55,0c2.21,0,4-1.79,4-4v-15.89l4-4v27.89l-36.63,0c-0.6-0.14-1.23-0.14-1.83,0l-15.14,0
			c-0.6-0.14-1.23-0.14-1.83,0l-22.12,0l8,8h5.26l11.31,0h5.66l-0.01,0.01h11.31l0.01-0.01l40.01,0c1.06,0,2.08-0.42,2.83-1.17
			c0.75-0.75,1.17-1.77,1.17-2.83v-39.89"/>
	</g>
	<g>
		<path class="st8" d="M460.62,470.33L460.62,470.33l5.5,0l-2.75,2.75L460.62,470.33L460.62,470.33l-0.56-0.56l-7.44-7.44h0l-4-4h0
			l-8-8h0l-32.09-32.09v11.31l52.01,52.01c1.56,1.56,4.1,1.56,5.66,0l11.23-11.23h5.66l-19.72,19.72l-25.9-25.9
			c-0.33-0.53-0.77-0.97-1.3-1.3l-10.7-10.7c-0.33-0.53-0.77-0.97-1.3-1.3l-15.64-15.64v11.31l3.72,3.72h-0.01l8,8h0.01l4,4h-0.01
			l8,8h0.01l28.29,28.29c0.75,0.75,1.77,1.17,2.83,1.17s2.08-0.42,2.83-1.17l28.21-28.21"/>
	</g>
	<g>
		<path class="st7" d="M408.53,446.53L408.53,446.53l3.89,3.89h-3.89L408.53,446.53L408.53,446.53l0-0.8v-10.52l0,0v-5.66l0,0
			v-11.31l0,0l0-45.38l-8,8l0,73.55c0,2.21,1.79,4,4,4h15.89l4,4h-27.89l0-77.55l-8,8v5.26l-0.01-0.01v11.31l0.01,0.01v5.66
			l-0.01-0.01v11.31l0.01,0.01l0,40.01c0,1.06,0.42,2.08,1.17,2.83c0.75,0.75,1.77,1.17,2.83,1.17h39.89"/>
	</g>
	<g>
		<path class="st8" d="M388.53,392.86L388.53,392.86l0,5.5l-2.75-2.75L388.53,392.86L388.53,392.86l0.56-0.56l7.44-7.44v0l4-4v0l8-8
			v0l32.09-32.09h-11.31l-52.01,52.01c-1.56,1.56-1.56,4.1,0,5.66l11.23,11.23v5.66l-19.72-19.72l25.9-25.9
			c0.53-0.33,0.97-0.77,1.3-1.3l27.64-27.64h-11.31l-3.72,3.72v-0.01l-8,8v0.01l-4,4v-0.01l-8,8v0.01l-28.29,28.29
			c-0.75,0.75-1.17,1.77-1.17,2.83s0.42,2.08,1.17,2.83l28.21,28.21"/>
	</g>
	<g>
		<path class="st7" d="M412.32,340.82L412.32,340.82l-3.89,3.89v-3.89L412.32,340.82L412.32,340.82l0.8,0h10.52l0,0h5.66l0,0h11.31
			l0,0l45.38,0l-8-8l-73.55,0c-2.21,0-4,1.79-4,4v15.89l-4,4v-27.89l77.55,0l-8-8h-5.26l0.01-0.01h-11.31l-0.01,0.01h-5.66
			l0.01-0.01h-11.31l-0.01,0.01l-40.01,0c-1.06,0-2.08,0.42-2.83,1.17c-0.75,0.75-1.17,1.77-1.17,2.83v39.89"/>
	</g>
	<path class="st4" d="M474.62,368.23v8.01v8l8,0l8.01,0l-5.66,5.66l-5.66,5.66l5.66,5.66l5.66,5.66h-8h-8v8v8.01l-5.66-5.66
		l-5.66-5.66l-5.66,5.66l-5.66,5.66v-8.01v-8l-8,0l-8.01,0l5.66-5.66l5.66-5.66l-5.66-5.66l-5.66-5.66h8h8v-8v-8.01l5.66,5.66
		l5.66,5.66l5.66-5.66L474.62,368.23 M482.62,348.92L482.62,348.92l-19.32,19.32l-19.19-19.19l-0.13-0.13v27.32h-26.61h-0.71
		l0.26,0.25l19.07,19.07l-19.32,19.32l0,0h27.32l0,27.32h0l19.32-19.32l19.32,19.32v0v-27.32h26.87l0.44,0l-19.32-19.32l19.32-19.32
		l0,0h-27.32L482.62,348.92L482.62,348.92z"/>
</g>
<g>
	<g>
		<path class="st4" d="M168.72,345.3l29.44,29.44v41.63l-29.44,29.44h-41.63l-29.44-29.44v-41.63l29.44-29.44H168.72 M170.38,341.3
			h-44.95l-31.78,31.78v44.95l31.78,31.78h44.95l31.78-31.78v-44.95L170.38,341.3L170.38,341.3z"/>
	</g>
	<g>
		<path class="st7" d="M164.84,412.49h-33.87v-33.87h33.87V412.49z M135.97,407.49h23.87v-23.87h-23.87V407.49z"/>
	</g>
	<g>
		<path class="st8" d="M150.59,320.78L150.59,320.78l-5.5,0l2.75-2.75L150.59,320.78L150.59,320.78l0.56,0.56l7.44,7.44h0l4,4h0l8,8
			h0l32.09,32.09v-11.31l-52.01-52.01c-1.56-1.56-4.1-1.56-5.66,0l-11.23,11.23h-5.66l19.72-19.72l25.9,25.9
			c0.33,0.53,0.77,0.97,1.3,1.3l10.7,10.7c0.33,0.53,0.77,0.97,1.3,1.3l15.64,15.64v-11.31l-3.72-3.72h0.01l-8-8h-0.01l-4-4h0.01
			l-8-8h-0.01l-28.29-28.29c-0.75-0.75-1.77-1.17-2.83-1.17s-2.08,0.42-2.83,1.17l-28.21,28.21"/>
	</g>
	<g>
		<path class="st7" d="M202.68,344.62L202.68,344.62l-3.89-3.89h3.89L202.68,344.62L202.68,344.62l0,0.8v10.52l0,0v5.66l0,0v11.31
			l0,0l0,45.38l8-8l0-73.55c0-2.21-1.79-4-4-4h-15.89l-4-4h27.89l0,77.55l8-8v-5.26l0.01,0.01v-11.31l-0.01-0.01v-5.66l0.01,0.01
			v-11.31l-0.01-0.01l0-40.01c0-1.06-0.42-2.08-1.17-2.83c-0.75-0.75-1.77-1.17-2.83-1.17h-39.89"/>
	</g>
	<g>
		<path class="st8" d="M222.68,398.25L222.68,398.25l0-5.5l2.75,2.75L222.68,398.25L222.68,398.25l-0.56,0.56l-7.44,7.44v0l-4,4v0
			l-8,8v0l-32.09,32.09h11.31l52.01-52.01c1.56-1.56,1.56-4.1,0-5.66l-11.23-11.23v-5.66l19.72,19.72l-25.9,25.9
			c-0.53,0.33-0.97,0.77-1.3,1.3l-27.64,27.64h11.31l3.72-3.72v0.01l8-8v-0.01l4-4v0.01l8-8v-0.01l28.29-28.29
			c0.75-0.75,1.17-1.77,1.17-2.83s-0.42-2.08-1.17-2.83l-28.21-28.21"/>
	</g>
	<g>
		<path class="st7" d="M198.89,450.37L198.89,450.37l3.89-3.89v3.89L198.89,450.37L198.89,450.37l-0.8,0h-10.52l0,0h-5.66l0,0H170.6
			l0,0l-45.38,0l8,8l73.55,0c2.21,0,4-1.79,4-4v-15.89l4-4v27.89l-36.63,0c-0.6-0.14-1.23-0.14-1.83,0l-15.14,0
			c-0.6-0.14-1.23-0.14-1.83,0l-22.12,0l8,8h5.26l11.31,0h5.66l-0.01,0.01h11.31l0.01-0.01l40.01,0c1.06,0,2.08-0.42,2.83-1.17
			c0.75-0.75,1.17-1.77,1.17-2.83v-39.89"/>
	</g>
	<g>
		<path class="st8" d="M145.22,470.33L145.22,470.33l5.5,0l-2.75,2.75L145.22,470.33L145.22,470.33l-0.56-0.56l-7.44-7.44h0l-4-4h0
			l-8-8h0l-32.09-32.09v11.31l52.01,52.01c1.56,1.56,4.1,1.56,5.66,0l11.23-11.23h5.66l-19.72,19.72l-25.9-25.9
			c-0.33-0.53-0.77-0.97-1.3-1.3l-10.7-10.7c-0.33-0.53-0.77-0.97-1.3-1.3l-15.64-15.64v11.31l3.72,3.72h-0.01l8,8h0.01l4,4h-0.01
			l8,8h0.01l28.29,28.29c0.75,0.75,1.77,1.17,2.83,1.17s2.08-0.42,2.83-1.17l28.21-28.21"/>
	</g>
	<g>
		<path class="st7" d="M93.14,446.53L93.14,446.53l3.89,3.89h-3.89L93.14,446.53L93.14,446.53l0-0.8v-10.52l0,0v-5.66l0,0v-11.31
			l0,0l0-45.38l-8,8l0,73.55c0,2.21,1.79,4,4,4h15.89l4,4H81.14l0-77.55l-8,8v5.26l-0.01-0.01v11.31l0.01,0.01v5.66l-0.01-0.01
			v11.31l0.01,0.01l0,40.01c0,1.06,0.42,2.08,1.17,2.83c0.75,0.75,1.77,1.17,2.83,1.17h39.89"/>
	</g>
	<g>
		<path class="st8" d="M73.14,392.86L73.14,392.86l0,5.5l-2.75-2.75L73.14,392.86L73.14,392.86l0.56-0.56l7.44-7.44v0l4-4v0l8-8v0
			l32.09-32.09h-11.31L61.9,392.78c-1.56,1.56-1.56,4.1,0,5.66l11.23,11.23v5.66l-19.72-19.72l25.9-25.9
			c0.53-0.33,0.97-0.77,1.3-1.3l27.64-27.64H96.94l-3.72,3.72v-0.01l-8,8v0.01l-4,4v-0.01l-8,8v0.01l-28.29,28.29
			c-0.75,0.75-1.17,1.77-1.17,2.83s0.42,2.08,1.17,2.83l28.21,28.21"/>
	</g>
	<g>
		<path class="st7" d="M96.93,340.82L96.93,340.82l-3.89,3.89v-3.89L96.93,340.82L96.93,340.82l0.8,0h10.52l0,0h5.66l0,0h11.31l0,0
			l45.38,0l-8-8l-73.55,0c-2.21,0-4,1.79-4,4v15.89l-4,4v-27.89l77.55,0l-8-8h-5.26l0.01-0.01h-11.31l-0.01,0.01h-5.66l0.01-0.01
			h-11.31l-0.01,0.01l-40.01,0c-1.06,0-2.08,0.42-2.83,1.17c-0.75,0.75-1.17,1.77-1.17,2.83v39.89"/>
	</g>
	<path class="st4" d="M159.22,368.23l0,8.01v8l8,0l8.01,0l-5.66,5.66l-5.66,5.66l5.66,5.66l5.66,5.66h-8h-8v8v8.01l-5.66-5.66
		l-5.66-5.66l-5.66,5.66l-5.66,5.66l0-8.01v-8l-8,0l-8.01,0l5.66-5.66l5.66-5.66l-5.66-5.66l-5.66-5.66h8h8v-8v-8.01l5.66,5.66
		l5.66,5.66l5.66-5.66L159.22,368.23 M167.22,348.92L167.22,348.92l-19.32,19.32l-19.19-19.19l-0.13-0.13v27.32h-26.61h-0.71
		l0.26,0.25l19.07,19.07l-19.32,19.32l0,0h27.32l0,27.32h0l19.32-19.32l19.32,19.32v0v-27.32h26.87l0.44,0l-19.32-19.32l19.32-19.32
		l0,0h-27.32L167.22,348.92L167.22,348.92z"/>
</g>
</svg>
