<svg enable-background="new 0 0 128 128" viewBox="0 0 128 128" xmlns="http://www.w3.org/2000/svg" xmlns:xlink="http://www.w3.org/1999/xlink"><linearGradient id="a" gradientTransform="matrix(1 0 0 -1 0 128)" gradientUnits="userSpaceOnUse" x1="98.661" x2="98.661" y1="106.18" y2="7.11"><stop offset=".006854" stop-color="#ffecb3"/><stop offset="1" stop-color="#ffe082"/></linearGradient><linearGradient id="b" gradientUnits="userSpaceOnUse" x1="114.546" x2="114.546" y1="105.4563" y2="120.9953"><stop offset="0" stop-color="#6d6c6b"/><stop offset="1" stop-color="#504f4f"/></linearGradient><linearGradient id="c" gradientTransform="matrix(1 0 0 -1 0 128)" gradientUnits="userSpaceOnUse" x1="34.63" x2="34.63" y1="115.75" y2="72.737"><stop offset="0" stop-color="#e0e0e0"/><stop offset="1" stop-color="#9e9e9e"/></linearGradient><linearGradient id="d" gradientTransform="matrix(1 0 0 -1 0 128)" gradientUnits="userSpaceOnUse" x1="23.555" x2="23.555" y1="129.8333" y2="88.532"><stop offset="0" stop-color="#e57373"/><stop offset="1" stop-color="#f44336"/></linearGradient><linearGradient id="e" gradientTransform="matrix(1 0 0 -1 0 128)" gradientUnits="userSpaceOnUse" x1="65.0981" x2="65.0981" y1="111.833" y2="37.005"><stop offset="0" stop-color="#ffc107"/><stop offset="1" stop-color="#ffa000"/></linearGradient><linearGradient id="f"><stop offset="0" stop-color="#ffca28"/><stop offset="1" stop-color="#ffb300"/></linearGradient><linearGradient id="g" gradientTransform="matrix(.7071 -.7071 -.7071 -.7071 55.2818 129.9528)" gradientUnits="userSpaceOnUse" x1="40.1294" x2="40.1294" xlink:href="#f" y1="86.5" y2="15"/><linearGradient id="h" gradientTransform="matrix(.7071 -.7071 -.7071 -.7071 55.2818 129.9528)" gradientUnits="userSpaceOnUse" x1="65.4724" x2="65.4724" xlink:href="#f" y1="86.5" y2="15"/><path d="m123.8 118.75-6.18-16.49-4.25-11.35c-.96-2.93-2.59-5.59-4.77-7.77l-9.82-9.82-25.46 25.46 9.82 9.82c2.18 2.18 4.84 3.81 7.77 4.77l11.35 4.25 16.49 6.18c3.11 1.01 6.06-1.94 5.05-5.05z" fill="url(#a)"/><path d="m85.58 106.78-.03-.03z" fill="none"/><path d="m106.73 85.55.21.21c-.07-.07-.12-.16-.19-.23z" fill="none"/><path d="m118.75 123.8-13.66-5.12c1.47-2.91 3.39-5.56 5.71-7.87 2.31-2.31 4.95-4.23 7.88-5.72l5.12 13.66c1.01 3.11-1.94 6.06-5.05 5.05z" fill="url(#b)"/><path d="m51.6 26.14-25.46 25.46-8.48-8.49 25.45-25.45z" fill="url(#c)"/><path d="m16.63 32.63h36v4h-36z" fill="#9e9e9e" transform="matrix(.7071 -.7071 .7071 .7071 -14.3419 34.6296)"/><path d="m43.11 17.66-25.45 25.45-11.32-11.31c-3.12-3.12-3.12-8.19 0-11.31l14.15-14.15c3.12-3.12 8.19-3.12 11.31 0z" fill="url(#d)"/><path d="m33.68 44.06 10.37-10.37 52.37 52.37.09 2.04c.19 4.4-4.02 8.61-8.42 8.42l-2.04-.09z" fill="url(#e)"/><path d="m26.14 51.6 54.7 54.7c3.07-1.29 5.45-4.5 5.3-7.83l-.09-2.04-52.37-52.37z" fill="url(#g)"/><path d="m44.06 33.68 52.37 52.37 2.04.09c3.33.14 6.55-2.23 7.83-5.3l-54.7-54.7z" fill="url(#h)"/></svg>