<?xml version="1.0" encoding="UTF-8" standalone="no"?>
<svg
   xmlns:dc="http://purl.org/dc/elements/1.1/"
   xmlns:cc="http://creativecommons.org/ns#"
   xmlns:rdf="http://www.w3.org/1999/02/22-rdf-syntax-ns#"
   xmlns:svg="http://www.w3.org/2000/svg"
   xmlns="http://www.w3.org/2000/svg"
   xmlns:sodipodi="http://sodipodi.sourceforge.net/DTD/sodipodi-0.dtd"
   xmlns:inkscape="http://www.inkscape.org/namespaces/inkscape"
   version="1.1"
   id="Layer_1"
   x="0px"
   y="0px"
   viewBox="0 0 91.346786 88.039406"
   xml:space="preserve"
   sodipodi:docname="registro.svg"
   width="91.346786"
   height="88.039406"
   inkscape:version="1.0.2 (e86c870879, 2021-01-15)"><metadata
   id="metadata43"><rdf:RDF><cc:Work
       rdf:about=""><dc:format>image/svg+xml</dc:format><dc:type
         rdf:resource="http://purl.org/dc/dcmitype/StillImage" /></cc:Work></rdf:RDF></metadata><defs
   id="defs41" /><sodipodi:namedview
   pagecolor="#ffffff"
   bordercolor="#666666"
   borderopacity="1"
   objecttolerance="10"
   gridtolerance="10"
   guidetolerance="10"
   inkscape:pageopacity="0"
   inkscape:pageshadow="2"
   inkscape:window-width="2560"
   inkscape:window-height="1005"
   id="namedview39"
   showgrid="false"
   inkscape:zoom="3.265625"
   inkscape:cx="86.255015"
   inkscape:cy="74.18193"
   inkscape:window-x="0"
   inkscape:window-y="0"
   inkscape:window-maximized="1"
   inkscape:current-layer="Layer_1" />
<g
   id="gold"
   transform="matrix(0.78747229,0,0,0.78747229,-4.4098448,-5.512306)"
   style="stroke-width:1.26988">
	
		<radialGradient
   id="face_1_"
   cx="63.599998"
   cy="216.89999"
   r="56.959702"
   gradientTransform="translate(0,-154)"
   gradientUnits="userSpaceOnUse">
		<stop
   offset="0.5"
   style="stop-color:#FDE030"
   id="stop2" />
		<stop
   offset="0.92"
   style="stop-color:#F7C02B"
   id="stop4" />
		<stop
   offset="1"
   style="stop-color:#F4A223"
   id="stop6" />
	</radialGradient>
	<path
   id="face"
   style="fill:url(#face_1_);stroke-width:1.49385"
   d="M 63.6,118.8 C 35.7,118.8 5.6,101.3 5.6,62.9 5.6,24.5 35.7,7 63.6,7 c 15.5,0 29.8,5.1 40.4,14.4 11.5,10.2 17.6,24.6 17.6,41.5 0,16.9 -6.1,31.2 -17.6,41.4 -10.6,9.3 -25,14.5 -40.4,14.5 z" />
	<path
   style="fill:#eb8f00;stroke-width:1.49385"
   d="m 111.49,29.67 c 5.33,8.6 8.11,18.84 8.11,30.23 0,16.9 -6.1,31.2 -17.6,41.4 -10.6,9.3 -25,14.5 -40.4,14.5 -18.06,0 -37,-7.35 -48.18,-22.94 10.76,17.66 31,25.94 50.18,25.94 15.4,0 29.8,-5.2 40.4,-14.5 11.5,-10.2 17.6,-24.5 17.6,-41.4 0,-12.74 -3.47,-24.06 -10.11,-33.23 z"
   id="path10" />
</g>
<g
   id="facial_expressions"
   transform="matrix(0.78747229,0,0,0.78747229,-4.4098448,-5.512306)"
   style="stroke-width:1.26988">
	<path
   style="fill:#ffffff;stroke-width:1.49385"
   d="m 101.7,72.21 c -1.4,-2.52 -4.44,-3.63 -7.14,-2.6 -9,2.8 -20,3.83 -31.08,3.84 C 52.79,73.49 42.15,72 31.89,69 c -2.7,-1.03 -5.74,0.08 -7.14,2.6 -1.36,2.51 -0.37,5.42 0.77,7.93 6.48,14.12 20.58,22.56 37.88,22.61 h 0.16 c 17.3,0 30.94,-7.9 37.37,-22 1.14,-2.51 2.13,-5.42 0.77,-7.93 z"
   id="path13" />
	<g
   id="smiling-eyes-grinning-face"
   style="stroke-width:1.26988">
		<g
   id="eyes"
   style="stroke-width:1.26988">
			<path
   style="fill:#422b0d;stroke-width:1.26988"
   d="m 49,56.89 -0.15,-0.2 -0.43,-0.55 -0.53,-0.57 c -0.22,-0.25 -0.48,-0.49 -0.73,-0.75 -0.25,-0.26 -0.56,-0.51 -0.84,-0.72 -0.26,-0.2 -0.54,-0.39 -0.84,-0.54 -0.2,-0.11 -0.42,-0.2 -0.65,-0.25 -0.07,-0.01 -0.14,-0.01 -0.21,0 0,0 -0.06,0 -0.09,0 h -0.08 c 0.12,0 -0.27,0 0.27,0 h -0.55 c -0.15,0 -0.05,0 0,0 h 0.08 c 0.08,0 0,0 0,0 h -0.11 c -0.23,0.05 -0.45,0.13 -0.66,0.25 -0.29,0.16 -0.58,0.34 -0.84,0.54 -0.29,0.22 -0.57,0.46 -0.83,0.72 -0.53,0.51 -1,1 -1.3,1.39 l -0.52,0.6 -0.23,0.27 c -1.44,1.61 -3.87,1.87 -5.62,0.61 -1.12,-0.78 -1.69,-2.13 -1.47,-3.48 0,0 0.07,-0.4 0.26,-1.11 0.3,-1.01 0.72,-1.99 1.25,-2.91 0.85,-1.5 2,-2.81 3.38,-3.85 0.91,-0.7 1.92,-1.26 3,-1.65 0.3,-0.12 0.61,-0.21 0.92,-0.29 0.33,-0.1 0.66,-0.17 1,-0.23 l 0.61,-0.09 0.51,-0.06 h 0.55 0.79 0.51 c 0.34,0 0.67,0.09 1,0.14 0.64,0.11 1.28,0.28 1.89,0.51 1.08,0.39 2.09,0.95 3,1.65 1.38,1.04 2.53,2.35 3.38,3.85 0.31,0.52 0.58,1.07 0.8,1.63 0.19,0.45 0.35,0.9 0.48,1.37 0.07,0.24 0.13,0.48 0.16,0.72 v 0.25 c 0.3,2.04 -1.12,3.94 -3.16,4.24 -0.05,0.01 -0.1,0.01 -0.15,0.02 -1.46,0.21 -2.92,-0.37 -3.85,-1.51 z"
   id="path15" />
			<path
   style="fill:#422b0d;stroke-width:1.26988"
   d="m 88.46,56.89 -0.16,-0.2 -0.43,-0.55 -0.53,-0.57 c -0.22,-0.25 -0.48,-0.49 -0.73,-0.75 -0.25,-0.26 -0.56,-0.51 -0.84,-0.72 -0.26,-0.2 -0.54,-0.39 -0.84,-0.54 -0.2,-0.11 -0.42,-0.2 -0.65,-0.25 -0.07,-0.01 -0.14,-0.01 -0.21,0 0,0 -0.06,0 -0.09,0 H 83.9 c 0.12,0 -0.27,0 0.27,0 h -0.55 c -0.15,0 -0.05,0 0,0 h 0.08 c 0.08,0 0,0 0,0 h -0.11 c -0.23,0.05 -0.45,0.13 -0.66,0.25 -0.29,0.15 -0.57,0.34 -0.83,0.54 -0.3,0.22 -0.58,0.46 -0.84,0.72 -0.53,0.51 -1,1 -1.3,1.39 l -0.52,0.6 -0.22,0.27 c -1.45,1.61 -3.87,1.87 -5.63,0.61 -1.12,-0.78 -1.69,-2.13 -1.47,-3.48 0,0 0.07,-0.4 0.27,-1.11 0.3,-1.02 0.71,-2 1.25,-2.91 0.85,-1.5 1.99,-2.81 3.37,-3.85 0.91,-0.7 1.92,-1.26 3,-1.65 0.3,-0.12 0.61,-0.21 0.92,-0.29 0.33,-0.1 0.66,-0.17 1,-0.23 l 0.62,-0.09 0.5,-0.06 h 0.55 0.79 0.51 c 0.34,0 0.67,0.09 1,0.14 0.65,0.11 1.28,0.28 1.89,0.51 1.08,0.39 2.09,0.95 3,1.65 1.38,1.04 2.53,2.35 3.38,3.85 0.31,0.52 0.58,1.07 0.8,1.63 0.19,0.44 0.35,0.89 0.48,1.35 0.07,0.24 0.13,0.48 0.16,0.72 v 0.25 c 0.32,2.04 -1.08,3.95 -3.12,4.27 -0.03,0 -0.06,0.01 -0.09,0.01 -1.49,0.25 -3,-0.33 -3.94,-1.51 z"
   id="path17" />
		</g>
	</g>
	<path
   style="fill:#422b0d;stroke-width:1.49385"
   d="M 62.84,74.7"
   id="path21" />
	<path
   style="fill:#422b0d;stroke-width:1.49385"
   d="M 62.84,74.7"
   id="path23" />
	<path
   style="fill:#422b0d;stroke-width:1.49385"
   d="M 63.42,100.89"
   id="path25" />
	<path
   style="fill:#422b0d;stroke-width:1.49385"
   d="M 63.49,74.7"
   id="path27" />
	<path
   style="fill:#422b0d;stroke-width:1.49385"
   d="M 63.49,74.7"
   id="path29" />
	<path
   style="fill:#422b0d;stroke-width:1.49385"
   d="M 63.42,100.89"
   id="path31" />
</g>
<path
   style="fill:#b3b3b3;stroke-width:0.999999"
   d="m 75.038235,54.201718 c -0.07088,0.04724 -4.882328,3.645997 -13.930385,5.976914 v -8.898437 c -1.031589,0.157495 -2.086802,0.291366 -3.149889,0.409486 v 9.197677 c -3.661746,0.724475 -7.38649,1.126085 -11.119109,1.204833 v -9.780407 h -1.244206 c -0.637853,0 -1.26783,0 -1.905683,0 v 9.780407 c 0.338613,0.0079 0.338613,0.01575 0,0.01575 l -0.01575,-0.01575 c -3.645997,-0.063 -7.276244,-0.409486 -10.867118,-1.047339 V 51.445565 C 31.735134,51.30382 30.687796,51.138451 29.656208,50.957332 v 9.426043 c -9.307924,-2.212796 -13.985509,-5.748547 -14.048507,-5.803671 -0.259866,-0.204742 -0.582729,-0.322863 -0.913468,-0.330738 0.220492,0.992215 0.55123,1.960806 0.992215,2.882149 0.275615,0.606353 0.574855,1.189084 0.889844,1.771813 4.11848,2.181298 8.52045,3.771992 13.079915,4.724833 v 0.01575 7.748727 c 1.023714,0.496108 2.078926,0.944968 3.149889,1.330828 V 64.25774 c 3.590874,0.598478 7.228996,0.929217 10.867118,0.98434 l 0.01575,0.01575 c -0.0079,0 -0.0079,0 -0.01575,0 v 9.615036 c 0.606353,0 1.220581,0.063 1.842684,0.063 h 0.125997 c 0.40161,0 0.787472,0 1.181207,0 V 65.24208 h -0.04724 0.04724 c 3.73262,-0.07088 7.457363,-0.44886 11.134859,-1.126086 v 8.827565 c 1.070962,-0.362238 2.126175,-0.787472 3.149889,-1.267831 v -8.229086 c 4.803581,-1.102461 9.426043,-2.905772 13.709892,-5.346936 0.07875,-0.173244 0.173244,-0.330738 0.251992,-0.503982 0.574854,-1.165459 0.952841,-2.41754 1.102461,-3.708994 -0.40161,-0.04725 -0.811096,0.07088 -1.13396,0.314988 z"
   id="path34" />
<path
   style="fill:#eb8f00;stroke-width:0.999999"
   d="m 75.998951,50.894335 c -1.11821,-1.992305 -3.520001,-2.874275 -5.661925,-2.071053 -8.079466,2.354542 -16.458171,3.527876 -24.868375,3.488502 -8.418079,0.03937 -16.796785,-1.13396 -24.87625,-3.488502 -2.118301,-0.803222 -4.512217,0.063 -5.614678,2.047428 -1.070962,1.976556 -0.299239,4.2681 0.606353,6.244656 0.401612,0.889844 0.850471,1.763937 1.346578,2.606533 0,0 -1.653692,-6.126535 -0.220492,-7.906222 0.488233,-0.755973 1.307204,-1.228456 2.204922,-1.275705 0.370113,0 0.73235,0.063 1.086712,0.173244 8.221211,2.41754 16.749536,3.638122 25.32511,3.622372 h 0.275615 c 8.575573,0.01575 17.103898,-1.204832 25.325109,-3.622372 0.354362,-0.110246 0.7166,-0.173244 1.086711,-0.173244 0.897719,0.04725 1.724565,0.519732 2.212798,1.275705 1.456823,1.779687 -0.220493,7.929846 -0.220493,7.929846 0.488233,-0.842595 0.976466,-1.708815 1.385952,-2.606533 0.897718,-1.976556 1.677316,-4.260225 0.606353,-6.244655 z"
   id="path36" />
</svg>
