<?xml version="1.0" encoding="UTF-8" standalone="no"?>
<!-- Generator: Adobe Illustrator 24.0.3, SVG Export Plug-In . SVG Version: 6.00 Build 0)  -->

<svg
   version="1.1"
   id="Layer_1"
   x="0px"
   y="0px"
   viewBox="0 0 119.91681 176.28177"
   xml:space="preserve"
   sodipodi:docname="greenbelt.svg"
   inkscape:version="1.1.1 (3bf5ae0d25, 2021-09-20, custom)"
   width="119.91681"
   height="176.28177"
   xmlns:inkscape="http://www.inkscape.org/namespaces/inkscape"
   xmlns:sodipodi="http://sodipodi.sourceforge.net/DTD/sodipodi-0.dtd"
   xmlns:xlink="http://www.w3.org/1999/xlink"
   xmlns="http://www.w3.org/2000/svg"
   xmlns:svg="http://www.w3.org/2000/svg"><defs
   id="defs56"><linearGradient
     inkscape:collect="always"
     id="linearGradient3016"><stop
       style="stop-color:#01760f;stop-opacity:1"
       offset="0"
       id="stop3012" /><stop
       style="stop-color:#00b030;stop-opacity:1"
       offset="1"
       id="stop3014" /></linearGradient><linearGradient
     inkscape:collect="always"
     id="linearGradient2110"><stop
       style="stop-color:#01760f;stop-opacity:1"
       offset="0"
       id="stop2106" /><stop
       style="stop-color:#00b030;stop-opacity:1"
       offset="1"
       id="stop2108" /></linearGradient><linearGradient
     inkscape:collect="always"
     id="linearGradient2104"><stop
       style="stop-color:#01760f;stop-opacity:1"
       offset="0"
       id="stop2100" /><stop
       style="stop-color:#00b030;stop-opacity:1"
       offset="1"
       id="stop2102" /></linearGradient><linearGradient
     inkscape:collect="always"
     id="linearGradient1983"><stop
       style="stop-color:#01760f;stop-opacity:1"
       offset="0"
       id="stop1979" /><stop
       style="stop-color:#00b030;stop-opacity:1"
       offset="1"
       id="stop1981" /></linearGradient><linearGradient
     inkscape:collect="always"
     xlink:href="#linearGradient1983"
     id="linearGradient1985"
     x1="60.700001"
     y1="102.11891"
     x2="80.635002"
     y2="102.11891"
     gradientUnits="userSpaceOnUse"
     gradientTransform="translate(-3.991597,52.21291)" /><linearGradient
     inkscape:collect="always"
     xlink:href="#linearGradient3016"
     id="linearGradient1987"
     x1="45.751713"
     y1="98.815636"
     x2="64.344444"
     y2="98.815636"
     gradientUnits="userSpaceOnUse"
     gradientTransform="translate(-3.991597,52.21291)" /><linearGradient
     inkscape:collect="always"
     xlink:href="#linearGradient2110"
     id="linearGradient1989"
     x1="33.787319"
     y1="75.679611"
     x2="94.212677"
     y2="75.679611"
     gradientUnits="userSpaceOnUse"
     gradientTransform="translate(-3.991597,52.21291)" /><linearGradient
     inkscape:collect="always"
     xlink:href="#linearGradient2104"
     id="linearGradient1991"
     x1="55.434906"
     y1="79"
     x2="72.931976"
     y2="79"
     gradientUnits="userSpaceOnUse"
     gradientTransform="translate(-3.991597,52.21291)" /><linearGradient
     id="hand_3_"
     gradientUnits="userSpaceOnUse"
     x1="113.3392"
     y1="22.747101"
     x2="103.0556"
     y2="29.823"
     gradientTransform="matrix(1,0,0,-1,0,130)"><stop
       offset="0"
       style="stop-color:#8D5738"
       id="stop69" /><stop
       offset="0.5"
       style="stop-color:#A56C43"
       id="stop71" /></linearGradient><linearGradient
     id="tone_12_"
     gradientUnits="userSpaceOnUse"
     x1="106.9453"
     y1="24.495399"
     x2="105.3179"
     y2="27.113501"
     gradientTransform="matrix(1,0,0,-1,0,130)"><stop
       offset="0"
       style="stop-color:#8D5738"
       id="stop78" /><stop
       offset="1"
       style="stop-color:#A56C43;stop-opacity:0"
       id="stop80" /></linearGradient><linearGradient
     id="arm_3_"
     gradientUnits="userSpaceOnUse"
     x1="435.4021"
     y1="66.414001"
     x2="435.4021"
     y2="21.552"
     gradientTransform="rotate(180,262.8788,65)"><stop
       offset="0"
       style="stop-color:#8D5738"
       id="stop2-3" /><stop
       offset="0.5"
       style="stop-color:#A56C43"
       id="stop4-6" /></linearGradient><linearGradient
     id="arm_4_"
     gradientUnits="userSpaceOnUse"
     x1="37.188499"
     y1="66.414001"
     x2="37.188499"
     y2="21.552"
     gradientTransform="matrix(1,0,0,-1,0,130)"><stop
       offset="0"
       style="stop-color:#8D5738"
       id="stop9-7" /><stop
       offset="0.5"
       style="stop-color:#A56C43"
       id="stop11-5" /></linearGradient><linearGradient
     id="shadow_4_"
     gradientUnits="userSpaceOnUse"
     x1="26.4937"
     y1="22.3799"
     x2="31.461"
     y2="16.134199"
     gradientTransform="matrix(1,-0.0091,-0.0091,-1,0.1613,130.1915)"><stop
       offset="0"
       style="stop-color:#8D5738"
       id="stop29" /><stop
       offset="0.5"
       style="stop-color:#A56C43;stop-opacity:0"
       id="stop31" /></linearGradient><linearGradient
     id="hand_4_"
     gradientUnits="userSpaceOnUse"
     x1="13.9837"
     y1="24.346901"
     x2="28.701599"
     y2="30.101999"
     gradientTransform="matrix(1,0,0,-1,0,130)"><stop
       offset="0"
       style="stop-color:#8D5738"
       id="stop88" /><stop
       offset="0.5"
       style="stop-color:#A56C43"
       id="stop90" /></linearGradient><linearGradient
     id="tone_15_"
     gradientUnits="userSpaceOnUse"
     x1="20.8951"
     y1="25.176201"
     x2="23.123899"
     y2="27.935801"
     gradientTransform="matrix(1,0,0,-1,0,130)"><stop
       offset="0"
       style="stop-color:#8D5738"
       id="stop97" /><stop
       offset="1"
       style="stop-color:#A56C43;stop-opacity:0"
       id="stop99" /></linearGradient><radialGradient
     id="SVGID_1_-3"
     cx="107.1771"
     cy="85.792297"
     r="11.3119"
     gradientTransform="matrix(1,0,0,0.4912,-36.1332,-0.9694)"
     gradientUnits="userSpaceOnUse"><stop
       offset="0.7275"
       style="stop-color:#6D4C41;stop-opacity:0"
       id="stop109" /><stop
       offset="1"
       style="stop-color:#6D4C41"
       id="stop111" /></radialGradient><radialGradient
     id="SVGID_2_-5"
     cx="97.518097"
     cy="91.3022"
     r="3.3429"
     gradientTransform="matrix(-0.9057,0.4238,-0.3144,-0.6719,199.2167,59.5054)"
     gradientUnits="userSpaceOnUse"><stop
       offset="0.6628"
       style="stop-color:#6D4C41"
       id="stop116" /><stop
       offset="1"
       style="stop-color:#6D4C41;stop-opacity:0"
       id="stop118" /></radialGradient><radialGradient
     id="SVGID_3_-6"
     cx="106.7716"
     cy="97.859802"
     r="14.6835"
     gradientTransform="matrix(-0.0746,-0.9972,0.8311,-0.0622,0.1579,142.5941)"
     gradientUnits="userSpaceOnUse"><stop
       offset="0.7247"
       style="stop-color:#6D4C41;stop-opacity:0"
       id="stop123" /><stop
       offset="1"
       style="stop-color:#6D4C41"
       id="stop125" /></radialGradient><radialGradient
     id="SVGID_4_"
     cx="56.411999"
     cy="100.2528"
     r="14.6835"
     gradientTransform="matrix(0.0746,-0.9972,-0.8311,-0.0622,133.5996,92.5238)"
     gradientUnits="userSpaceOnUse"><stop
       offset="0.7247"
       style="stop-color:#6D4C41;stop-opacity:0"
       id="stop130" /><stop
       offset="1"
       style="stop-color:#6D4C41"
       id="stop132" /></radialGradient><radialGradient
     id="SVGID_5_"
     cx="58.966801"
     cy="85.792297"
     r="11.3119"
     gradientTransform="matrix(-1,0,0,0.4912,115.9336,-0.9694)"
     gradientUnits="userSpaceOnUse"><stop
       offset="0.7275"
       style="stop-color:#6D4C41;stop-opacity:0"
       id="stop137" /><stop
       offset="1"
       style="stop-color:#6D4C41"
       id="stop139" /></radialGradient><radialGradient
     id="SVGID_6_"
     cx="45.496201"
     cy="90.159599"
     r="3.3429"
     gradientTransform="matrix(0.9057,0.4238,0.3144,-0.6719,-23.7282,80.7854)"
     gradientUnits="userSpaceOnUse"><stop
       offset="0.6628"
       style="stop-color:#6D4C41"
       id="stop144" /><stop
       offset="1"
       style="stop-color:#6D4C41;stop-opacity:0"
       id="stop146" /></radialGradient><radialGradient
     id="SVGID_7_"
     cx="72.532402"
     cy="105.8447"
     r="17.211399"
     gradientTransform="matrix(0.3076,0.9515,0.706,-0.2282,-24.2466,-22.5749)"
     gradientUnits="userSpaceOnUse"><stop
       offset="0.6985"
       style="stop-color:#6D4C41;stop-opacity:0"
       id="stop172" /><stop
       offset="1"
       style="stop-color:#6D4C41"
       id="stop174" /></radialGradient><radialGradient
     id="SVGID_8_"
     cx="55.6581"
     cy="125.8242"
     r="4.5127001"
     gradientTransform="matrix(0.8813,0.4726,0.5603,-1.045,-63.5381,108.7041)"
     gradientUnits="userSpaceOnUse"><stop
       offset="0.58"
       style="stop-color:#6D4C41"
       id="stop179" /><stop
       offset="1"
       style="stop-color:#6D4C41;stop-opacity:0"
       id="stop181" /></radialGradient><radialGradient
     id="SVGID_9_"
     cx="152.8123"
     cy="57.256001"
     r="13.8729"
     gradientTransform="matrix(-0.9378,-0.3944,-0.2182,0.5285,221.9003,41.7236)"
     gradientUnits="userSpaceOnUse"><stop
       offset="0.6985"
       style="stop-color:#6D4C41;stop-opacity:0"
       id="stop186" /><stop
       offset="1"
       style="stop-color:#6D4C41"
       id="stop188" /></radialGradient><radialGradient
     id="SVGID_10_"
     cx="54.200001"
     cy="122.1798"
     r="4.1422"
     gradientTransform="matrix(1,0,0,-1.2233,0,157.1004)"
     gradientUnits="userSpaceOnUse"><stop
       offset="0.7016"
       style="stop-color:#6D4C41;stop-opacity:0"
       id="stop193" /><stop
       offset="1"
       style="stop-color:#6D4C41"
       id="stop195" /></radialGradient><radialGradient
     id="SVGID_11_"
     cx="55.855598"
     cy="113.2966"
     r="7.7686"
     gradientTransform="matrix(-0.9657,-0.2598,-0.2432,0.9037,135.1216,-72.9243)"
     gradientUnits="userSpaceOnUse"><stop
       offset="0.6605"
       style="stop-color:#6D4C41;stop-opacity:0"
       id="stop200" /><stop
       offset="1"
       style="stop-color:#6D4C41"
       id="stop202" /></radialGradient><radialGradient
     id="SVGID_12_"
     cx="51.660198"
     cy="107.1577"
     r="8.1561003"
     gradientTransform="matrix(0.9907,0.1363,0.1915,-1.3921,-19.9108,164.5829)"
     gradientUnits="userSpaceOnUse"><stop
       offset="0.5981"
       style="stop-color:#6D4C41;stop-opacity:0"
       id="stop207" /><stop
       offset="1"
       style="stop-color:#6D4C41"
       id="stop209" /></radialGradient></defs><sodipodi:namedview
   id="namedview54"
   pagecolor="#ffffff"
   bordercolor="#eeeeee"
   borderopacity="1"
   inkscape:pageshadow="0"
   inkscape:pageopacity="0"
   inkscape:pagecheckerboard="0"
   showgrid="false"
   inkscape:zoom="4.187398"
   inkscape:cx="32.478403"
   inkscape:cy="70.68829"
   inkscape:window-width="2560"
   inkscape:window-height="1000"
   inkscape:window-x="1920"
   inkscape:window-y="0"
   inkscape:window-maximized="1"
   inkscape:current-layer="Layer_1"
   inkscape:snap-global="false" />
<linearGradient
   id="SVGID_1_"
   gradientUnits="userSpaceOnUse"
   x1="64"
   y1="719.97748"
   x2="64"
   y2="806.52582"
   gradientTransform="translate(-3.9915968,-661.67689)">
	<stop
   offset="0.284"
   style="stop-color:#F5F5F5"
   id="stop2" />
	<stop
   offset="0.8416"
   style="stop-color:#E0E0E0"
   id="stop4" />
</linearGradient>
<g
   id="hairGroup"
   transform="matrix(1.5450771,0,0,1.5450771,-38.84049,-10.647499)"><path
     id="hair_3_"
     style="fill:#543930"
     d="m 80.86,40.06 c -0.6,-1.1 0.17,-2.21 1.48,-3.6 2.08,-2.19 4.35,-7.28 2.24,-12.44 0.01,-0.03 -0.41,-0.9 -0.4,-0.93 L 83.31,23.05 C 83.03,23.01 73.52,22.99 64,22.99 c -9.52,0 -19.03,0.02 -19.31,0.06 0,0 -1.28,0.94 -1.27,0.97 -2.1,5.17 0.16,10.25 2.24,12.44 1.31,1.38 2.08,2.5 1.48,3.6 -0.58,1.07 -2.33,1.22 -2.33,1.22 0,0 0.4,1.09 1.37,1.68 0.9,0.54 1.99,0.67 2.76,0.69 0,0 2.97,4.11 10.74,4.11 H 64 68.32 c 7.76,0 10.74,-4.11 10.74,-4.11 0.76,-0.02 1.86,-0.15 2.75,-0.69 0.97,-0.59 1.37,-1.68 1.37,-1.68 0,0 -1.74,-0.15 -2.32,-1.22 z" /><g
     id="hairHighlights_1_"><radialGradient
       id="radialGradient1085"
       cx="107.1771"
       cy="85.792297"
       r="11.3119"
       gradientTransform="matrix(1,0,0,0.4912,-36.1332,-0.9694)"
       gradientUnits="userSpaceOnUse"><stop
         offset="0.7275"
         style="stop-color:#6D4C41;stop-opacity:0"
         id="stop1081" /><stop
         offset="1"
         style="stop-color:#6D4C41"
         id="stop1083" /></radialGradient><path
       style="fill:url(#SVGID_1_-3)"
       d="M 63.99,47.76 V 43.2 l 13.8,-1.09 1.25,1.54 c 0,0 -2.97,4.11 -10.74,4.11 z"
       id="path114" /><radialGradient
       id="radialGradient1092"
       cx="97.518097"
       cy="91.3022"
       r="3.3429"
       gradientTransform="matrix(-0.9057,0.4238,-0.3144,-0.6719,199.2167,59.5054)"
       gradientUnits="userSpaceOnUse"><stop
         offset="0.6628"
         style="stop-color:#6D4C41"
         id="stop1088" /><stop
         offset="1"
         style="stop-color:#6D4C41;stop-opacity:0"
         id="stop1090" /></radialGradient><path
       style="fill:url(#SVGID_2_-5)"
       d="m 79.02,41.66 c -2.07,-3.14 2.52,-4.31 2.52,-4.31 0,0 0,0 0,0 -0.8,0.99 -1.16,1.86 -0.69,2.71 0.58,1.07 2.32,1.22 2.32,1.22 0,0 -2.36,2.11 -4.15,0.38 z"
       id="path121" /><radialGradient
       id="radialGradient1099"
       cx="106.7716"
       cy="97.859802"
       r="14.6835"
       gradientTransform="matrix(-0.0746,-0.9972,0.8311,-0.0622,0.1579,142.5941)"
       gradientUnits="userSpaceOnUse"><stop
         offset="0.7247"
         style="stop-color:#6D4C41;stop-opacity:0"
         id="stop1095" /><stop
         offset="1"
         style="stop-color:#6D4C41"
         id="stop1097" /></radialGradient><path
       style="fill:url(#SVGID_3_-6)"
       d="m 84.59,24.02 c 2.05,5 -0.11,10.15 -2.13,12.32 -0.28,0.3 -1.45,1.45 -1.72,2.38 0,0 -4.61,-6.43 -5.99,-10.2 -0.28,-0.76 -0.53,-1.55 -0.56,-2.36 -0.03,-0.61 0.07,-1.33 0.42,-1.85 0.43,-0.63 9.74,-0.82 9.74,-0.82 -0.01,0.01 0.24,0.53 0.24,0.53 z"
       id="path128" /><radialGradient
       id="radialGradient1106"
       cx="56.411999"
       cy="100.2528"
       r="14.6835"
       gradientTransform="matrix(0.0746,-0.9972,-0.8311,-0.0622,133.5996,92.5238)"
       gradientUnits="userSpaceOnUse"><stop
         offset="0.7247"
         style="stop-color:#6D4C41;stop-opacity:0"
         id="stop1102" /><stop
         offset="1"
         style="stop-color:#6D4C41"
         id="stop1104" /></radialGradient><path
       style="fill:url(#SVGID_4_)"
       d="m 43.42,24.02 c -2.05,5 0.11,10.15 2.13,12.32 0.28,0.3 1.45,1.45 1.72,2.38 0,0 4.61,-6.43 5.99,-10.2 0.28,-0.76 0.53,-1.55 0.56,-2.36 0.03,-0.61 -0.07,-1.33 -0.42,-1.85 -0.43,-0.63 -0.93,-0.47 -1.66,-0.47 -1.39,0 -7.48,-0.36 -7.95,-0.36 0.01,0.02 -0.37,0.54 -0.37,0.54 z"
       id="path135" /><radialGradient
       id="radialGradient1113"
       cx="58.966801"
       cy="85.792297"
       r="11.3119"
       gradientTransform="matrix(-1,0,0,0.4912,115.9336,-0.9694)"
       gradientUnits="userSpaceOnUse"><stop
         offset="0.7275"
         style="stop-color:#6D4C41;stop-opacity:0"
         id="stop1109" /><stop
         offset="1"
         style="stop-color:#6D4C41"
         id="stop1111" /></radialGradient><path
       style="fill:url(#SVGID_5_)"
       d="M 64.02,47.76 V 43.2 l -13.8,-1.09 -1.26,1.54 c 0,0 2.97,4.11 10.74,4.11 z"
       id="path142" /><radialGradient
       id="radialGradient1120"
       cx="45.496201"
       cy="90.159599"
       r="3.3429"
       gradientTransform="matrix(0.9057,0.4238,0.3144,-0.6719,-23.7282,80.7854)"
       gradientUnits="userSpaceOnUse"><stop
         offset="0.6628"
         style="stop-color:#6D4C41"
         id="stop1116" /><stop
         offset="1"
         style="stop-color:#6D4C41;stop-opacity:0"
         id="stop1118" /></radialGradient><path
       style="fill:url(#SVGID_6_)"
       d="m 48.99,41.66 c 2.07,-3.14 -2.52,-4.31 -2.52,-4.31 0,0 0,0 0,0 0.8,0.99 1.16,1.86 0.69,2.71 -0.58,1.07 -2.33,1.22 -2.33,1.22 0,0 2.38,2.11 4.16,0.38 z"
       id="path149" /></g></g><path
   style="fill:url(#SVGID_1_)"
   d="m 98.908403,73.11291 c -13.2,-16.7 -38.9,-15.7 -38.9,-15.7 0,0 -25.7,-1 -38.9,15.7 -14.2999998,18.2 -19.8999998,45.7 -20.99999978,68.3 -0.1,1.4 0.7,2.8 1.99999998,3.3 2.7,1.2 7.7,3 13.6999998,2.2 1.2,-0.2 2.2,-1 2.6,-2.1 1.6,-4.4 6.8,-15.3 12.6,-24.4 0,0 -2.2,18.7 -8.4,35.1 -0.6,1.5 0.4,3.2 1.9,3.9 5,2.4 19.7,7.2 35.5,7.2 15.8,0 30.5,-4.8 35.5,-7.2 1.5,-0.7 2.5,-2.4 1.9,-3.9 -6.2,-16.5 -8.4,-35.1 -8.4,-35.1 5.8,9.1 10.999997,20.1 12.599997,24.5 0.4,1.1 1.4,2 2.6,2.1 6,0.7 11,-1 13.7,-2.2 1.3,-0.6 2.1,-1.9 2,-3.3 -1.1,-22.7 -6.7,-50.2 -20.999997,-68.4 z"
   id="path7" />
<linearGradient
   id="SVGID_2_"
   gradientUnits="userSpaceOnUse"
   x1="95.400002"
   y1="749.56879"
   x2="95.400002"
   y2="788.90369"
   gradientTransform="translate(-3.9915968,-661.67689)">
	<stop
   offset="0.2817"
   style="stop-color:#E0E0E0"
   id="stop9" />
	<stop
   offset="0.8361"
   style="stop-color:#9E9E9E"
   id="stop11" />
</linearGradient>
<path
   style="fill:url(#SVGID_2_)"
   d="m 88.908403,120.41291 -0.1,-22.6 c 0,-1.5 1.7,-2.3 2.8,-1.4 0.4,0.3 0.6,0.8 0.6,1.3 0,3.7 0.2,19.3 1.8,31.5 z"
   id="path14" />
<linearGradient
   id="SVGID_3_"
   gradientUnits="userSpaceOnUse"
   x1="32.499298"
   y1="749.56879"
   x2="32.499298"
   y2="788.90369"
   gradientTransform="translate(-3.9915968,-661.67689)">
	<stop
   offset="0.2817"
   style="stop-color:#E0E0E0"
   id="stop16" />
	<stop
   offset="0.8361"
   style="stop-color:#9E9E9E"
   id="stop18" />
</linearGradient>
<path
   style="fill:url(#SVGID_3_)"
   d="m 31.008403,120.41291 0.1,-22.6 c 0,-1.5 -1.7,-2.3 -2.8,-1.4 -0.4,0.3 -0.6,0.8 -0.6,1.3 0,3.7 -0.1,19.3 -1.8,31.5 -0.1,0.1 5.1,-8.8 5.1,-8.8 z"
   id="path21" />
<g
   style="opacity:0.2;fill:#168212;fill-opacity:1"
   id="g25"
   transform="translate(-3.9915968,52.21291)">
	<path
   style="fill:#168212;fill-opacity:1"
   d="m 64.7,8.2 c 4.1,0 24.8,0.7 35.8,14.6 6.8,8.6 18.5,28.7 20.4,66.6 0,0.2 -0.1,0.4 -0.3,0.5 -2.1,1 -5.5,2.1 -9.6,2.1 -0.8,0 -1.7,-0.1 -2.6,-0.2 -0.1,0 -0.1,-0.1 -0.2,-0.2 -1.6,-4.4 -6.8,-15.4 -12.8,-25 C 95,65.7 94,65.1 93,65.1 c -0.3,0 -0.7,0.1 -1,0.2 -1.3,0.5 -2.1,1.8 -2,3.2 0.1,0.8 2.3,19.2 8.5,35.7 -0.1,0.1 -0.2,0.2 -0.3,0.3 -5.7,2.7 -19.9,6.9 -34.2,6.9 -14.3,0 -28.6,-4.2 -34.2,-6.9 -0.1,-0.1 -0.2,-0.2 -0.3,-0.3 6.3,-16.6 8.4,-34.9 8.5,-35.7 0.2,-1.4 -0.7,-2.7 -2,-3.2 -0.3,-0.1 -0.7,-0.2 -1,-0.2 -1,0 -2,0.5 -2.5,1.4 -6.1,9.6 -11.2,20.6 -12.9,25 0,0.1 -0.1,0.2 -0.2,0.2 -0.8,0.1 -1.7,0.2 -2.5,0.2 -4.1,0 -7.4,-1.2 -9.6,-2.1 C 7.1,89.7 7,89.5 7,89.3 8.9,51.4 20.6,31.3 27.4,22.7 38.5,8.9 59.2,8.2 63.3,8.2 c 0.4,0 0.6,0 0.6,0 h 0.1 0.1 c 0,0 0.2,0 0.6,0 m 0,-3 c -0.5,0 -0.7,0 -0.7,0 0,0 -0.3,0 -0.7,0 C 59,5.2 37,6 25.2,20.9 10.8,39.1 5.2,66.6 4,89.2 c -0.1,1.4 0.7,2.8 2,3.3 2.2,1 6.1,2.4 10.8,2.4 0.9,0 1.9,-0.1 2.9,-0.2 1.2,-0.2 2.2,-1 2.6,-2.1 1.7,-4.4 6.9,-15.3 12.7,-24.4 0,0 -2.2,18.7 -8.4,35.1 -0.6,1.5 0.4,3.2 1.9,3.9 5,2.4 19.7,7.2 35.5,7.2 15.8,0 30.5,-4.8 35.5,-7.2 1.5,-0.7 2.5,-2.4 1.9,-3.9 C 95.2,86.8 93,68.2 93,68.2 c 5.8,9.1 11,20.1 12.6,24.5 0.4,1.1 1.4,2 2.6,2.1 1,0.1 2,0.2 2.9,0.2 4.7,0 8.6,-1.4 10.8,-2.4 1.3,-0.6 2.1,-1.9 2,-3.3 C 122.7,66.7 117.2,39.2 102.8,21 91,5.9 69.1,5.2 64.7,5.2 Z"
   id="path23" />
</g>
<polygon
   style="fill:#989898"
   points="75.9,21.8 64,37.5 51.4,22.3 50.1,8.3 78.2,8.3 "
   id="polygon27"
   transform="translate(-3.9915968,52.21291)" />

<g
   id="neck"
   transform="matrix(2.1068938,0,0,2.1068938,-74.833714,-36.940435)"><path
     id="neck_1_"
     style="fill:#99674f"
     d="m 64,44.7 h -4.78 v 5.06 c 0,2.29 1.94,4.14 4.34,4.14 h 0.87 c 2.4,0 4.34,-1.85 4.34,-4.14 V 44.7 Z" /></g><path
   style="fill:#c6c6c6"
   d="m 47.408403,56.21291 c 0,0 -4.2,0.9 -8,2.7 0,0 -1,20.8 16.1,36.9 l 7.6,-7.5 c -7.5,-6.9 -14.2,-17.1 -15.7,-32.1 z"
   id="path31" />
<path
   style="fill:#c6c6c6"
   d="m 72.608403,56.21291 c 0,0 4.2,0.9 7.9,2.7 0,0 4.8,43.1 -49.4,53 l -0.1,-10.3 c 0,0 37.6,-6.7 41.6,-45.4 z"
   id="path33" />
<path
   style="fill:url(#linearGradient1991);fill-opacity:1"
   d="m 65.4084,137.61291 -6.7,1.7 c -2.5,0.7 -5.1,-0.9 -5.8,-3.4 l -1.3,-5.3 c -0.7,-2.5 0.9,-5.1 3.4,-5.8 l 6.7,-1.7 c 2.5,-0.7 5.1,0.9 5.8,3.4 l 1.3,5.3 c 0.6,2.6 -0.9,5.2 -3.4,5.8 z"
   id="path39" /><path
   style="fill:url(#linearGradient1987);fill-opacity:1"
   d="m 55.7084,132.11291 c -0.5,-0.2 -1.2,-0.2 -1.6,0.2 -2.5,1.9 -3.5,4.2 -4.3,7.3 -0.8,3.4 -0.9,6.9 -1.4,10.3 -0.9,5.7 -3.1,11.2 -6.4,16 -0.5,0.7 -0.2,1.5 0.5,1.9 2.1,1.1 3.2,1.7 5.5,2.2 0.6,0.2 1.3,-0.1 1.6,-0.6 2.8,-4.2 5.3,-9.6 5.8,-14.5 1.2,-11.9 1.7,-14.5 4.5,-18.2 0.4,-0.5 0.6,-1.3 0.3,-1.9 -0.1,-0.4 -0.4,-0.6 -0.8,-0.9 -0.8,-0.8 -2.6,-1.3 -3.7,-1.8 z"
   id="path35" />
<path
   style="fill:url(#linearGradient1985);fill-opacity:1"
   d="m 56.7084,134.61291 c 0,0 5.2,4.8 5.6,11.7 0.3,6.1 0,6.9 0.2,13 0.2,5.6 1.1,11.4 4.1,16.3 0.4,0.6 1.2,0.8 1.9,0.5 1.8,-1 5.8,-3 7.4,-3.8 0.7,-0.3 0.9,-1.1 0.6,-1.7 -1.1,-2 -4.6,-6.7 -4.6,-23.2 0,-9.6 -6.8,-15 -6.8,-15 z"
   id="path37" />

<path
   style="fill:url(#linearGradient1989);fill-opacity:1"
   d="m 89.7084,119.71291 c -0.1,-0.8 -0.8,-1.3 -1.5,-0.9 -3.8,2 -15.2,7.2 -28.2,7.2 -13,0 -24.3,-5.2 -28.2,-7.2 -0.7,-0.3 -1.5,0.1 -1.5,0.9 l -0.5,7.2 c -0.1,1 0.4,2 1.2,2.5 12.7,7.7 29,7.7 29,7.7 0,0 16.4,0 29,-7.7 0.8,-0.5 1.3,-1.5 1.2,-2.5 0.1,0 -0.5,-7.2 -0.5,-7.2 z"
   id="path41" />
<g
   style="opacity:0.2"
   id="g45"
   transform="translate(-3.9915968,52.21291)">
	<path
   style="fill:#444444"
   d="m 51.5,6 c 1.4,0.2 6.4,0.7 12.9,0.7 4.3,0 8.4,-0.2 12.1,-0.7 0.9,0.2 3.5,0.9 6.1,2 0.1,3 0,11.6 -4.4,20.8 C 71.3,43.5 57.5,53.1 37.1,57.3 V 51 c 3.5,-0.9 11.8,-3.4 20.2,-9.4 0.5,-0.3 0.8,-0.8 0.8,-1.4 0,-0.6 -0.1,-1.1 -0.5,-1.5 C 46.8,26.3 45.6,12.1 45.4,8 48,6.9 50.6,6.2 51.5,6 m 12.3,4.6 c -3.7,0 -7.3,-0.3 -10.7,-0.9 -0.1,0 -0.2,0 -0.4,0 -0.5,0 -1.1,0.2 -1.5,0.6 -0.5,0.5 -0.7,1.2 -0.5,1.9 2.1,8.5 6,16 11.8,22.2 0.4,0.4 0.9,0.7 1.5,0.7 0.6,0 1.1,-0.2 1.5,-0.7 5.7,-6.2 9.7,-13.7 11.7,-22.2 0.2,-0.7 0,-1.4 -0.5,-1.8 -0.4,-0.4 -0.9,-0.6 -1.5,-0.6 -0.1,0 -0.2,0 -0.3,0 -1.9,0.2 -6,0.8 -11.1,0.8 M 51.4,4 c 0,0 -4.2,0.9 -8,2.7 0,0 -0.8,17.9 12.7,33.3 C 45.6,47.5 35,49.4 35,49.4 l 0.2,10.3 C 89.3,49.7 84.6,6.7 84.6,6.7 80.8,4.9 76.6,4 76.6,4 72.3,4.6 68.1,4.8 64.4,4.8 56.9,4.8 51.4,4 51.4,4 Z m 12.3,8.6 c 5.3,0 9.5,-0.6 11.6,-1 C 73.1,20.7 68.9,27.6 64,33 59.1,27.7 54.9,20.7 52.7,11.6 c 3.9,0.7 7.7,1 11,1 z"
   id="path43" />
</g>

<g
   style="opacity:0.2;fill:#2d2d2d;fill-opacity:1"
   id="g51"
   transform="translate(-3.9915968,52.381775)">
	<path
   style="fill:#2d2d2d;fill-opacity:1"
   d="m 36.2,69 c 3.9,1.9 11.7,5.2 21.1,6.3 0.1,0 0.2,0 0.2,0 0.4,0 0.8,-0.1 1.1,-0.3 0.3,-0.2 0.6,-0.3 0.8,-0.4 l 6.7,-1.7 c 0.2,-0.1 0.4,-0.1 0.7,-0.1 1,0 1.9,0.6 2.4,1.4 0.3,0.7 1,1 1.8,1 0.1,0 0.2,0 0.3,0 C 80.3,74 88,70.8 91.8,69 l 0.4,5.9 c 0,0.3 -0.1,0.5 -0.3,0.6 -6.7,4 -14.4,5.9 -19.8,6.7 -0.7,0.1 -1.2,0.5 -1.5,1.2 -0.3,0.7 -0.2,1.3 0.2,1.9 2,3 3.1,6.4 3.1,10 0,15.2 2.9,20.9 4.4,23.4 -1.9,0.9 -5.1,2.6 -6.3,3.2 -2.2,-3.8 -3.3,-8.6 -3.5,-14.8 -0.1,-2.7 -0.1,-4.3 -0.1,-5.9 0,-1.9 0,-3.8 -0.2,-7.2 -0.2,-2.7 -1,-5.5 -2.5,-8.1 -0.4,-0.6 -1,-1 -1.7,-1 -0.2,0 -0.3,0 -0.5,0.1 l -1.3,0.3 v 0 H 62 c -0.6,0.1 -1.2,0.5 -1.5,1.1 -1.6,3.2 -2.1,7.4 -3,16.1 -0.4,3.9 -2.4,8.9 -5.3,13.3 -1.7,-0.4 -2.6,-0.8 -4.1,-1.7 3.2,-4.9 5.4,-10.5 6.3,-16.2 0.2,-1.4 0.4,-2.8 0.5,-4.1 0.2,-2.1 0.4,-4.1 0.9,-6 0.3,-1.2 0.6,-2.2 1,-3 0.3,-0.6 0.2,-1.2 0,-1.8 C 56.5,82.4 56,82.1 55.3,82 50,81.2 42.5,79.4 36,75.5 35.8,75.4 35.7,75.2 35.7,74.9 L 36.2,69 m 56.4,-2.6 c -0.2,0 -0.3,0 -0.5,0.1 -3.1,1.6 -11.2,5.4 -21.2,6.7 -0.8,-1.5 -2.4,-2.5 -4.1,-2.5 -0.4,0 -0.8,0.1 -1.2,0.2 l -6.7,1.7 c -0.5,0.1 -1,0.4 -1.4,0.7 C 47.3,72 39,68.2 35.8,66.5 c -0.2,-0.1 -0.3,-0.1 -0.5,-0.1 -0.5,0 -1,0.4 -1,1 l -0.5,7.2 c -0.1,1 0.4,2 1.2,2.5 6.6,4 14.1,5.9 19.9,6.8 -0.5,1 -0.8,2.1 -1.1,3.3 -0.8,3.4 -0.9,6.9 -1.4,10.3 -0.9,5.7 -3.1,11.2 -6.4,16 -0.5,0.7 -0.2,1.5 0.5,1.9 2.1,1.1 3.2,1.7 5.5,2.2 0.1,0 0.2,0 0.3,0 0.5,0 1,-0.3 1.3,-0.7 2.8,-4.2 5.3,-9.6 5.8,-14.5 0.9,-8.9 1.4,-12.6 2.8,-15.4 0.1,0 0.3,0 0.4,-0.1 L 64,86.6 c 1.1,1.9 2.1,4.4 2.2,7.3 0.3,6.1 0,6.9 0.2,13 0.2,5.6 1.1,11.4 4.1,16.3 0.3,0.4 0.7,0.7 1.2,0.7 0.2,0 0.5,-0.1 0.7,-0.2 1.8,-1 5.8,-3 7.4,-3.8 0.7,-0.3 0.9,-1.1 0.6,-1.7 -1.1,-2 -4.6,-6.7 -4.6,-23.2 0,-4.8 -1.7,-8.5 -3.4,-11.1 5.8,-0.9 13.7,-2.8 20.5,-6.9 0.8,-0.5 1.3,-1.5 1.2,-2.5 l -0.5,-7.2 c 0,-0.4 -0.4,-0.9 -1,-0.9 z"
   id="path49" />
</g>
<g
   id="ears"
   transform="matrix(1.5450771,0,0,1.5450771,-38.84049,-10.647499)"><path
     id="ears_1_"
     style="fill:#99674f"
     d="M 77.14,25.93 H 73.6 54.4 50.86 c -2.83,0 -5.15,2.47 -5.15,5.49 0,3.02 2.32,5.49 5.15,5.49 h 3.54 19.2 3.54 c 2.83,0 5.15,-2.47 5.15,-5.49 0,-3.02 -2.32,-5.49 -5.15,-5.49 z" /></g><g
   id="head"
   transform="matrix(1.5450771,0,0,1.5450771,-38.84049,-10.647499)"><path
     id="head_1_"
     style="fill:#ba8d68"
     d="m 64,7.01 v 0 0 c -8.37,0 -16.12,8.95 -16.12,21.83 0,12.81 7.98,19.14 16.12,19.14 8.14,0 16.12,-6.33 16.12,-19.14 C 80.12,15.95 72.37,7.01 64,7.01 Z" /></g><g
   id="eyebrows"
   transform="matrix(1.5450771,0,0,1.5450771,-38.84049,-10.647499)"><path
     style="fill:#613e31"
     d="m 59.59,25.21 c -0.45,-0.6 -1.5,-1.47 -3.54,-1.47 -2.03,0 -3.08,0.87 -3.54,1.47 -0.2,0.27 -0.15,0.57 -0.01,0.76 0.13,0.17 0.51,0.33 0.93,0.19 0.42,-0.14 1.24,-0.57 2.62,-0.58 1.38,0.01 2.2,0.43 2.62,0.58 0.42,0.14 0.8,-0.02 0.93,-0.19 0.14,-0.19 0.19,-0.49 -0.01,-0.76 z"
     id="path159" /><path
     style="fill:#613e31"
     d="m 75.48,25.21 c -0.45,-0.6 -1.5,-1.47 -3.54,-1.47 -2.04,0 -3.08,0.87 -3.54,1.47 -0.2,0.27 -0.15,0.57 -0.01,0.76 0.13,0.17 0.51,0.33 0.93,0.19 0.42,-0.14 1.24,-0.57 2.62,-0.58 1.38,0.01 2.2,0.43 2.62,0.58 0.42,0.14 0.8,-0.02 0.93,-0.19 0.14,-0.19 0.19,-0.49 -0.01,-0.76 z"
     id="path161" /></g><path
   id="nose"
   style="fill:#99674f;stroke-width:1.54508"
   d="m 62.918286,42.518603 c -0.07725,-0.0309 -0.154507,-0.04635 -0.231761,-0.0618 h -5.253262 c -0.07725,0.01545 -0.154508,0.0309 -0.231762,0.0618 -0.478974,0.185409 -0.741637,0.679834 -0.509875,1.20516 0.231761,0.525326 1.266963,1.993149 3.383719,1.993149 2.101304,0 3.151957,-1.483274 3.383718,-1.993149 0.18541,-0.525326 -0.07725,-1.019751 -0.540777,-1.20516 z" /><path
   id="mouth"
   style="fill:#5d4037;stroke-width:1.54508"
   d="m 66.224751,48.513502 c -2.333066,1.390569 -9.996648,1.390569 -12.345165,0 -1.344218,-0.80344 -2.719336,0.417171 -2.163108,1.637782 0.540777,1.20516 4.727935,3.986299 8.343416,3.986299 3.61548,0 7.740836,-2.781139 8.297064,-3.986299 0.556227,-1.20516 -0.78799,-2.425771 -2.132207,-1.637782 z" /><g
   id="eyes"
   transform="matrix(1.5450771,0,0,1.5450771,-38.84049,-10.647499)"><path
     style="fill:#49362e"
     d="m 56.16,30.68 c -0.99,0 -1.88,-0.24 -2.49,-0.62 -0.26,-0.16 -0.42,-0.07 -0.37,0.24 0.18,1.19 1.39,2.12 2.86,2.12 1.47,0 2.68,-0.92 2.86,-2.12 0.05,-0.31 -0.11,-0.41 -0.37,-0.24 -0.62,0.38 -1.5,0.62 -2.49,0.62 z"
     id="path166" /><path
     style="fill:#49362e"
     d="m 71.84,30.68 c -0.99,0 -1.88,-0.24 -2.49,-0.62 -0.26,-0.16 -0.42,-0.07 -0.37,0.24 0.18,1.19 1.39,2.12 2.86,2.12 1.47,0 2.68,-0.92 2.86,-2.12 0.05,-0.31 -0.11,-0.41 -0.37,-0.24 -0.62,0.38 -1.5,0.62 -2.49,0.62 z"
     id="path168" /></g><g
   id="hairGroup_1_"
   transform="matrix(1.5450771,0,0,1.5450771,-38.84049,-10.647499)"><path
     id="hair_2_"
     style="fill:#4c342c;fill-opacity:1"
     d="M 83.44,13.62 C 82.26,11.84 79.62,9.44 77.25,9.29 76.87,7.01 74.43,5.08 72.07,4.33 65.68,2.3 61.52,4.57 59.28,5.79 58.81,6.04 55.82,7.71 53.72,6.51 52.41,5.76 52.43,3.74 52.43,3.74 c 0,0 -4.12,1.57 -2.71,5.94 -1.41,0.06 -3.27,0.65 -4.25,2.64 -1.17,2.36 -0.75,4.34 -0.42,5.29 -1.22,1.03 -2.75,3.23 -1.7,6.09 0.79,2.15 3.95,3.14 3.95,3.14 -0.22,3.87 0.5,6.25 0.88,7.21 0.07,0.17 0.31,0.15 0.35,-0.02 0.48,-1.92 2.11,-8.6 1.95,-9.76 0,0 5.48,-1.09 10.71,-4.93 1.06,-0.78 2.22,-1.45 3.44,-1.94 6.56,-2.61 7.94,1.84 7.94,1.84 0,0 4.55,-0.87 5.92,5.44 0.51,2.37 0.87,6.16 1.16,8.81 0.02,0.19 0.28,0.23 0.35,0.05 0.46,-1.05 1.38,-3.14 1.6,-5.27 0.08,-0.75 2.1,-1.74 2.96,-4.96 1.16,-4.28 -0.26,-8.4 -1.12,-9.69 z" /><g
     id="hairHighlights"><radialGradient
       id="radialGradient1144"
       cx="72.532402"
       cy="105.8447"
       r="17.211399"
       gradientTransform="matrix(0.3076,0.9515,0.706,-0.2282,-24.2466,-22.5749)"
       gradientUnits="userSpaceOnUse"><stop
         offset="0.6985"
         style="stop-color:#6D4C41;stop-opacity:0"
         id="stop1140" /><stop
         offset="1"
         style="stop-color:#6D4C41"
         id="stop1142" /></radialGradient><path
       style="fill:url(#SVGID_7_)"
       d="m 81.58,28.3 c 0.08,-0.75 2.1,-1.74 2.96,-4.96 0.09,-0.34 0.17,-0.69 0.24,-1.04 0.7,-3.91 -0.56,-7.5 -1.35,-8.68 C 82.34,11.97 80,9.81 77.78,9.36 77.59,9.33 77.4,9.31 77.22,9.3 c 0,0 0.16,1.04 -0.26,1.87 -0.54,1.07 -1.65,1.33 -1.65,1.33 5.8,5.78 5.39,10.62 6.27,15.8 z"
       id="path177" /><radialGradient
       id="radialGradient1151"
       cx="55.6581"
       cy="125.8242"
       r="4.5127001"
       gradientTransform="matrix(0.8813,0.4726,0.5603,-1.045,-63.5381,108.7041)"
       gradientUnits="userSpaceOnUse"><stop
         offset="0.58"
         style="stop-color:#6D4C41"
         id="stop1147" /><stop
         offset="1"
         style="stop-color:#6D4C41;stop-opacity:0"
         id="stop1149" /></radialGradient><path
       style="fill:url(#SVGID_8_)"
       d="m 60.68,5.06 c -0.53,0.26 -1,0.51 -1.4,0.73 -0.47,0.25 -3.46,1.92 -5.56,0.72 -1.29,-0.73 -1.29,-2.69 -1.29,-2.77 -0.59,0.76 -2.39,6.17 2.86,6.53 2.27,0.15 3.66,-1.82 4.49,-3.49 0.31,-0.6 0.78,-1.48 0.9,-1.72 z"
       id="path184" /><radialGradient
       id="radialGradient1158"
       cx="152.8123"
       cy="57.256001"
       r="13.8729"
       gradientTransform="matrix(-0.9378,-0.3944,-0.2182,0.5285,221.9003,41.7236)"
       gradientUnits="userSpaceOnUse"><stop
         offset="0.6985"
         style="stop-color:#6D4C41;stop-opacity:0"
         id="stop1154" /><stop
         offset="1"
         style="stop-color:#6D4C41"
         id="stop1156" /></radialGradient><path
       style="fill:url(#SVGID_9_)"
       d="m 71.41,4.13 c 3.54,0.96 5.26,2.76 5.83,5.16 0.17,0.7 0.37,7.28 -12.19,-0.19 C 60.38,6.32 61.65,4.58 62.2,4.38 64.35,3.61 67.45,3.06 71.41,4.13 Z"
       id="path191" /><radialGradient
       id="radialGradient1165"
       cx="54.200001"
       cy="122.1798"
       r="4.1422"
       gradientTransform="matrix(1,0,0,-1.2233,0,157.1004)"
       gradientUnits="userSpaceOnUse"><stop
         offset="0.7016"
         style="stop-color:#6D4C41;stop-opacity:0"
         id="stop1161" /><stop
         offset="1"
         style="stop-color:#6D4C41"
         id="stop1163" /></radialGradient><path
       style="fill:url(#SVGID_10_)"
       d="m 52.42,3.75 c -0.01,0 -0.02,0.01 -0.03,0.01 0,0 0,0 0,0 -0.45,0.19 -3.98,1.82 -2.66,5.92 l 3.76,0.61 C 50.16,6.92 52.44,3.74 52.44,3.74 c 0,0 -0.02,0.01 -0.02,0.01 z"
       id="path198" /><radialGradient
       id="radialGradient1172"
       cx="55.855598"
       cy="113.2966"
       r="7.7686"
       gradientTransform="matrix(-0.9657,-0.2598,-0.2432,0.9037,135.1216,-72.9243)"
       gradientUnits="userSpaceOnUse"><stop
         offset="0.6605"
         style="stop-color:#6D4C41;stop-opacity:0"
         id="stop1168" /><stop
         offset="1"
         style="stop-color:#6D4C41"
         id="stop1170" /></radialGradient><path
       style="fill:url(#SVGID_11_)"
       d="M 52.05,10.06 49.73,9.69 c -0.09,0 -0.4,0.03 -0.57,0.05 -1.31,0.18 -2.85,0.86 -3.68,2.59 -0.9,1.86 -0.87,3.47 -0.63,4.53 0.07,0.36 0.22,0.76 0.22,0.76 0,0 1.15,-1.09 3.89,-1.16 z"
       id="path205" /><radialGradient
       id="radialGradient1179"
       cx="51.660198"
       cy="107.1577"
       r="8.1561003"
       gradientTransform="matrix(0.9907,0.1363,0.1915,-1.3921,-19.9108,164.5829)"
       gradientUnits="userSpaceOnUse"><stop
         offset="0.5981"
         style="stop-color:#6D4C41;stop-opacity:0"
         id="stop1175" /><stop
         offset="1"
         style="stop-color:#6D4C41"
         id="stop1177" /></radialGradient><path
       style="fill:url(#SVGID_12_)"
       d="m 44.95,17.71 c -1.15,1.02 -2.69,3.28 -1.55,6.09 0.86,2.12 3.91,3.04 3.91,3.04 0,0.01 0.61,0.19 0.92,0.19 l 0.72,-10.58 c -1.46,0 -2.87,0.44 -3.78,1.07 0.01,0.02 -0.23,0.17 -0.22,0.19 z"
       id="path212" /></g></g></svg>
