<?xml version="1.0" encoding="UTF-8" standalone="no"?>
<!-- Generator: Adobe Illustrator 24.0.3, SVG Export Plug-In . SVG Version: 6.00 Build 0)  -->

<svg
   version="1.1"
   id="Layer_1"
   x="0px"
   y="0px"
   viewBox="0 0 119.91681 176.28177"
   xml:space="preserve"
   sodipodi:docname="greenbelt.svg"
   inkscape:version="1.1.1 (3bf5ae0d25, 2021-09-20, custom)"
   width="119.91681"
   height="176.28177"
   xmlns:inkscape="http://www.inkscape.org/namespaces/inkscape"
   xmlns:sodipodi="http://sodipodi.sourceforge.net/DTD/sodipodi-0.dtd"
   xmlns:xlink="http://www.w3.org/1999/xlink"
   xmlns="http://www.w3.org/2000/svg"
   xmlns:svg="http://www.w3.org/2000/svg"><defs
   id="defs56"><linearGradient
     inkscape:collect="always"
     id="linearGradient3016"><stop
       style="stop-color:#01760f;stop-opacity:1"
       offset="0"
       id="stop3012" /><stop
       style="stop-color:#00b030;stop-opacity:1"
       offset="1"
       id="stop3014" /></linearGradient><linearGradient
     inkscape:collect="always"
     id="linearGradient2110"><stop
       style="stop-color:#01760f;stop-opacity:1"
       offset="0"
       id="stop2106" /><stop
       style="stop-color:#00b030;stop-opacity:1"
       offset="1"
       id="stop2108" /></linearGradient><linearGradient
     inkscape:collect="always"
     id="linearGradient2104"><stop
       style="stop-color:#01760f;stop-opacity:1"
       offset="0"
       id="stop2100" /><stop
       style="stop-color:#00b030;stop-opacity:1"
       offset="1"
       id="stop2102" /></linearGradient><linearGradient
     inkscape:collect="always"
     id="linearGradient1983"><stop
       style="stop-color:#01760f;stop-opacity:1"
       offset="0"
       id="stop1979" /><stop
       style="stop-color:#00b030;stop-opacity:1"
       offset="1"
       id="stop1981" /></linearGradient><linearGradient
     inkscape:collect="always"
     xlink:href="#linearGradient1983"
     id="linearGradient1985"
     x1="60.700001"
     y1="102.11891"
     x2="80.635002"
     y2="102.11891"
     gradientUnits="userSpaceOnUse"
     gradientTransform="translate(-3.991597,52.21291)" /><linearGradient
     inkscape:collect="always"
     xlink:href="#linearGradient3016"
     id="linearGradient1987"
     x1="45.751713"
     y1="98.815636"
     x2="64.344444"
     y2="98.815636"
     gradientUnits="userSpaceOnUse"
     gradientTransform="translate(-3.991597,52.21291)" /><linearGradient
     inkscape:collect="always"
     xlink:href="#linearGradient2110"
     id="linearGradient1989"
     x1="33.787319"
     y1="75.679611"
     x2="94.212677"
     y2="75.679611"
     gradientUnits="userSpaceOnUse"
     gradientTransform="translate(-3.991597,52.21291)" /><linearGradient
     inkscape:collect="always"
     xlink:href="#linearGradient2104"
     id="linearGradient1991"
     x1="55.434906"
     y1="79"
     x2="72.931976"
     y2="79"
     gradientUnits="userSpaceOnUse"
     gradientTransform="translate(-3.991597,52.21291)" /><linearGradient
     id="hand_3_"
     gradientUnits="userSpaceOnUse"
     x1="113.3392"
     y1="22.747101"
     x2="103.0556"
     y2="29.823"
     gradientTransform="matrix(1,0,0,-1,0,130)"><stop
       offset="0"
       style="stop-color:#8D5738"
       id="stop69" /><stop
       offset="0.5"
       style="stop-color:#A56C43"
       id="stop71" /></linearGradient><linearGradient
     id="tone_12_"
     gradientUnits="userSpaceOnUse"
     x1="106.9453"
     y1="24.495399"
     x2="105.3179"
     y2="27.113501"
     gradientTransform="matrix(1,0,0,-1,0,130)"><stop
       offset="0"
       style="stop-color:#8D5738"
       id="stop78" /><stop
       offset="1"
       style="stop-color:#A56C43;stop-opacity:0"
       id="stop80" /></linearGradient><linearGradient
     id="arm_3_"
     gradientUnits="userSpaceOnUse"
     x1="435.4021"
     y1="66.414001"
     x2="435.4021"
     y2="21.552"
     gradientTransform="rotate(180,262.8788,65)"><stop
       offset="0"
       style="stop-color:#8D5738"
       id="stop2-3" /><stop
       offset="0.5"
       style="stop-color:#A56C43"
       id="stop4-6" /></linearGradient><linearGradient
     id="arm_4_"
     gradientUnits="userSpaceOnUse"
     x1="37.188499"
     y1="66.414001"
     x2="37.188499"
     y2="21.552"
     gradientTransform="matrix(1,0,0,-1,0,130)"><stop
       offset="0"
       style="stop-color:#8D5738"
       id="stop9-7" /><stop
       offset="0.5"
       style="stop-color:#A56C43"
       id="stop11-5" /></linearGradient><linearGradient
     id="shadow_4_"
     gradientUnits="userSpaceOnUse"
     x1="26.4937"
     y1="22.3799"
     x2="31.461"
     y2="16.134199"
     gradientTransform="matrix(1,-0.0091,-0.0091,-1,0.1613,130.1915)"><stop
       offset="0"
       style="stop-color:#8D5738"
       id="stop29" /><stop
       offset="0.5"
       style="stop-color:#A56C43;stop-opacity:0"
       id="stop31" /></linearGradient><linearGradient
     id="hand_4_"
     gradientUnits="userSpaceOnUse"
     x1="13.9837"
     y1="24.346901"
     x2="28.701599"
     y2="30.101999"
     gradientTransform="matrix(1,0,0,-1,0,130)"><stop
       offset="0"
       style="stop-color:#8D5738"
       id="stop88" /><stop
       offset="0.5"
       style="stop-color:#A56C43"
       id="stop90" /></linearGradient><linearGradient
     id="tone_15_"
     gradientUnits="userSpaceOnUse"
     x1="20.8951"
     y1="25.176201"
     x2="23.123899"
     y2="27.935801"
     gradientTransform="matrix(1,0,0,-1,0,130)"><stop
       offset="0"
       style="stop-color:#8D5738"
       id="stop97" /><stop
       offset="1"
       style="stop-color:#A56C43;stop-opacity:0"
       id="stop99" /></linearGradient><radialGradient
     id="SVGID_1_-3"
     cx="107.1771"
     cy="85.792297"
     r="11.3119"
     gradientTransform="matrix(1,0,0,0.4912,-36.1332,-0.9694)"
     gradientUnits="userSpaceOnUse"><stop
       offset="0.7275"
       style="stop-color:#6D4C41;stop-opacity:0"
       id="stop109" /><stop
       offset="1"
       style="stop-color:#6D4C41"
       id="stop111" /></radialGradient><radialGradient
     id="SVGID_2_-5"
     cx="97.518097"
     cy="91.3022"
     r="3.3429"
     gradientTransform="matrix(-0.9057,0.4238,-0.3144,-0.6719,199.2167,59.5054)"
     gradientUnits="userSpaceOnUse"><stop
       offset="0.6628"
       style="stop-color:#6D4C41"
       id="stop116" /><stop
       offset="1"
       style="stop-color:#6D4C41;stop-opacity:0"
       id="stop118" /></radialGradient><radialGradient
     id="SVGID_3_-6"
     cx="106.7716"
     cy="97.859802"
     r="14.6835"
     gradientTransform="matrix(-0.0746,-0.9972,0.8311,-0.0622,0.1579,142.5941)"
     gradientUnits="userSpaceOnUse"><stop
       offset="0.7247"
       style="stop-color:#6D4C41;stop-opacity:0"
       id="stop123" /><stop
       offset="1"
       style="stop-color:#6D4C41"
       id="stop125" /></radialGradient><radialGradient
     id="SVGID_4_"
     cx="56.411999"
     cy="100.2528"
     r="14.6835"
     gradientTransform="matrix(0.0746,-0.9972,-0.8311,-0.0622,133.5996,92.5238)"
     gradientUnits="userSpaceOnUse"><stop
       offset="0.7247"
       style="stop-color:#6D4C41;stop-opacity:0"
       id="stop130" /><stop
       offset="1"
       style="stop-color:#6D4C41"
       id="stop132" /></radialGradient><radialGradient
     id="SVGID_5_"
     cx="58.966801"
     cy="85.792297"
     r="11.3119"
     gradientTransform="matrix(-1,0,0,0.4912,115.9336,-0.9694)"
     gradientUnits="userSpaceOnUse"><stop
       offset="0.7275"
       style="stop-color:#6D4C41;stop-opacity:0"
       id="stop137" /><stop
       offset="1"
       style="stop-color:#6D4C41"
       id="stop139" /></radialGradient><radialGradient
     id="SVGID_6_"
     cx="45.496201"
     cy="90.159599"
     r="3.3429"
     gradientTransform="matrix(0.9057,0.4238,0.3144,-0.6719,-23.7282,80.7854)"
     gradientUnits="userSpaceOnUse"><stop
       offset="0.6628"
       style="stop-color:#6D4C41"
       id="stop144" /><stop
       offset="1"
       style="stop-color:#6D4C41;stop-opacity:0"
       id="stop146" /></radialGradient><radialGradient
     id="SVGID_7_"
     cx="72.532402"
     cy="105.8447"
     r="17.211399"
     gradientTransform="matrix(0.3076,0.9515,0.706,-0.2282,-24.2466,-22.5749)"
     gradientUnits="userSpaceOnUse"><stop
       offset="0.6985"
       style="stop-color:#6D4C41;stop-opacity:0"
       id="stop172" /><stop
       offset="1"
       style="stop-color:#6D4C41"
       id="stop174" /></radialGradient><radialGradient
     id="SVGID_8_"
     cx="55.6581"
     cy="125.8242"
     r="4.5127001"
     gradientTransform="matrix(0.8813,0.4726,0.5603,-1.045,-63.5381,108.7041)"
     gradientUnits="userSpaceOnUse"><stop
       offset="0.58"
       style="stop-color:#6D4C41"
       id="stop179" /><stop
       offset="1"
       style="stop-color:#6D4C41;stop-opacity:0"
       id="stop181" /></radialGradient><radialGradient
     id="SVGID_9_"
     cx="152.8123"
     cy="57.256001"
     r="13.8729"
     gradientTransform="matrix(-0.9378,-0.3944,-0.2182,0.5285,221.9003,41.7236)"
     gradientUnits="userSpaceOnUse"><stop
       offset="0.6985"
       style="stop-color:#6D4C41;stop-opacity:0"
       id="stop186" /><stop
       offset="1"
       style="stop-color:#6D4C41"
       id="stop188" /></radialGradient><radialGradient
     id="SVGID_10_"
     cx="54.200001"
     cy="122.1798"
     r="4.1422"
     gradientTransform="matrix(1,0,0,-1.2233,0,157.1004)"
     gradientUnits="userSpaceOnUse"><stop
       offset="0.7016"
       style="stop-color:#6D4C41;stop-opacity:0"
       id="stop193" /><stop
       offset="1"
       style="stop-color:#6D4C41"
       id="stop195" /></radialGradient><radialGradient
     id="SVGID_11_"
     cx="55.855598"
     cy="113.2966"
     r="7.7686"
     gradientTransform="matrix(-0.9657,-0.2598,-0.2432,0.9037,135.1216,-72.9243)"
     gradientUnits="userSpaceOnUse"><stop
       offset="0.6605"
       style="stop-color:#6D4C41;stop-opacity:0"
       id="stop200" /><stop
       offset="1"
       style="stop-color:#6D4C41"
       id="stop202" /></radialGradient><radialGradient
     id="SVGID_12_"
     cx="51.660198"
     cy="107.1577"
     r="8.1561003"
     gradientTransform="matrix(0.9907,0.1363,0.1915,-1.3921,-19.9108,164.5829)"
     gradientUnits="userSpaceOnUse"><stop
       offset="0.5981"
       style="stop-color:#6D4C41;stop-opacity:0"
       id="stop207" /><stop
       offset="1"
       style="stop-color:#6D4C41"
       id="stop209" /></radialGradient><radialGradient
     id="hairHighlights_3_"
     cx="64.333298"
     cy="65.537003"
     r="49.787998"
     gradientTransform="matrix(1,0,0,-1.2135,0,141.9952)"
     gradientUnits="userSpaceOnUse"><stop
       offset="0.7945"
       style="stop-color:#6D4C41;stop-opacity:0"
       id="stop170" /><stop
       offset="1"
       style="stop-color:#6D4C41"
       id="stop172-6" /></radialGradient><radialGradient
     id="hairHighlights_2_"
     cx="64.000198"
     cy="69.561501"
     r="47.531502"
     gradientTransform="matrix(1,0,0,-1.1901,0,141.2215)"
     gradientUnits="userSpaceOnUse"><stop
       offset="0.7936"
       style="stop-color:#6D4C41;stop-opacity:0"
       id="stop20" /><stop
       offset="1"
       style="stop-color:#6D4C41"
       id="stop22" /></radialGradient></defs><sodipodi:namedview
   id="namedview54"
   pagecolor="#ffffff"
   bordercolor="#eeeeee"
   borderopacity="1"
   inkscape:pageshadow="0"
   inkscape:pageopacity="0"
   inkscape:pagecheckerboard="0"
   showgrid="false"
   inkscape:zoom="2.093699"
   inkscape:cx="-202.03477"
   inkscape:cy="99.345703"
   inkscape:window-width="2560"
   inkscape:window-height="1000"
   inkscape:window-x="1920"
   inkscape:window-y="0"
   inkscape:window-maximized="1"
   inkscape:current-layer="Layer_1"
   inkscape:snap-global="false" />
<linearGradient
   id="SVGID_1_"
   gradientUnits="userSpaceOnUse"
   x1="64"
   y1="719.97748"
   x2="64"
   y2="806.52582"
   gradientTransform="translate(-3.9915968,-661.67689)">
	<stop
   offset="0.284"
   style="stop-color:#F5F5F5"
   id="stop2" />
	<stop
   offset="0.8416"
   style="stop-color:#E0E0E0"
   id="stop4" />
</linearGradient>
<g
   id="hairGroup_1_-3"
   transform="matrix(0.78871353,0,0,0.78871353,9.6994999,-16.864549)"><path
     id="hair_10_"
     style="fill:#543930"
     d="m 64.57,2.87 c -41.01,0 -40.68,37.92 -40.68,38.52 0,24.56 1.88,59.25 11.71,72.9 3.9,5.41 11.43,5.71 11.43,5.71 L 64,119.98 80.97,120 c 0,0 7.54,-0.3 11.43,-5.71 9.83,-13.65 11.71,-48.34 11.71,-72.9 -0.01,-0.6 1.47,-38.52 -39.54,-38.52 z" /><radialGradient
     id="radialGradient201"
     cx="64.000198"
     cy="69.561501"
     r="47.531502"
     gradientTransform="matrix(1,0,0,-1.1901,0,141.2215)"
     gradientUnits="userSpaceOnUse"><stop
       offset="0.7936"
       style="stop-color:#6D4C41;stop-opacity:0"
       id="stop197" /><stop
       offset="1"
       style="stop-color:#6D4C41"
       id="stop199" /></radialGradient><path
     id="hairHighlights_1_-6"
     style="fill:url(#hairHighlights_2_)"
     d="m 64.57,2.87 c -41.01,0 -40.68,37.92 -40.68,38.52 0,24.56 1.88,59.25 11.71,72.9 3.9,5.41 11.43,5.71 11.43,5.71 L 64,119.98 80.97,120 c 0,0 7.54,-0.3 11.43,-5.71 9.83,-13.65 11.71,-48.34 11.71,-72.9 -0.01,-0.6 1.47,-38.52 -39.54,-38.52 z" /></g><path
   style="fill:url(#SVGID_1_)"
   d="m 98.908403,73.11291 c -13.2,-16.7 -38.9,-15.7 -38.9,-15.7 0,0 -25.7,-1 -38.9,15.7 -14.2999998,18.2 -19.8999998,45.7 -20.99999978,68.3 -0.1,1.4 0.7,2.8 1.99999998,3.3 2.7,1.2 7.7,3 13.6999998,2.2 1.2,-0.2 2.2,-1 2.6,-2.1 1.6,-4.4 6.8,-15.3 12.6,-24.4 0,0 -2.2,18.7 -8.4,35.1 -0.6,1.5 0.4,3.2 1.9,3.9 5,2.4 19.7,7.2 35.5,7.2 15.8,0 30.5,-4.8 35.5,-7.2 1.5,-0.7 2.5,-2.4 1.9,-3.9 -6.2,-16.5 -8.4,-35.1 -8.4,-35.1 5.8,9.1 10.999997,20.1 12.599997,24.5 0.4,1.1 1.4,2 2.6,2.1 6,0.7 11,-1 13.7,-2.2 1.3,-0.6 2.1,-1.9 2,-3.3 -1.1,-22.7 -6.7,-50.2 -20.999997,-68.4 z"
   id="path7" />
<linearGradient
   id="SVGID_2_"
   gradientUnits="userSpaceOnUse"
   x1="95.400002"
   y1="749.56879"
   x2="95.400002"
   y2="788.90369"
   gradientTransform="translate(-3.9915968,-661.67689)">
	<stop
   offset="0.2817"
   style="stop-color:#E0E0E0"
   id="stop9" />
	<stop
   offset="0.8361"
   style="stop-color:#9E9E9E"
   id="stop11" />
</linearGradient>
<path
   style="fill:url(#SVGID_2_)"
   d="m 88.908403,120.41291 -0.1,-22.6 c 0,-1.5 1.7,-2.3 2.8,-1.4 0.4,0.3 0.6,0.8 0.6,1.3 0,3.7 0.2,19.3 1.8,31.5 z"
   id="path14" />
<linearGradient
   id="SVGID_3_"
   gradientUnits="userSpaceOnUse"
   x1="32.499298"
   y1="749.56879"
   x2="32.499298"
   y2="788.90369"
   gradientTransform="translate(-3.9915968,-661.67689)">
	<stop
   offset="0.2817"
   style="stop-color:#E0E0E0"
   id="stop16" />
	<stop
   offset="0.8361"
   style="stop-color:#9E9E9E"
   id="stop18" />
</linearGradient>
<path
   style="fill:url(#SVGID_3_)"
   d="m 31.008403,120.41291 0.1,-22.6 c 0,-1.5 -1.7,-2.3 -2.8,-1.4 -0.4,0.3 -0.6,0.8 -0.6,1.3 0,3.7 -0.1,19.3 -1.8,31.5 -0.1,0.1 5.1,-8.8 5.1,-8.8 z"
   id="path21" />

<polygon
   style="fill:#989898"
   points="75.9,21.8 64,37.5 51.4,22.3 50.1,8.3 78.2,8.3 "
   id="polygon27"
   transform="translate(-3.9915968,52.21291)" />

<path
   style="fill:#c6c6c6"
   d="m 47.408403,56.21291 c 0,0 -4.2,0.9 -8,2.7 0,0 -1,20.8 16.1,36.9 l 7.6,-7.5 c -7.5,-6.9 -14.2,-17.1 -15.7,-32.1 z"
   id="path31" />
<path
   style="fill:#c6c6c6"
   d="m 72.608403,56.21291 c 0,0 4.2,0.9 7.9,2.7 0,0 4.8,43.1 -49.4,53 l -0.1,-10.3 c 0,0 37.6,-6.7 41.6,-45.4 z"
   id="path33" />
<path
   style="fill:url(#linearGradient1991);fill-opacity:1"
   d="m 65.4084,137.61291 -6.7,1.7 c -2.5,0.7 -5.1,-0.9 -5.8,-3.4 l -1.3,-5.3 c -0.7,-2.5 0.9,-5.1 3.4,-5.8 l 6.7,-1.7 c 2.5,-0.7 5.1,0.9 5.8,3.4 l 1.3,5.3 c 0.6,2.6 -0.9,5.2 -3.4,5.8 z"
   id="path39" /><path
   style="fill:url(#linearGradient1987);fill-opacity:1"
   d="m 55.7084,132.11291 c -0.5,-0.2 -1.2,-0.2 -1.6,0.2 -2.5,1.9 -3.5,4.2 -4.3,7.3 -0.8,3.4 -0.9,6.9 -1.4,10.3 -0.9,5.7 -3.1,11.2 -6.4,16 -0.5,0.7 -0.2,1.5 0.5,1.9 2.1,1.1 3.2,1.7 5.5,2.2 0.6,0.2 1.3,-0.1 1.6,-0.6 2.8,-4.2 5.3,-9.6 5.8,-14.5 1.2,-11.9 1.7,-14.5 4.5,-18.2 0.4,-0.5 0.6,-1.3 0.3,-1.9 -0.1,-0.4 -0.4,-0.6 -0.8,-0.9 -0.8,-0.8 -2.6,-1.3 -3.7,-1.8 z"
   id="path35" />
<path
   style="fill:url(#linearGradient1985);fill-opacity:1"
   d="m 56.7084,134.61291 c 0,0 5.2,4.8 5.6,11.7 0.3,6.1 0,6.9 0.2,13 0.2,5.6 1.1,11.4 4.1,16.3 0.4,0.6 1.2,0.8 1.9,0.5 1.8,-1 5.8,-3 7.4,-3.8 0.7,-0.3 0.9,-1.1 0.6,-1.7 -1.1,-2 -4.6,-6.7 -4.6,-23.2 0,-9.6 -6.8,-15 -6.8,-15 z"
   id="path37" />

<path
   style="fill:url(#linearGradient1989);fill-opacity:1"
   d="m 89.7084,119.71291 c -0.1,-0.8 -0.8,-1.3 -1.5,-0.9 -3.8,2 -15.2,7.2 -28.2,7.2 -13,0 -24.3,-5.2 -28.2,-7.2 -0.7,-0.3 -1.5,0.1 -1.5,0.9 l -0.5,7.2 c -0.1,1 0.4,2 1.2,2.5 12.7,7.7 29,7.7 29,7.7 0,0 16.4,0 29,-7.7 0.8,-0.5 1.3,-1.5 1.2,-2.5 0.1,0 -0.5,-7.2 -0.5,-7.2 z"
   id="path41" />
<g
   style="opacity:0.2"
   id="g45"
   transform="translate(-3.9915968,52.21291)">
	<path
   style="fill:#444444"
   d="m 51.5,6 c 1.4,0.2 6.4,0.7 12.9,0.7 4.3,0 8.4,-0.2 12.1,-0.7 0.9,0.2 3.5,0.9 6.1,2 0.1,3 0,11.6 -4.4,20.8 C 71.3,43.5 57.5,53.1 37.1,57.3 V 51 c 3.5,-0.9 11.8,-3.4 20.2,-9.4 0.5,-0.3 0.8,-0.8 0.8,-1.4 0,-0.6 -0.1,-1.1 -0.5,-1.5 C 46.8,26.3 45.6,12.1 45.4,8 48,6.9 50.6,6.2 51.5,6 m 12.3,4.6 c -3.7,0 -7.3,-0.3 -10.7,-0.9 -0.1,0 -0.2,0 -0.4,0 -0.5,0 -1.1,0.2 -1.5,0.6 -0.5,0.5 -0.7,1.2 -0.5,1.9 2.1,8.5 6,16 11.8,22.2 0.4,0.4 0.9,0.7 1.5,0.7 0.6,0 1.1,-0.2 1.5,-0.7 5.7,-6.2 9.7,-13.7 11.7,-22.2 0.2,-0.7 0,-1.4 -0.5,-1.8 -0.4,-0.4 -0.9,-0.6 -1.5,-0.6 -0.1,0 -0.2,0 -0.3,0 -1.9,0.2 -6,0.8 -11.1,0.8 M 51.4,4 c 0,0 -4.2,0.9 -8,2.7 0,0 -0.8,17.9 12.7,33.3 C 45.6,47.5 35,49.4 35,49.4 l 0.2,10.3 C 89.3,49.7 84.6,6.7 84.6,6.7 80.8,4.9 76.6,4 76.6,4 72.3,4.6 68.1,4.8 64.4,4.8 56.9,4.8 51.4,4 51.4,4 Z m 12.3,8.6 c 5.3,0 9.5,-0.6 11.6,-1 C 73.1,20.7 68.9,27.6 64,33 59.1,27.7 54.9,20.7 52.7,11.6 c 3.9,0.7 7.7,1 11,1 z"
   id="path43" />
</g><g
   style="opacity:0.2;fill:#168212;fill-opacity:1"
   id="g25"
   transform="translate(-3.9915968,52.21291)">
	<path
   style="fill:#168212;fill-opacity:1"
   d="m 64.7,8.2 c 4.1,0 24.8,0.7 35.8,14.6 6.8,8.6 18.5,28.7 20.4,66.6 0,0.2 -0.1,0.4 -0.3,0.5 -2.1,1 -5.5,2.1 -9.6,2.1 -0.8,0 -1.7,-0.1 -2.6,-0.2 -0.1,0 -0.1,-0.1 -0.2,-0.2 -1.6,-4.4 -6.8,-15.4 -12.8,-25 C 95,65.7 94,65.1 93,65.1 c -0.3,0 -0.7,0.1 -1,0.2 -1.3,0.5 -2.1,1.8 -2,3.2 0.1,0.8 2.3,19.2 8.5,35.7 -0.1,0.1 -0.2,0.2 -0.3,0.3 -5.7,2.7 -19.9,6.9 -34.2,6.9 -14.3,0 -28.6,-4.2 -34.2,-6.9 -0.1,-0.1 -0.2,-0.2 -0.3,-0.3 6.3,-16.6 8.4,-34.9 8.5,-35.7 0.2,-1.4 -0.7,-2.7 -2,-3.2 -0.3,-0.1 -0.7,-0.2 -1,-0.2 -1,0 -2,0.5 -2.5,1.4 -6.1,9.6 -11.2,20.6 -12.9,25 0,0.1 -0.1,0.2 -0.2,0.2 -0.8,0.1 -1.7,0.2 -2.5,0.2 -4.1,0 -7.4,-1.2 -9.6,-2.1 C 7.1,89.7 7,89.5 7,89.3 8.9,51.4 20.6,31.3 27.4,22.7 38.5,8.9 59.2,8.2 63.3,8.2 c 0.4,0 0.6,0 0.6,0 h 0.1 0.1 c 0,0 0.2,0 0.6,0 m 0,-3 c -0.5,0 -0.7,0 -0.7,0 0,0 -0.3,0 -0.7,0 C 59,5.2 37,6 25.2,20.9 10.8,39.1 5.2,66.6 4,89.2 c -0.1,1.4 0.7,2.8 2,3.3 2.2,1 6.1,2.4 10.8,2.4 0.9,0 1.9,-0.1 2.9,-0.2 1.2,-0.2 2.2,-1 2.6,-2.1 1.7,-4.4 6.9,-15.3 12.7,-24.4 0,0 -2.2,18.7 -8.4,35.1 -0.6,1.5 0.4,3.2 1.9,3.9 5,2.4 19.7,7.2 35.5,7.2 15.8,0 30.5,-4.8 35.5,-7.2 1.5,-0.7 2.5,-2.4 1.9,-3.9 C 95.2,86.8 93,68.2 93,68.2 c 5.8,9.1 11,20.1 12.6,24.5 0.4,1.1 1.4,2 2.6,2.1 1,0.1 2,0.2 2.9,0.2 4.7,0 8.6,-1.4 10.8,-2.4 1.3,-0.6 2.1,-1.9 2,-3.3 C 122.7,66.7 117.2,39.2 102.8,21 91,5.9 69.1,5.2 64.7,5.2 Z"
   id="path23" />
</g><g
   id="neck"
   transform="matrix(2.1068938,0,0,2.1068938,-74.699871,-37.869195)"><path
     id="neck_1_"
     style="fill:#99674f"
     d="m 64,44.7 h -4.78 v 5.06 c 0,2.29 1.94,4.14 4.34,4.14 h 0.87 c 2.4,0 4.34,-1.85 4.34,-4.14 V 44.7 Z" /></g><g
   id="head-7"
   transform="matrix(0.78871353,0,0,0.78871353,9.3991778,-16.6235)"><path
     style="fill:#ba8d68"
     d="m 64.31,16.04 v 0 0 c -17.2,0 -33.13,12.79 -33.13,39.91 0,21.78 13.49,34.67 25.23,38.83 2.8,0.99 5.5,1.49 7.9,1.49 2.38,0 5.07,-0.49 7.85,-1.47 C 83.92,90.66 97.44,77.77 97.44,55.96 97.44,28.83 81.51,16.04 64.31,16.04 Z"
     id="path152" /></g><path
   id="nose-5"
   style="fill:#99674f;stroke-width:0.788714"
   d="m 63.323518,37.056343 c -0.0868,-0.03155 -0.16563,-0.05521 -0.25239,-0.0631 h -5.51311 c -0.0868,0.0079 -0.16563,0.03155 -0.25238,0.0631 -0.49689,0.205065 -0.77294,0.717729 -0.53633,1.269829 0.23661,0.552099 1.33293,2.097978 3.54132,2.097978 2.2084,0 3.30471,-1.545879 3.54922,-2.097978 0.23661,-0.5521 -0.0394,-1.072651 -0.53633,-1.269829 z" /><g
   id="eyebrows-5"
   transform="matrix(0.78871353,0,0,0.78871353,9.3991778,-16.6235)"><path
     style="fill:#613e31"
     d="m 55.54,49.82 c -0.93,-1.23 -3.07,-3.01 -7.23,-3.01 -4.16,0 -6.31,1.79 -7.23,3.01 -0.41,0.54 -0.31,1.17 -0.02,1.55 0.26,0.35 1.04,0.68 1.9,0.39 0.86,-0.29 2.54,-1.16 5.35,-1.18 2.81,0.02 4.49,0.89 5.35,1.18 0.86,0.29 1.64,-0.03 1.9,-0.39 0.29,-0.38 0.39,-1.01 -0.02,-1.55 z"
     id="path161-6" /><path
     style="fill:#613e31"
     d="m 88.04,49.82 c -0.93,-1.23 -3.07,-3.01 -7.23,-3.01 -4.16,0 -6.31,1.79 -7.23,3.01 -0.41,0.54 -0.31,1.17 -0.02,1.55 0.26,0.35 1.04,0.68 1.9,0.39 0.86,-0.29 2.54,-1.16 5.35,-1.18 2.81,0.02 4.49,0.89 5.35,1.18 0.86,0.29 1.64,-0.03 1.9,-0.39 0.28,-0.38 0.38,-1.01 -0.02,-1.55 z"
     id="path163" /></g><path
   id="mouth-2"
   style="fill:#5d4037;stroke-width:0.788714"
   d="m 66.675548,43.429148 c -2.48445,1.474894 -10.62397,1.474894 -13.10053,0 -1.42757,-0.843923 -2.8788,0.449567 -2.28727,1.743057 0.58365,1.269829 5.02411,4.227505 8.85726,4.227505 3.83314,0 8.21839,-2.957676 8.80204,-4.227505 0.59153,-1.29349 -0.84393,-2.594867 -2.2715,-1.743057 z" /><path
   id="glasses"
   style="fill:#212121;stroke:#212121;stroke-width:0.433714;stroke-miterlimit:10"
   d="m 83.483038,25.123107 c -0.0552,-0.938569 -0.0947,-1.033214 -1.33293,-1.427571 -0.97012,-0.307599 -6.27027,-0.741391 -10.26116,-0.520551 -0.28394,0.01577 -0.55999,0.03155 -0.82026,0.05521 -3.6202,0.307598 -7.96601,1.766718 -11.23128,1.845589 -1.38814,0.03155 -7.10631,-1.467007 -11.15241,-1.782492 -0.26028,-0.01577 -0.52055,-0.03944 -0.78872,-0.04732 -3.99877,-0.205065 -9.32259,0.260276 -10.29271,0.575761 -1.23828,0.402244 -1.27771,0.496889 -1.32504,1.435459 -0.0552,0.930682 0.10254,1.735169 0.83604,1.97967 1.00167,0.33126 1.00955,1.577428 1.67996,5.158187 0.60731,3.265274 2.06643,5.844367 8.3367,6.293934 0.26816,0.01577 0.52055,0.03155 0.77294,0.03155 5.54466,0.07887 7.45334,-3.572872 8.08432,-4.787491 1.17518,-2.25572 0.80448,-5.363252 3.91201,-5.371139 3.09965,-0.0079 2.80782,3.044434 3.99878,5.292268 0.63886,1.206732 2.50022,4.87425 7.99756,4.795378 0.26816,0 0.54421,-0.01577 0.82815,-0.03943 6.26238,-0.489003 7.71361,-3.075983 8.29726,-6.341257 0.64675,-3.588647 0.65463,-4.842701 1.64841,-5.173961 0.71773,-0.236614 0.86759,-1.033215 0.81238,-1.971784 z m -31.99022,12.019994 c -0.96223,0.449567 -2.24784,0.678294 -3.60442,0.678294 -2.83148,-0.0079 -5.97056,-1.001666 -7.10631,-3.004998 -1.60898,-2.855143 -2.027,-8.628526 0.0237,-9.835258 0.89913,-0.528438 3.93568,-0.891246 7.07476,-0.757165 3.25739,0.141968 6.62519,0.820262 7.83981,2.413463 2.01911,2.626416 -1.18307,9.070206 -4.2275,10.505664 z m 27.5261,-2.445012 c -1.12786,2.019107 -4.2906,3.036548 -7.13786,3.044435 -1.34081,0.0079 -2.61064,-0.212953 -3.5571,-0.654633 -3.05232,-1.419684 -6.28604,-7.839812 -4.29849,-10.482002 1.20674,-1.608976 4.59032,-2.303044 7.85559,-2.460787 3.13119,-0.149855 6.15985,0.197179 7.0511,0.71773 2.06643,1.198844 1.67996,6.972227 0.0868,9.835257 z" /><g
   id="hairGroup-9"
   transform="matrix(0.78871353,0,0,0.78871353,9.3991778,-16.6235)"><path
     id="hair_5_"
     style="fill:#543930"
     d="m 64.57,2.87 c -41.01,0 -40.68,37.92 -40.68,38.52 0,7.76 0.19,16.53 0.75,25.32 l 6.72,-0.02 C 31.3,63.77 33.35,45.72 39.44,44.35 61.8,39.32 74.45,27.46 74.45,27.46 c 3.29,7.18 13.58,14.19 17.27,16.86 3.03,2.19 4.58,18.55 4.52,22.38 h 7.09 c 0,-0.05 0.02,-0.1 0.02,-0.16 0.56,-8.75 0.74,-17.46 0.74,-25.17 0.01,-0.58 1.49,-38.5 -39.52,-38.5 z" /><radialGradient
     id="radialGradient222"
     cx="64.333298"
     cy="65.537003"
     r="49.787998"
     gradientTransform="matrix(1,0,0,-1.2135,0,141.9952)"
     gradientUnits="userSpaceOnUse"><stop
       offset="0.7945"
       style="stop-color:#6D4C41;stop-opacity:0"
       id="stop218" /><stop
       offset="1"
       style="stop-color:#6D4C41"
       id="stop220" /></radialGradient><path
     id="hairHighlights-1"
     style="fill:url(#hairHighlights_3_)"
     d="m 64.57,2.87 c -41.01,0 -40.68,37.92 -40.68,38.52 0,7.76 0.19,16.53 0.75,25.32 l 6.72,-0.02 C 31.3,63.77 33.35,45.72 39.44,44.35 61.8,39.32 74.45,27.46 74.45,27.46 c 3.29,7.18 13.58,14.19 17.27,16.86 3.03,2.19 4.58,18.55 4.52,22.38 h 7.09 c 0,-0.05 0.02,-0.1 0.02,-0.16 0.56,-8.75 0.74,-17.46 0.74,-25.17 0.01,-0.58 1.49,-38.5 -39.52,-38.5 z" /></g>

<g
   style="opacity:0.2;fill:#2d2d2d;fill-opacity:1"
   id="g51"
   transform="translate(-3.9915968,52.381775)">
	<path
   style="fill:#2d2d2d;fill-opacity:1"
   d="m 36.2,69 c 3.9,1.9 11.7,5.2 21.1,6.3 0.1,0 0.2,0 0.2,0 0.4,0 0.8,-0.1 1.1,-0.3 0.3,-0.2 0.6,-0.3 0.8,-0.4 l 6.7,-1.7 c 0.2,-0.1 0.4,-0.1 0.7,-0.1 1,0 1.9,0.6 2.4,1.4 0.3,0.7 1,1 1.8,1 0.1,0 0.2,0 0.3,0 C 80.3,74 88,70.8 91.8,69 l 0.4,5.9 c 0,0.3 -0.1,0.5 -0.3,0.6 -6.7,4 -14.4,5.9 -19.8,6.7 -0.7,0.1 -1.2,0.5 -1.5,1.2 -0.3,0.7 -0.2,1.3 0.2,1.9 2,3 3.1,6.4 3.1,10 0,15.2 2.9,20.9 4.4,23.4 -1.9,0.9 -5.1,2.6 -6.3,3.2 -2.2,-3.8 -3.3,-8.6 -3.5,-14.8 -0.1,-2.7 -0.1,-4.3 -0.1,-5.9 0,-1.9 0,-3.8 -0.2,-7.2 -0.2,-2.7 -1,-5.5 -2.5,-8.1 -0.4,-0.6 -1,-1 -1.7,-1 -0.2,0 -0.3,0 -0.5,0.1 l -1.3,0.3 v 0 H 62 c -0.6,0.1 -1.2,0.5 -1.5,1.1 -1.6,3.2 -2.1,7.4 -3,16.1 -0.4,3.9 -2.4,8.9 -5.3,13.3 -1.7,-0.4 -2.6,-0.8 -4.1,-1.7 3.2,-4.9 5.4,-10.5 6.3,-16.2 0.2,-1.4 0.4,-2.8 0.5,-4.1 0.2,-2.1 0.4,-4.1 0.9,-6 0.3,-1.2 0.6,-2.2 1,-3 0.3,-0.6 0.2,-1.2 0,-1.8 C 56.5,82.4 56,82.1 55.3,82 50,81.2 42.5,79.4 36,75.5 35.8,75.4 35.7,75.2 35.7,74.9 L 36.2,69 m 56.4,-2.6 c -0.2,0 -0.3,0 -0.5,0.1 -3.1,1.6 -11.2,5.4 -21.2,6.7 -0.8,-1.5 -2.4,-2.5 -4.1,-2.5 -0.4,0 -0.8,0.1 -1.2,0.2 l -6.7,1.7 c -0.5,0.1 -1,0.4 -1.4,0.7 C 47.3,72 39,68.2 35.8,66.5 c -0.2,-0.1 -0.3,-0.1 -0.5,-0.1 -0.5,0 -1,0.4 -1,1 l -0.5,7.2 c -0.1,1 0.4,2 1.2,2.5 6.6,4 14.1,5.9 19.9,6.8 -0.5,1 -0.8,2.1 -1.1,3.3 -0.8,3.4 -0.9,6.9 -1.4,10.3 -0.9,5.7 -3.1,11.2 -6.4,16 -0.5,0.7 -0.2,1.5 0.5,1.9 2.1,1.1 3.2,1.7 5.5,2.2 0.1,0 0.2,0 0.3,0 0.5,0 1,-0.3 1.3,-0.7 2.8,-4.2 5.3,-9.6 5.8,-14.5 0.9,-8.9 1.4,-12.6 2.8,-15.4 0.1,0 0.3,0 0.4,-0.1 L 64,86.6 c 1.1,1.9 2.1,4.4 2.2,7.3 0.3,6.1 0,6.9 0.2,13 0.2,5.6 1.1,11.4 4.1,16.3 0.3,0.4 0.7,0.7 1.2,0.7 0.2,0 0.5,-0.1 0.7,-0.2 1.8,-1 5.8,-3 7.4,-3.8 0.7,-0.3 0.9,-1.1 0.6,-1.7 -1.1,-2 -4.6,-6.7 -4.6,-23.2 0,-4.8 -1.7,-8.5 -3.4,-11.1 5.8,-0.9 13.7,-2.8 20.5,-6.9 0.8,-0.5 1.3,-1.5 1.2,-2.5 l -0.5,-7.2 c 0,-0.4 -0.4,-0.9 -1,-0.9 z"
   id="path49" />
</g>
<g
   id="eyes"
   transform="matrix(1.5450771,0,0,1.5450771,-38.468397,-16.640809)"><path
     style="fill:#49362e"
     d="m 56.16,30.68 c -0.99,0 -1.88,-0.24 -2.49,-0.62 -0.26,-0.16 -0.42,-0.07 -0.37,0.24 0.18,1.19 1.39,2.12 2.86,2.12 1.47,0 2.68,-0.92 2.86,-2.12 0.05,-0.31 -0.11,-0.41 -0.37,-0.24 -0.62,0.38 -1.5,0.62 -2.49,0.62 z"
     id="path166" /><path
     style="fill:#49362e"
     d="m 71.84,30.68 c -0.99,0 -1.88,-0.24 -2.49,-0.62 -0.26,-0.16 -0.42,-0.07 -0.37,0.24 0.18,1.19 1.39,2.12 2.86,2.12 1.47,0 2.68,-0.92 2.86,-2.12 0.05,-0.31 -0.11,-0.41 -0.37,-0.24 -0.62,0.38 -1.5,0.62 -2.49,0.62 z"
     id="path168" /></g></svg>
