<?xml version="1.0" encoding="UTF-8" standalone="no"?>
<!-- Generator: Adobe Illustrator 24.0.3, SVG Export Plug-In . SVG Version: 6.00 Build 0)  -->

<svg
   version="1.1"
   id="Layer_1"
   x="0px"
   y="0px"
   viewBox="0 0 128 128"
   style="enable-background:new 0 0 128 128;"
   xml:space="preserve"
   sodipodi:docname="whitebelt.svg"
   inkscape:version="1.1.1 (3bf5ae0d25, 2021-09-20, custom)"
   xmlns:inkscape="http://www.inkscape.org/namespaces/inkscape"
   xmlns:sodipodi="http://sodipodi.sourceforge.net/DTD/sodipodi-0.dtd"
   xmlns:xlink="http://www.w3.org/1999/xlink"
   xmlns="http://www.w3.org/2000/svg"
   xmlns:svg="http://www.w3.org/2000/svg"><defs
   id="defs56"><linearGradient
     inkscape:collect="always"
     id="linearGradient3016"><stop
       style="stop-color:#c1c1c1;stop-opacity:1;"
       offset="0"
       id="stop3012" /><stop
       style="stop-color:#dddddd;stop-opacity:1"
       offset="1"
       id="stop3014" /></linearGradient><linearGradient
     inkscape:collect="always"
     id="linearGradient2110"><stop
       style="stop-color:#c1c1c1;stop-opacity:1;"
       offset="0"
       id="stop2106" /><stop
       style="stop-color:#ffffff;stop-opacity:1"
       offset="1"
       id="stop2108" /></linearGradient><linearGradient
     inkscape:collect="always"
     id="linearGradient2104"><stop
       style="stop-color:#c1c1c1;stop-opacity:1;"
       offset="0"
       id="stop2100" /><stop
       style="stop-color:#ffffff;stop-opacity:1"
       offset="1"
       id="stop2102" /></linearGradient><linearGradient
     inkscape:collect="always"
     id="linearGradient1983"><stop
       style="stop-color:#c1c1c1;stop-opacity:1;"
       offset="0"
       id="stop1979" /><stop
       style="stop-color:#ffffff;stop-opacity:1"
       offset="1"
       id="stop1981" /></linearGradient><linearGradient
     inkscape:collect="always"
     xlink:href="#linearGradient1983"
     id="linearGradient1985"
     x1="60.7"
     y1="102.11891"
     x2="80.635"
     y2="102.11891"
     gradientUnits="userSpaceOnUse" /><linearGradient
     inkscape:collect="always"
     xlink:href="#linearGradient3016"
     id="linearGradient1987"
     x1="45.751713"
     y1="98.815636"
     x2="64.344444"
     y2="98.815636"
     gradientUnits="userSpaceOnUse" /><linearGradient
     inkscape:collect="always"
     xlink:href="#linearGradient2110"
     id="linearGradient1989"
     x1="33.787321"
     y1="75.67961"
     x2="94.212679"
     y2="75.67961"
     gradientUnits="userSpaceOnUse" /><linearGradient
     inkscape:collect="always"
     xlink:href="#linearGradient2104"
     id="linearGradient1991"
     x1="55.434906"
     y1="79"
     x2="72.931973"
     y2="79"
     gradientUnits="userSpaceOnUse" /></defs><sodipodi:namedview
   id="namedview54"
   pagecolor="#ffffff"
   bordercolor="#eeeeee"
   borderopacity="1"
   inkscape:pageshadow="0"
   inkscape:pageopacity="0"
   inkscape:pagecheckerboard="0"
   showgrid="false"
   inkscape:zoom="2.093699"
   inkscape:cx="-71.165913"
   inkscape:cy="-17.672072"
   inkscape:window-width="2560"
   inkscape:window-height="1000"
   inkscape:window-x="1920"
   inkscape:window-y="0"
   inkscape:window-maximized="1"
   inkscape:current-layer="Layer_1"
   inkscape:snap-global="false" />
<linearGradient
   id="SVGID_1_"
   gradientUnits="userSpaceOnUse"
   x1="64"
   y1="719.9775"
   x2="64"
   y2="806.5258"
   gradientTransform="matrix(1 0 0 1 0 -713.8898)">
	<stop
   offset="0.284"
   style="stop-color:#F5F5F5"
   id="stop2" />
	<stop
   offset="0.8416"
   style="stop-color:#E0E0E0"
   id="stop4" />
</linearGradient>
<path
   style="fill:url(#SVGID_1_);"
   d="M102.9,20.9C89.7,4.2,64,5.2,64,5.2s-25.7-1-38.9,15.7C10.8,39.1,5.2,66.6,4.1,89.2  c-0.1,1.4,0.7,2.8,2,3.3c2.7,1.2,7.7,3,13.7,2.2c1.2-0.2,2.2-1,2.6-2.1C24,88.2,29.2,77.3,35,68.2c0,0-2.2,18.7-8.4,35.1  c-0.6,1.5,0.4,3.2,1.9,3.9c5,2.4,19.7,7.2,35.5,7.2s30.5-4.8,35.5-7.2c1.5-0.7,2.5-2.4,1.9-3.9C95.2,86.8,93,68.2,93,68.2  c5.8,9.1,11,20.1,12.6,24.5c0.4,1.1,1.4,2,2.6,2.1c6,0.7,11-1,13.7-2.2c1.3-0.6,2.1-1.9,2-3.3C122.8,66.6,117.2,39.1,102.9,20.9z"
   id="path7" />
<linearGradient
   id="SVGID_2_"
   gradientUnits="userSpaceOnUse"
   x1="95.4"
   y1="749.5688"
   x2="95.4"
   y2="788.9037"
   gradientTransform="matrix(1 0 0 1 0 -713.8898)">
	<stop
   offset="0.2817"
   style="stop-color:#E0E0E0"
   id="stop9" />
	<stop
   offset="0.8361"
   style="stop-color:#9E9E9E"
   id="stop11" />
</linearGradient>
<path
   style="fill:url(#SVGID_2_);"
   d="M92.9,68.2l-0.1-22.6c0-1.5,1.7-2.3,2.8-1.4c0.4,0.3,0.6,0.8,0.6,1.3c0,3.7,0.2,19.3,1.8,31.5  L92.9,68.2z"
   id="path14" />
<linearGradient
   id="SVGID_3_"
   gradientUnits="userSpaceOnUse"
   x1="32.4993"
   y1="749.5688"
   x2="32.4993"
   y2="788.9037"
   gradientTransform="matrix(1 0 0 1 0 -713.8898)">
	<stop
   offset="0.2817"
   style="stop-color:#E0E0E0"
   id="stop16" />
	<stop
   offset="0.8361"
   style="stop-color:#9E9E9E"
   id="stop18" />
</linearGradient>
<path
   style="fill:url(#SVGID_3_);"
   d="M35,68.2l0.1-22.6c0-1.5-1.7-2.3-2.8-1.4c-0.4,0.3-0.6,0.8-0.6,1.3c0,3.7-0.1,19.3-1.8,31.5  C29.8,77.1,35,68.2,35,68.2z"
   id="path21" />
<g
   style="opacity:0.2;"
   id="g25">
	<path
   style="fill:#444444;"
   d="M64.7,8.2c4.1,0,24.8,0.7,35.8,14.6c6.8,8.6,18.5,28.7,20.4,66.6c0,0.2-0.1,0.4-0.3,0.5   c-2.1,1-5.5,2.1-9.6,2.1c-0.8,0-1.7-0.1-2.6-0.2c-0.1,0-0.1-0.1-0.2-0.2c-1.6-4.4-6.8-15.4-12.8-25C95,65.7,94,65.1,93,65.1   c-0.3,0-0.7,0.1-1,0.2c-1.3,0.5-2.1,1.8-2,3.2c0.1,0.8,2.3,19.2,8.5,35.7c-0.1,0.1-0.2,0.2-0.3,0.3c-5.7,2.7-19.9,6.9-34.2,6.9   s-28.6-4.2-34.2-6.9c-0.1-0.1-0.2-0.2-0.3-0.3c6.3-16.6,8.4-34.9,8.5-35.7c0.2-1.4-0.7-2.7-2-3.2c-0.3-0.1-0.7-0.2-1-0.2   c-1,0-2,0.5-2.5,1.4c-6.1,9.6-11.2,20.6-12.9,25c0,0.1-0.1,0.2-0.2,0.2c-0.8,0.1-1.7,0.2-2.5,0.2c-4.1,0-7.4-1.2-9.6-2.1   C7.1,89.7,7,89.5,7,89.3c1.9-37.9,13.6-58,20.4-66.6C38.5,8.9,59.2,8.2,63.3,8.2c0.4,0,0.6,0,0.6,0H64h0.1   C64.1,8.2,64.3,8.2,64.7,8.2 M64.7,5.2c-0.5,0-0.7,0-0.7,0s-0.3,0-0.7,0C59,5.2,37,6,25.2,20.9C10.8,39.1,5.2,66.6,4,89.2   c-0.1,1.4,0.7,2.8,2,3.3c2.2,1,6.1,2.4,10.8,2.4c0.9,0,1.9-0.1,2.9-0.2c1.2-0.2,2.2-1,2.6-2.1C24,88.2,29.2,77.3,35,68.2   c0,0-2.2,18.7-8.4,35.1c-0.6,1.5,0.4,3.2,1.9,3.9c5,2.4,19.7,7.2,35.5,7.2s30.5-4.8,35.5-7.2c1.5-0.7,2.5-2.4,1.9-3.9   C95.2,86.8,93,68.2,93,68.2c5.8,9.1,11,20.1,12.6,24.5c0.4,1.1,1.4,2,2.6,2.1c1,0.1,2,0.2,2.9,0.2c4.7,0,8.6-1.4,10.8-2.4   c1.3-0.6,2.1-1.9,2-3.3c-1.2-22.6-6.7-50.1-21.1-68.3C91,5.9,69.1,5.2,64.7,5.2z"
   id="path23" />
</g>
<polygon
   style="fill:#989898;"
   points="50.1,8.3 78.2,8.3 75.9,21.8 64,37.5 51.4,22.3 "
   id="polygon27" />
<path
   style="fill:#b2b2b2;stroke-width:1.00205"
   d="m 51.374732,-1.961509 c 0,0 12.52567,1.703491 25.25175,0 v 7.415196 c 0,0 -12.225053,2.705545 -25.25175,0 0,0 0,-7.415196 0,-7.415196 z"
   id="path29" />
<g
   id="neck_1_"
   transform="matrix(1.7306119,0,0,1.7306119,-46.770856,-70.623592)"
   style="fill:#885935;fill-opacity:1"><path
     id="neck"
     style="fill:#885935;fill-opacity:1"
     d="m 64,44.72 h -4.77 v 5.05 c 0,2.28 1.94,4.14 4.34,4.14 h 0.87 c 2.39,0 4.34,-1.85 4.34,-4.14 v -5.05 z" /></g><path
   style="fill:#C6C6C6;"
   d="M51.4,4c0,0-4.2,0.9-8,2.7c0,0-1,20.8,16.1,36.9l7.6-7.5C59.6,29.2,52.9,19,51.4,4z"
   id="path31" />
<path
   style="fill:#C6C6C6;"
   d="M76.6,4c0,0,4.2,0.9,7.9,2.7c0,0,4.8,43.1-49.4,53L35,49.4C35,49.4,72.6,42.7,76.6,4z"
   id="path33" />
<path
   style="fill:url(#linearGradient1991);fill-opacity:1"
   d="M69.4,85.4l-6.7,1.7c-2.5,0.7-5.1-0.9-5.8-3.4l-1.3-5.3c-0.7-2.5,0.9-5.1,3.4-5.8l6.7-1.7  c2.5-0.7,5.1,0.9,5.8,3.4l1.3,5.3C73.4,82.2,71.9,84.8,69.4,85.4z"
   id="path39" /><path
   style="fill:url(#linearGradient1987);fill-opacity:1.0"
   d="M59.7,79.9c-0.5-0.2-1.2-0.2-1.6,0.2c-2.5,1.9-3.5,4.2-4.3,7.3c-0.8,3.4-0.9,6.9-1.4,10.3  c-0.9,5.7-3.1,11.2-6.4,16c-0.5,0.7-0.2,1.5,0.5,1.9c2.1,1.1,3.2,1.7,5.5,2.2c0.6,0.2,1.3-0.1,1.6-0.6c2.8-4.2,5.3-9.6,5.8-14.5  c1.2-11.9,1.7-14.5,4.5-18.2c0.4-0.5,0.6-1.3,0.3-1.9c-0.1-0.4-0.4-0.6-0.8-0.9C62.6,80.9,60.8,80.4,59.7,79.9z"
   id="path35" />
<path
   style="fill:url(#linearGradient1985);fill-opacity:1"
   d="M60.7,82.4c0,0,5.2,4.8,5.6,11.7c0.3,6.1,0,6.9,0.2,13c0.2,5.6,1.1,11.4,4.1,16.3  c0.4,0.6,1.2,0.8,1.9,0.5c1.8-1,5.8-3,7.4-3.8c0.7-0.3,0.9-1.1,0.6-1.7c-1.1-2-4.6-6.7-4.6-23.2c0-9.6-6.8-15-6.8-15L60.7,82.4z"
   id="path37" />

<path
   style="fill:url(#linearGradient1989);fill-opacity:1"
   d="m 93.7,67.5 c -0.1,-0.8 -0.8,-1.3 -1.5,-0.9 -3.8,2 -15.2,7.2 -28.2,7.2 -13,0 -24.3,-5.2 -28.2,-7.2 -0.7,-0.3 -1.5,0.1 -1.5,0.9 l -0.5,7.2 c -0.1,1 0.4,2 1.2,2.5 12.7,7.7 29,7.7 29,7.7 0,0 16.4,0 29,-7.7 0.8,-0.5 1.3,-1.5 1.2,-2.5 0.1,0 -0.5,-7.2 -0.5,-7.2 z"
   id="path41" />
<g
   style="opacity:0.2;"
   id="g45">
	<path
   style="fill:#444444;"
   d="M51.5,6c1.4,0.2,6.4,0.7,12.9,0.7c4.3,0,8.4-0.2,12.1-0.7c0.9,0.2,3.5,0.9,6.1,2   c0.1,3,0,11.6-4.4,20.8c-6.9,14.7-20.7,24.3-41.1,28.5V51c3.5-0.9,11.8-3.4,20.2-9.4c0.5-0.3,0.8-0.8,0.8-1.4s-0.1-1.1-0.5-1.5   C46.8,26.3,45.6,12.1,45.4,8C48,6.9,50.6,6.2,51.5,6 M63.8,10.6c-3.7,0-7.3-0.3-10.7-0.9c-0.1,0-0.2,0-0.4,0   c-0.5,0-1.1,0.2-1.5,0.6c-0.5,0.5-0.7,1.2-0.5,1.9c2.1,8.5,6,16,11.8,22.2c0.4,0.4,0.9,0.7,1.5,0.7c0.6,0,1.1-0.2,1.5-0.7   c5.7-6.2,9.7-13.7,11.7-22.2c0.2-0.7,0-1.4-0.5-1.8c-0.4-0.4-0.9-0.6-1.5-0.6c-0.1,0-0.2,0-0.3,0C73,10,68.9,10.6,63.8,10.6    M51.4,4c0,0-4.2,0.9-8,2.7c0,0-0.8,17.9,12.7,33.3C45.6,47.5,35,49.4,35,49.4l0.2,10.3c54.1-10,49.4-53,49.4-53   c-3.8-1.8-8-2.7-8-2.7c-4.3,0.6-8.5,0.8-12.2,0.8C56.9,4.8,51.4,4,51.4,4z M63.7,12.6c5.3,0,9.5-0.6,11.6-1   c-2.2,9.1-6.4,16-11.3,21.4c-4.9-5.3-9.1-12.3-11.3-21.4C56.6,12.3,60.4,12.6,63.7,12.6z"
   id="path43" />
</g>

<g
   style="opacity:0.2;fill:#2d2d2d;fill-opacity:1"
   id="g51"
   transform="translate(0,0.16886544)">
	<path
   style="fill:#2d2d2d;fill-opacity:1"
   d="m 36.2,69 c 3.9,1.9 11.7,5.2 21.1,6.3 0.1,0 0.2,0 0.2,0 0.4,0 0.8,-0.1 1.1,-0.3 0.3,-0.2 0.6,-0.3 0.8,-0.4 l 6.7,-1.7 c 0.2,-0.1 0.4,-0.1 0.7,-0.1 1,0 1.9,0.6 2.4,1.4 0.3,0.7 1,1 1.8,1 0.1,0 0.2,0 0.3,0 C 80.3,74 88,70.8 91.8,69 l 0.4,5.9 c 0,0.3 -0.1,0.5 -0.3,0.6 -6.7,4 -14.4,5.9 -19.8,6.7 -0.7,0.1 -1.2,0.5 -1.5,1.2 -0.3,0.7 -0.2,1.3 0.2,1.9 2,3 3.1,6.4 3.1,10 0,15.2 2.9,20.9 4.4,23.4 -1.9,0.9 -5.1,2.6 -6.3,3.2 -2.2,-3.8 -3.3,-8.6 -3.5,-14.8 -0.1,-2.7 -0.1,-4.3 -0.1,-5.9 0,-1.9 0,-3.8 -0.2,-7.2 -0.2,-2.7 -1,-5.5 -2.5,-8.1 -0.4,-0.6 -1,-1 -1.7,-1 -0.2,0 -0.3,0 -0.5,0.1 l -1.3,0.3 v 0 H 62 c -0.6,0.1 -1.2,0.5 -1.5,1.1 -1.6,3.2 -2.1,7.4 -3,16.1 -0.4,3.9 -2.4,8.9 -5.3,13.3 -1.7,-0.4 -2.6,-0.8 -4.1,-1.7 3.2,-4.9 5.4,-10.5 6.3,-16.2 0.2,-1.4 0.4,-2.8 0.5,-4.1 0.2,-2.1 0.4,-4.1 0.9,-6 0.3,-1.2 0.6,-2.2 1,-3 0.3,-0.6 0.2,-1.2 0,-1.8 C 56.5,82.4 56,82.1 55.3,82 50,81.2 42.5,79.4 36,75.5 35.8,75.4 35.7,75.2 35.7,74.9 L 36.2,69 m 56.4,-2.6 c -0.2,0 -0.3,0 -0.5,0.1 -3.1,1.6 -11.2,5.4 -21.2,6.7 -0.8,-1.5 -2.4,-2.5 -4.1,-2.5 -0.4,0 -0.8,0.1 -1.2,0.2 l -6.7,1.7 c -0.5,0.1 -1,0.4 -1.4,0.7 C 47.3,72 39,68.2 35.8,66.5 c -0.2,-0.1 -0.3,-0.1 -0.5,-0.1 -0.5,0 -1,0.4 -1,1 l -0.5,7.2 c -0.1,1 0.4,2 1.2,2.5 6.6,4 14.1,5.9 19.9,6.8 -0.5,1 -0.8,2.1 -1.1,3.3 -0.8,3.4 -0.9,6.9 -1.4,10.3 -0.9,5.7 -3.1,11.2 -6.4,16 -0.5,0.7 -0.2,1.5 0.5,1.9 2.1,1.1 3.2,1.7 5.5,2.2 0.1,0 0.2,0 0.3,0 0.5,0 1,-0.3 1.3,-0.7 2.8,-4.2 5.3,-9.6 5.8,-14.5 0.9,-8.9 1.4,-12.6 2.8,-15.4 0.1,0 0.3,0 0.4,-0.1 L 64,86.6 c 1.1,1.9 2.1,4.4 2.2,7.3 0.3,6.1 0,6.9 0.2,13 0.2,5.6 1.1,11.4 4.1,16.3 0.3,0.4 0.7,0.7 1.2,0.7 0.2,0 0.5,-0.1 0.7,-0.2 1.8,-1 5.8,-3 7.4,-3.8 0.7,-0.3 0.9,-1.1 0.6,-1.7 -1.1,-2 -4.6,-6.7 -4.6,-23.2 0,-4.8 -1.7,-8.5 -3.4,-11.1 5.8,-0.9 13.7,-2.8 20.5,-6.9 0.8,-0.5 1.3,-1.5 1.2,-2.5 l -0.5,-7.2 c 0,-0.4 -0.4,-0.9 -1,-0.9 z"
   id="path49" />
</g>
<g
   id="g3501"
   transform="matrix(0.54504941,0,0,0.54504941,28.800477,-55.539436)"><g
     id="hairGroup_2_"><path
       id="hair_4_"
       d="m 28,15 c -11.23,4.24 -16,1 -16,1 0,11 5,11 5,11 0,0 -13,10.89 -13,29 0,21 10.49,28.22 10.49,28.22 0.54,0.56 1.41,1.83 1.41,1.83 0,0 0.3,1.53 0.29,2.31 C 16.12,93.84 16,100 22,106 c 6,6 13.19,6.22 16,7 6.18,1.72 40.04,1.06 47.15,0.59 8.85,-0.59 16.28,-3.57 22.14,-9.43 7.44,-7.44 4.29,-17.48 4.69,-18.57 0.4,-1.1 13.12,-15.62 12.03,-33.58 -2,-33 -26,-32 -26,-32 C 98.01,20.01 92,4 68,4 40,4 31.93,13.52 28,15 Z"
       fill="#3c2c23" /><g
       id="hairHighlights_2_"><radialGradient
         id="SVGID_1_-6"
         cx="628.71698"
         cy="33.994999"
         r="33.722"
         gradientTransform="matrix(-0.8776,0.4793,-0.3113,-0.57,643.6991,-187.9951)"
         gradientUnits="userSpaceOnUse"><stop
           offset=".728"
           stop-color="#554138"
           stop-opacity="0"
           id="stop3378" /><stop
           offset="1"
           stop-color="#554138"
           id="stop3380" /></radialGradient><path
         d="m 64.03,114.11 c 11.02,0.06 21.72,0.25 25.1,-0.68 2.82,-0.78 11.05,-2.42 17.84,-8.95 5.12,-4.93 6.23,-11.84 4.57,-17.96 -0.18,-0.68 -47.51,27.59 -47.51,27.59 z"
         fill="url(#SVGID_1_)"
         id="path3383"
         style="fill:url(#SVGID_1_-6)" /><radialGradient
         id="SVGID_2_-7"
         cx="46.755001"
         cy="34.368999"
         r="34.005001"
         gradientTransform="matrix(0.8776,0.4793,0.3113,-0.57,-4.9738,90.8076)"
         gradientUnits="userSpaceOnUse"><stop
           offset=".728"
           stop-color="#554138"
           stop-opacity="0"
           id="stop3385" /><stop
           offset="1"
           stop-color="#554138"
           id="stop3387" /></radialGradient><path
         d="M 64.03,114.11 C 53.01,114.17 41.38,113.94 38,113 35.18,112.22 28,112 22,106 16,100 16.12,93.84 16.19,88.36 16.2,87.67 15.97,86.41 15.91,86.11 L 16,86 Z"
         fill="url(#SVGID_2_)"
         id="path3390"
         style="fill:url(#SVGID_2_-7)" /><radialGradient
         id="SVGID_3_-5"
         cx="26.618999"
         cy="80.139"
         r="34.327999"
         gradientTransform="matrix(0.0746,-0.9972,-0.8311,-0.0622,91.2358,79.3913)"
         gradientUnits="userSpaceOnUse"><stop
           offset=".699"
           stop-color="#554138"
           stop-opacity="0"
           id="stop3392" /><stop
           offset="1"
           stop-color="#554138"
           id="stop3394" /></radialGradient><path
         d="m 11.56,81.33 c 0,0 9.54,-13.31 12.39,-21.13 C 24.53,58.62 26.39,37.71 25.5,35.04 23.84,30.02 21.76,23.41 17,27 7.99,35.55 4.49,45.1 4.07,53.75 3.33,68.96 8.89,78.19 11.56,81.33 Z"
         fill="url(#SVGID_3_)"
         id="path3397"
         style="fill:url(#SVGID_3_-5)" /></g></g><g
     id="ears"><path
       d="M 101.77,67.91 H 91.6 36.51 26.34 c -8.13,0 -14.79,6.4 -14.79,14.23 0,7.83 6.65,14.23 14.79,14.23 h 10.17 55.09 10.17 c 8.13,0 14.79,-6.4 14.79,-14.23 0,-7.83 -6.66,-14.23 -14.79,-14.23 z"
       fill="#7a4c32"
       id="path3401" /></g><g
     id="head"><path
       d="m 63.77,9.21 v 0 0 c -23.86,0 -45.96,25.07 -45.96,61.14 0,35.88 22.77,53.62 45.96,53.62 23.19,0 45.96,-17.74 45.96,-53.62 0,-36.07 -22.1,-61.14 -45.96,-61.14 z"
       fill="#a56c43"
       id="path3404" /></g><path
     id="nose"
     d="m 68.89,87.13 c -0.14,-0.06 -0.28,-0.09 -0.42,-0.11 h -9.3 c -0.14,0.02 -0.28,0.05 -0.42,0.11 -0.84,0.34 -1.31,1.21 -0.91,2.14 0.4,0.93 2.25,3.54 5.98,3.54 3.73,0 5.58,-2.61 5.98,-3.54 0.4,-0.93 -0.07,-1.8 -0.91,-2.14 z"
     fill="#875334" /><g
     id="eyebrows"><path
       d="m 32.51,68.42 c 0,0 0.17,-0.25 0.5,-0.67 0.09,-0.1 0.16,-0.21 0.28,-0.34 0.14,-0.14 0.31,-0.28 0.48,-0.44 0.18,-0.15 0.37,-0.32 0.57,-0.5 0.2,-0.17 0.41,-0.3 0.63,-0.46 0.22,-0.15 0.45,-0.31 0.7,-0.46 0.26,-0.14 0.52,-0.28 0.79,-0.42 0.27,-0.15 0.56,-0.28 0.87,-0.39 0.3,-0.12 0.61,-0.24 0.93,-0.35 0.65,-0.18 1.32,-0.38 2.02,-0.47 0.7,-0.14 1.42,-0.15 2.14,-0.18 0.72,0.04 1.44,0.05 2.14,0.18 0.7,0.09 1.38,0.29 2.02,0.47 0.32,0.11 0.63,0.23 0.93,0.35 0.3,0.12 0.59,0.24 0.87,0.39 0.27,0.14 0.54,0.29 0.79,0.42 0.25,0.15 0.48,0.31 0.7,0.46 0.22,0.16 0.43,0.29 0.62,0.45 0.18,0.16 0.36,0.32 0.52,0.46 0.16,0.15 0.31,0.28 0.44,0.41 0.13,0.14 0.24,0.27 0.34,0.39 0.4,0.47 0.61,0.75 0.61,0.75 0.67,0.93 0.46,2.22 -0.47,2.88 -0.56,0.41 -1.26,0.49 -1.88,0.28 L 49.67,71.5 c 0,0 -0.25,-0.09 -0.65,-0.26 -0.1,-0.04 -0.2,-0.1 -0.32,-0.14 -0.13,-0.04 -0.25,-0.09 -0.39,-0.14 -0.27,-0.11 -0.58,-0.22 -0.92,-0.32 -0.17,-0.05 -0.34,-0.12 -0.52,-0.17 -0.19,-0.04 -0.37,-0.09 -0.57,-0.14 -0.1,-0.03 -0.19,-0.05 -0.29,-0.08 -0.1,-0.02 -0.2,-0.04 -0.31,-0.06 -0.21,-0.03 -0.41,-0.09 -0.62,-0.13 -0.43,-0.05 -0.86,-0.14 -1.31,-0.16 -0.45,-0.06 -0.9,-0.04 -1.36,-0.07 -0.46,0.03 -0.91,0.01 -1.36,0.07 -0.45,0.02 -0.88,0.11 -1.31,0.16 -0.21,0.04 -0.41,0.1 -0.62,0.13 -0.1,0.02 -0.21,0.04 -0.31,0.06 -0.1,0.03 -0.19,0.05 -0.29,0.08 -0.19,0.05 -0.38,0.1 -0.57,0.14 -0.18,0.05 -0.35,0.12 -0.52,0.17 -0.17,0.05 -0.33,0.1 -0.48,0.15 -0.13,0.05 -0.26,0.09 -0.38,0.14 -0.12,0.04 -0.24,0.08 -0.36,0.11 -0.13,0.05 -0.27,0.13 -0.38,0.19 -0.47,0.24 -0.75,0.36 -0.75,0.36 -1.08,0.45 -2.33,-0.06 -2.78,-1.15 -0.28,-0.69 -0.17,-1.45 0.21,-2.02 z"
       fill="#42312c"
       id="path3408" /><path
       d="m 92.55,71.58 c 0,0 -0.28,-0.12 -0.75,-0.36 C 91.69,71.16 91.55,71.08 91.42,71.03 91.3,71 91.19,70.96 91.06,70.92 90.94,70.88 90.81,70.83 90.68,70.78 90.53,70.73 90.36,70.68 90.2,70.63 90.03,70.58 89.86,70.51 89.68,70.46 89.5,70.41 89.31,70.36 89.11,70.32 89.01,70.29 88.92,70.27 88.82,70.24 88.72,70.22 88.62,70.2 88.51,70.18 88.3,70.15 88.1,70.09 87.89,70.05 87.46,70 87.03,69.91 86.58,69.89 c -0.45,-0.06 -0.9,-0.04 -1.36,-0.07 -0.46,0.03 -0.91,0.01 -1.36,0.07 -0.45,0.02 -0.88,0.11 -1.31,0.16 -0.21,0.04 -0.41,0.1 -0.62,0.13 -0.1,0.02 -0.21,0.04 -0.31,0.06 -0.1,0.03 -0.19,0.05 -0.29,0.08 -0.19,0.05 -0.38,0.1 -0.57,0.14 -0.18,0.05 -0.35,0.12 -0.52,0.17 -0.34,0.1 -0.65,0.21 -0.92,0.32 -0.14,0.05 -0.26,0.11 -0.39,0.14 -0.12,0.05 -0.22,0.1 -0.32,0.14 -0.39,0.18 -0.64,0.26 -0.64,0.26 l -0.37,0.13 c -1.08,0.38 -2.25,-0.19 -2.63,-1.27 -0.23,-0.66 -0.1,-1.36 0.27,-1.89 0,0 0.2,-0.28 0.61,-0.75 0.1,-0.12 0.21,-0.25 0.34,-0.39 0.13,-0.13 0.29,-0.26 0.44,-0.41 0.16,-0.14 0.34,-0.3 0.52,-0.46 0.19,-0.16 0.4,-0.29 0.62,-0.45 0.22,-0.15 0.45,-0.31 0.7,-0.46 0.26,-0.14 0.52,-0.28 0.79,-0.42 0.27,-0.15 0.56,-0.28 0.86,-0.39 0.3,-0.12 0.61,-0.24 0.93,-0.35 0.65,-0.18 1.32,-0.38 2.02,-0.47 0.7,-0.14 1.42,-0.15 2.14,-0.18 0.72,0.04 1.44,0.04 2.14,0.18 0.7,0.08 1.38,0.29 2.02,0.47 0.32,0.11 0.63,0.23 0.93,0.35 0.3,0.12 0.59,0.24 0.86,0.39 0.27,0.14 0.54,0.29 0.79,0.42 0.25,0.15 0.48,0.31 0.7,0.46 0.22,0.16 0.43,0.29 0.63,0.46 0.2,0.17 0.39,0.34 0.57,0.5 0.17,0.16 0.34,0.3 0.48,0.44 0.12,0.13 0.2,0.24 0.28,0.34 0.33,0.41 0.5,0.67 0.5,0.67 0.66,0.97 0.41,2.29 -0.56,2.95 -0.6,0.43 -1.37,0.48 -2,0.22 z"
       fill="#42312c"
       id="path3410" /></g><g
     id="eyes"><ellipse
       cx="41.959999"
       cy="80.339996"
       rx="6.48"
       ry="6.71"
       fill="#42312c"
       id="ellipse3413" /><ellipse
       cx="85.68"
       cy="80.339996"
       rx="6.48"
       ry="6.71"
       fill="#42312c"
       id="ellipse3415" /></g><path
     id="mouth"
     d="m 75.01,97.97 c -4.19,2.49 -17.91,2.49 -22.1,0 -2.4,-1.43 -4.86,0.76 -3.86,2.94 0.98,2.15 8.47,7.13 14.95,7.13 6.48,0 13.87,-4.98 14.85,-7.13 0.99,-2.19 -1.43,-4.37 -3.84,-2.94 z"
     fill="#473530" /><g
     id="hairGroup_1_"><path
       id="hair"
       d="M 64,7 C 44.19,7 28.92,18.32 21.7,36.48 18.8,43.77 16.44,51.53 16.44,59.37 16.44,73 19,85 19,85 26,76 24,67 24,67 33,55 59.82,45.36 60,45 c -0.01,0.02 -5.4,10.81 -5.4,10.81 -0.68,1.35 0.48,2.97 1.95,2.65 C 82,53 93.18,43.19 93.18,43.19 93.18,43.19 94,58 105,68 c 0,0 0,8 3,17 0,0 5,-18 1.58,-37.28 C 107.33,35.06 100.06,22.89 89.54,15.05 82.15,9.54 73.15,7 64,7 Z"
       fill="#3c2c23" /><g
       id="hairHighlights"><radialGradient
         id="SVGID_4_"
         cx="172.22099"
         cy="61.127998"
         r="46.467999"
         gradientTransform="matrix(-0.9378,-0.3944,-0.2182,0.5285,236.4617,66.99)"
         gradientUnits="userSpaceOnUse"><stop
           offset=".699"
           stop-color="#554138"
           stop-opacity="0"
           id="stop3420" /><stop
           offset="1"
           stop-color="#554138"
           id="stop3422" /></radialGradient><path
         d="m 81.19,5.93 c 9.95,3.28 16.06,9.58 17.95,17.49 0.56,2.32 0.15,23.66 -41.22,-0.97 C 42.53,13.29 46.74,7.55 48.54,6.9 55.58,4.37 68.35,1.7 81.19,5.93 Z"
         fill="url(#SVGID_4_)"
         id="path3425"
         style="fill:url(#SVGID_4_)" /><radialGradient
         id="SVGID_5_"
         cx="161.283"
         cy="92.172997"
         r="48.129002"
         gradientTransform="matrix(0.5235,0.852,0.6321,-0.3884,-48.207,-37.2646)"
         gradientUnits="userSpaceOnUse"><stop
           offset=".699"
           stop-color="#554138"
           stop-opacity="0"
           id="stop3427" /><stop
           offset="1"
           stop-color="#554138"
           id="stop3429" /></radialGradient><path
         d="m 116.24,79.21 c 0,0 14.72,-20.84 3.79,-44.33 C 112.9,19.58 98.42,19.93 98,20 c 0,0 1.57,3.84 1.01,6.77 -0.95,5 -5.11,6.44 -5.11,6.44 16.38,9.98 10.8,35.53 22.34,46 z"
         fill="url(#SVGID_5_)"
         id="path3432"
         style="fill:url(#SVGID_5_)" /><radialGradient
         id="SVGID_6_"
         cx="183.604"
         cy="211.35201"
         r="8.7419996"
         gradientTransform="matrix(0.9968,0.0796,0.0943,-1.182,-185.8959,247.3334)"
         gradientUnits="userSpaceOnUse"><stop
           offset=".58"
           stop-color="#554138"
           id="stop3434" /><stop
           offset="1"
           stop-color="#554138"
           stop-opacity="0"
           id="stop3436" /></radialGradient><path
         d="M 27.28,15.27 C 16.73,19.04 12.05,16.08 12.02,16 c -0.32,1.23 0.37,8.7 6.9,6.37 2.81,-1.02 8.33,-6.75 8.36,-7.1 z"
         fill="url(#SVGID_6_)"
         id="path3439"
         style="fill:url(#SVGID_6_)" /><radialGradient
         id="SVGID_7_"
         cx="340.30499"
         cy="96.031998"
         r="7.2199998"
         gradientTransform="matrix(0.6211,-0.7838,-1.2436,-0.9854,-70.4253,384.055)"
         gradientUnits="userSpaceOnUse"><stop
           offset=".702"
           stop-color="#554138"
           stop-opacity="0"
           id="stop3441" /><stop
           offset="1"
           stop-color="#554138"
           id="stop3443" /></radialGradient><path
         d="m 11.98,15.99 c 0,0.01 -0.01,0.03 -0.01,0.06 0,0 0,0 0,0 C 11.94,17.22 11.96,26.18 17,27 l 7.61,-3.35 c -9.49,-0.19 -12.62,-7.69 -12.62,-7.69 0,0 -0.01,0.02 -0.01,0.03 z"
         fill="url(#SVGID_7_)"
         id="path3446"
         style="fill:url(#SVGID_7_)" /></g></g></g></svg>
