<?xml version="1.0" encoding="UTF-8" standalone="no"?>
<!-- Generator: Adobe Illustrator 24.0.3, SVG Export Plug-In . SVG Version: 6.00 Build 0)  -->

<svg
   version="1.1"
   id="Layer_1"
   x="0px"
   y="0px"
   viewBox="0 0 119.91681 190.14514"
   xml:space="preserve"
   sodipodi:docname="yellowbelt.svg"
   inkscape:version="1.1.1 (3bf5ae0d25, 2021-09-20, custom)"
   width="119.91681"
   height="190.14514"
   xmlns:inkscape="http://www.inkscape.org/namespaces/inkscape"
   xmlns:sodipodi="http://sodipodi.sourceforge.net/DTD/sodipodi-0.dtd"
   xmlns:xlink="http://www.w3.org/1999/xlink"
   xmlns="http://www.w3.org/2000/svg"
   xmlns:svg="http://www.w3.org/2000/svg"><defs
   id="defs56"><linearGradient
     inkscape:collect="always"
     id="linearGradient3016"><stop
       style="stop-color:#d29a00;stop-opacity:1"
       offset="0"
       id="stop3012" /><stop
       style="stop-color:#cbdd00;stop-opacity:1"
       offset="1"
       id="stop3014" /></linearGradient><linearGradient
     inkscape:collect="always"
     id="linearGradient2110"><stop
       style="stop-color:#ffc100;stop-opacity:1"
       offset="0"
       id="stop2106" /><stop
       style="stop-color:#f4f300;stop-opacity:1"
       offset="1"
       id="stop2108" /></linearGradient><linearGradient
     inkscape:collect="always"
     id="linearGradient2104"><stop
       style="stop-color:#ffba00;stop-opacity:1"
       offset="0"
       id="stop2100" /><stop
       style="stop-color:#cfd900;stop-opacity:1"
       offset="1"
       id="stop2102" /></linearGradient><linearGradient
     inkscape:collect="always"
     id="linearGradient1983"><stop
       style="stop-color:#ffa900;stop-opacity:1"
       offset="0"
       id="stop1979" /><stop
       style="stop-color:#e6e000;stop-opacity:1"
       offset="1"
       id="stop1981" /></linearGradient><linearGradient
     inkscape:collect="always"
     xlink:href="#linearGradient1983"
     id="linearGradient1985"
     x1="60.700001"
     y1="102.11891"
     x2="80.635002"
     y2="102.11891"
     gradientUnits="userSpaceOnUse"
     gradientTransform="translate(-3.991594,66.076271)" /><linearGradient
     inkscape:collect="always"
     xlink:href="#linearGradient3016"
     id="linearGradient1987"
     x1="45.751713"
     y1="98.815636"
     x2="64.344444"
     y2="98.815636"
     gradientUnits="userSpaceOnUse"
     gradientTransform="translate(-3.9915968,66.076271)" /><linearGradient
     inkscape:collect="always"
     xlink:href="#linearGradient2110"
     id="linearGradient1989"
     x1="33.787319"
     y1="75.679611"
     x2="94.212677"
     y2="75.679611"
     gradientUnits="userSpaceOnUse"
     gradientTransform="translate(-3.9915968,66.076271)" /><linearGradient
     inkscape:collect="always"
     xlink:href="#linearGradient2104"
     id="linearGradient1991"
     x1="55.434906"
     y1="79"
     x2="72.931976"
     y2="79"
     gradientUnits="userSpaceOnUse"
     gradientTransform="translate(-3.9915968,66.076271)" /><linearGradient
     id="hand_3_"
     gradientUnits="userSpaceOnUse"
     x1="113.3392"
     y1="22.747101"
     x2="103.0556"
     y2="29.823"
     gradientTransform="matrix(1,0,0,-1,0,130)"><stop
       offset="0"
       style="stop-color:#8D5738"
       id="stop69" /><stop
       offset="0.5"
       style="stop-color:#A56C43"
       id="stop71" /></linearGradient><linearGradient
     id="tone_12_"
     gradientUnits="userSpaceOnUse"
     x1="106.9453"
     y1="24.495399"
     x2="105.3179"
     y2="27.113501"
     gradientTransform="matrix(1,0,0,-1,0,130)"><stop
       offset="0"
       style="stop-color:#8D5738"
       id="stop78" /><stop
       offset="1"
       style="stop-color:#A56C43;stop-opacity:0"
       id="stop80" /></linearGradient><linearGradient
     id="arm_3_"
     gradientUnits="userSpaceOnUse"
     x1="435.4021"
     y1="66.414001"
     x2="435.4021"
     y2="21.552"
     gradientTransform="rotate(180,262.8788,65)"><stop
       offset="0"
       style="stop-color:#8D5738"
       id="stop2-3" /><stop
       offset="0.5"
       style="stop-color:#A56C43"
       id="stop4-6" /></linearGradient><linearGradient
     id="arm_4_"
     gradientUnits="userSpaceOnUse"
     x1="37.188499"
     y1="66.414001"
     x2="37.188499"
     y2="21.552"
     gradientTransform="matrix(1,0,0,-1,0,130)"><stop
       offset="0"
       style="stop-color:#8D5738"
       id="stop9-7" /><stop
       offset="0.5"
       style="stop-color:#A56C43"
       id="stop11-5" /></linearGradient><linearGradient
     id="shadow_4_"
     gradientUnits="userSpaceOnUse"
     x1="26.4937"
     y1="22.3799"
     x2="31.461"
     y2="16.134199"
     gradientTransform="matrix(1,-0.0091,-0.0091,-1,0.1613,130.1915)"><stop
       offset="0"
       style="stop-color:#8D5738"
       id="stop29" /><stop
       offset="0.5"
       style="stop-color:#A56C43;stop-opacity:0"
       id="stop31" /></linearGradient><linearGradient
     id="hand_4_"
     gradientUnits="userSpaceOnUse"
     x1="13.9837"
     y1="24.346901"
     x2="28.701599"
     y2="30.101999"
     gradientTransform="matrix(1,0,0,-1,0,130)"><stop
       offset="0"
       style="stop-color:#8D5738"
       id="stop88" /><stop
       offset="0.5"
       style="stop-color:#A56C43"
       id="stop90" /></linearGradient><linearGradient
     id="tone_15_"
     gradientUnits="userSpaceOnUse"
     x1="20.8951"
     y1="25.176201"
     x2="23.123899"
     y2="27.935801"
     gradientTransform="matrix(1,0,0,-1,0,130)"><stop
       offset="0"
       style="stop-color:#8D5738"
       id="stop97" /><stop
       offset="1"
       style="stop-color:#A56C43;stop-opacity:0"
       id="stop99" /></linearGradient><radialGradient
     id="SVGID_1_-3"
     cx="107.1771"
     cy="85.792297"
     r="11.3119"
     gradientTransform="matrix(1,0,0,0.4912,-36.1332,-0.9694)"
     gradientUnits="userSpaceOnUse"><stop
       offset="0.7275"
       style="stop-color:#6D4C41;stop-opacity:0"
       id="stop109" /><stop
       offset="1"
       style="stop-color:#6D4C41"
       id="stop111" /></radialGradient><radialGradient
     id="SVGID_2_-5"
     cx="97.518097"
     cy="91.3022"
     r="3.3429"
     gradientTransform="matrix(-0.9057,0.4238,-0.3144,-0.6719,199.2167,59.5054)"
     gradientUnits="userSpaceOnUse"><stop
       offset="0.6628"
       style="stop-color:#6D4C41"
       id="stop116" /><stop
       offset="1"
       style="stop-color:#6D4C41;stop-opacity:0"
       id="stop118" /></radialGradient><radialGradient
     id="SVGID_3_-6"
     cx="106.7716"
     cy="97.859802"
     r="14.6835"
     gradientTransform="matrix(-0.0746,-0.9972,0.8311,-0.0622,0.1579,142.5941)"
     gradientUnits="userSpaceOnUse"><stop
       offset="0.7247"
       style="stop-color:#6D4C41;stop-opacity:0"
       id="stop123" /><stop
       offset="1"
       style="stop-color:#6D4C41"
       id="stop125" /></radialGradient><radialGradient
     id="SVGID_4_"
     cx="56.411999"
     cy="100.2528"
     r="14.6835"
     gradientTransform="matrix(0.0746,-0.9972,-0.8311,-0.0622,133.5996,92.5238)"
     gradientUnits="userSpaceOnUse"><stop
       offset="0.7247"
       style="stop-color:#6D4C41;stop-opacity:0"
       id="stop130" /><stop
       offset="1"
       style="stop-color:#6D4C41"
       id="stop132" /></radialGradient><radialGradient
     id="SVGID_5_"
     cx="58.966801"
     cy="85.792297"
     r="11.3119"
     gradientTransform="matrix(-1,0,0,0.4912,115.9336,-0.9694)"
     gradientUnits="userSpaceOnUse"><stop
       offset="0.7275"
       style="stop-color:#6D4C41;stop-opacity:0"
       id="stop137" /><stop
       offset="1"
       style="stop-color:#6D4C41"
       id="stop139" /></radialGradient><radialGradient
     id="SVGID_6_"
     cx="45.496201"
     cy="90.159599"
     r="3.3429"
     gradientTransform="matrix(0.9057,0.4238,0.3144,-0.6719,-23.7282,80.7854)"
     gradientUnits="userSpaceOnUse"><stop
       offset="0.6628"
       style="stop-color:#6D4C41"
       id="stop144" /><stop
       offset="1"
       style="stop-color:#6D4C41;stop-opacity:0"
       id="stop146" /></radialGradient><radialGradient
     id="SVGID_7_"
     cx="72.532402"
     cy="105.8447"
     r="17.211399"
     gradientTransform="matrix(0.3076,0.9515,0.706,-0.2282,-24.2466,-22.5749)"
     gradientUnits="userSpaceOnUse"><stop
       offset="0.6985"
       style="stop-color:#6D4C41;stop-opacity:0"
       id="stop172" /><stop
       offset="1"
       style="stop-color:#6D4C41"
       id="stop174" /></radialGradient><radialGradient
     id="SVGID_8_"
     cx="55.6581"
     cy="125.8242"
     r="4.5127001"
     gradientTransform="matrix(0.8813,0.4726,0.5603,-1.045,-63.5381,108.7041)"
     gradientUnits="userSpaceOnUse"><stop
       offset="0.58"
       style="stop-color:#6D4C41"
       id="stop179" /><stop
       offset="1"
       style="stop-color:#6D4C41;stop-opacity:0"
       id="stop181" /></radialGradient><radialGradient
     id="SVGID_9_"
     cx="152.8123"
     cy="57.256001"
     r="13.8729"
     gradientTransform="matrix(-0.9378,-0.3944,-0.2182,0.5285,221.9003,41.7236)"
     gradientUnits="userSpaceOnUse"><stop
       offset="0.6985"
       style="stop-color:#6D4C41;stop-opacity:0"
       id="stop186" /><stop
       offset="1"
       style="stop-color:#6D4C41"
       id="stop188" /></radialGradient><radialGradient
     id="SVGID_10_"
     cx="54.200001"
     cy="122.1798"
     r="4.1422"
     gradientTransform="matrix(1,0,0,-1.2233,0,157.1004)"
     gradientUnits="userSpaceOnUse"><stop
       offset="0.7016"
       style="stop-color:#6D4C41;stop-opacity:0"
       id="stop193" /><stop
       offset="1"
       style="stop-color:#6D4C41"
       id="stop195" /></radialGradient><radialGradient
     id="SVGID_11_"
     cx="55.855598"
     cy="113.2966"
     r="7.7686"
     gradientTransform="matrix(-0.9657,-0.2598,-0.2432,0.9037,135.1216,-72.9243)"
     gradientUnits="userSpaceOnUse"><stop
       offset="0.6605"
       style="stop-color:#6D4C41;stop-opacity:0"
       id="stop200" /><stop
       offset="1"
       style="stop-color:#6D4C41"
       id="stop202" /></radialGradient><radialGradient
     id="SVGID_12_"
     cx="51.660198"
     cy="107.1577"
     r="8.1561003"
     gradientTransform="matrix(0.9907,0.1363,0.1915,-1.3921,-19.9108,164.5829)"
     gradientUnits="userSpaceOnUse"><stop
       offset="0.5981"
       style="stop-color:#6D4C41;stop-opacity:0"
       id="stop207" /><stop
       offset="1"
       style="stop-color:#6D4C41"
       id="stop209" /></radialGradient><radialGradient
     id="SVGID_1_-6"
     cx="22.725901"
     cy="18.492399"
     r="23.0201"
     gradientTransform="matrix(0.8903,-0.4554,-0.2657,-0.5195,7.4017,129.4591)"
     gradientUnits="userSpaceOnUse"><stop
       offset="0.5255"
       style="stop-color:#554138;stop-opacity:0"
       id="stop4-0" /><stop
       offset="1"
       style="stop-color:#554138"
       id="stop6" /></radialGradient><radialGradient
     id="SVGID_2_-6"
     cx="13.5301"
     cy="8.4808998"
     r="15.4297"
     gradientTransform="matrix(0.8381,-0.5456,-0.2765,-0.4247,4.5399,130.5066)"
     gradientUnits="userSpaceOnUse"><stop
       offset="0"
       style="stop-color:#554138"
       id="stop11-2" /><stop
       offset="0.6985"
       style="stop-color:#554138;stop-opacity:0"
       id="stop13" /></radialGradient><radialGradient
     id="SVGID_3_-61"
     cx="37.584202"
     cy="18.492399"
     r="23.0201"
     gradientTransform="matrix(-0.8903,-0.4554,0.2657,-0.5195,133.8266,136.2254)"
     gradientUnits="userSpaceOnUse"><stop
       offset="0.5255"
       style="stop-color:#554138;stop-opacity:0"
       id="stop18-8" /><stop
       offset="1"
       style="stop-color:#554138"
       id="stop20" /></radialGradient><radialGradient
     id="SVGID_4_-7"
     cx="28.388399"
     cy="8.4808998"
     r="15.4297"
     gradientTransform="matrix(-0.8381,-0.5456,0.2765,-0.4247,135.9121,138.6132)"
     gradientUnits="userSpaceOnUse"><stop
       offset="0"
       style="stop-color:#554138"
       id="stop25" /><stop
       offset="0.6985"
       style="stop-color:#554138;stop-opacity:0"
       id="stop27" /></radialGradient><radialGradient
     id="hairHighlights_2_"
     cx="64.018799"
     cy="74.010002"
     r="51.6642"
     gradientTransform="matrix(0.9998,0.0195,0.019,-0.9735,-1.3922,124.7851)"
     gradientUnits="userSpaceOnUse"><stop
       offset="0.6985"
       style="stop-color:#554138;stop-opacity:0"
       id="stop49" /><stop
       offset="1"
       style="stop-color:#554138"
       id="stop51" /></radialGradient></defs><sodipodi:namedview
   id="namedview54"
   pagecolor="#ffffff"
   bordercolor="#eeeeee"
   borderopacity="1"
   inkscape:pageshadow="0"
   inkscape:pageopacity="0"
   inkscape:pagecheckerboard="0"
   showgrid="false"
   inkscape:zoom="2.9609375"
   inkscape:cx="101.65699"
   inkscape:cy="67.883905"
   inkscape:window-width="2560"
   inkscape:window-height="1000"
   inkscape:window-x="1920"
   inkscape:window-y="0"
   inkscape:window-maximized="1"
   inkscape:current-layer="Layer_1"
   inkscape:snap-global="false" />
<linearGradient
   id="SVGID_1_"
   gradientUnits="userSpaceOnUse"
   x1="64"
   y1="719.97748"
   x2="64"
   y2="806.52582"
   gradientTransform="translate(-3.9915968,-647.81353)">
	<stop
   offset="0.284"
   style="stop-color:#F5F5F5"
   id="stop2" />
	<stop
   offset="0.8416"
   style="stop-color:#E0E0E0"
   id="stop4" />
</linearGradient>
<path
   style="fill:url(#SVGID_1_)"
   d="m 98.908403,86.976271 c -13.2,-16.7 -38.9,-15.7 -38.9,-15.7 0,0 -25.7,-1 -38.9,15.7 C 6.8084032,105.17627 1.2084032,132.67627 0.10840324,155.27627 c -0.1,1.4 0.7,2.8 1.99999996,3.3 2.7,1.2 7.7,3 13.6999998,2.2 1.2,-0.2 2.2,-1 2.6,-2.1 1.6,-4.4 6.8,-15.3 12.6,-24.4 0,0 -2.2,18.7 -8.4,35.1 -0.6,1.5 0.4,3.2 1.9,3.9 5,2.4 19.7,7.2 35.5,7.2 15.8,0 30.5,-4.8 35.5,-7.2 1.5,-0.7 2.5,-2.4 1.9,-3.9 -6.2,-16.5 -8.4,-35.1 -8.4,-35.1 5.8,9.1 10.999997,20.1 12.599997,24.5 0.4,1.1 1.4,2 2.6,2.1 6,0.7 11,-1 13.7,-2.2 1.3,-0.6 2.1,-1.9 2,-3.3 -1.1,-22.7 -6.7,-50.2 -20.999997,-68.399999 z"
   id="path7" />
<linearGradient
   id="SVGID_2_"
   gradientUnits="userSpaceOnUse"
   x1="95.400002"
   y1="749.56879"
   x2="95.400002"
   y2="788.90369"
   gradientTransform="translate(-3.9915968,-647.81353)">
	<stop
   offset="0.2817"
   style="stop-color:#E0E0E0"
   id="stop9" />
	<stop
   offset="0.8361"
   style="stop-color:#9E9E9E"
   id="stop11" />
</linearGradient>
<path
   style="fill:url(#SVGID_2_)"
   d="m 88.908403,134.27627 -0.1,-22.6 c 0,-1.5 1.7,-2.3 2.8,-1.4 0.4,0.3 0.6,0.8 0.6,1.3 0,3.7 0.2,19.3 1.8,31.5 z"
   id="path14" />
<linearGradient
   id="SVGID_3_"
   gradientUnits="userSpaceOnUse"
   x1="32.499298"
   y1="749.56879"
   x2="32.499298"
   y2="788.90369"
   gradientTransform="translate(-3.9915968,-647.81353)">
	<stop
   offset="0.2817"
   style="stop-color:#E0E0E0"
   id="stop16" />
	<stop
   offset="0.8361"
   style="stop-color:#9E9E9E"
   id="stop18" />
</linearGradient>
<path
   style="fill:url(#SVGID_3_)"
   d="m 31.008403,134.27627 0.1,-22.6 c 0,-1.5 -1.7,-2.3 -2.8,-1.4 -0.4,0.3 -0.6,0.8 -0.6,1.3 0,3.7 -0.1,19.3 -1.8,31.5 -0.1,0.1 5.1,-8.8 5.1,-8.8 z"
   id="path21" />
<g
   style="opacity:0.2"
   id="g25"
   transform="translate(-3.9915968,66.076271)">
	<path
   style="fill:#444444"
   d="m 64.7,8.2 c 4.1,0 24.8,0.7 35.8,14.6 6.8,8.6 18.5,28.7 20.4,66.6 0,0.2 -0.1,0.4 -0.3,0.5 -2.1,1 -5.5,2.1 -9.6,2.1 -0.8,0 -1.7,-0.1 -2.6,-0.2 -0.1,0 -0.1,-0.1 -0.2,-0.2 -1.6,-4.4 -6.8,-15.4 -12.8,-25 C 95,65.7 94,65.1 93,65.1 c -0.3,0 -0.7,0.1 -1,0.2 -1.3,0.5 -2.1,1.8 -2,3.2 0.1,0.8 2.3,19.2 8.5,35.7 -0.1,0.1 -0.2,0.2 -0.3,0.3 -5.7,2.7 -19.9,6.9 -34.2,6.9 -14.3,0 -28.6,-4.2 -34.2,-6.9 -0.1,-0.1 -0.2,-0.2 -0.3,-0.3 6.3,-16.6 8.4,-34.9 8.5,-35.7 0.2,-1.4 -0.7,-2.7 -2,-3.2 -0.3,-0.1 -0.7,-0.2 -1,-0.2 -1,0 -2,0.5 -2.5,1.4 -6.1,9.6 -11.2,20.6 -12.9,25 0,0.1 -0.1,0.2 -0.2,0.2 -0.8,0.1 -1.7,0.2 -2.5,0.2 -4.1,0 -7.4,-1.2 -9.6,-2.1 C 7.1,89.7 7,89.5 7,89.3 8.9,51.4 20.6,31.3 27.4,22.7 38.5,8.9 59.2,8.2 63.3,8.2 c 0.4,0 0.6,0 0.6,0 h 0.1 0.1 c 0,0 0.2,0 0.6,0 m 0,-3 c -0.5,0 -0.7,0 -0.7,0 0,0 -0.3,0 -0.7,0 C 59,5.2 37,6 25.2,20.9 10.8,39.1 5.2,66.6 4,89.2 c -0.1,1.4 0.7,2.8 2,3.3 2.2,1 6.1,2.4 10.8,2.4 0.9,0 1.9,-0.1 2.9,-0.2 1.2,-0.2 2.2,-1 2.6,-2.1 1.7,-4.4 6.9,-15.3 12.7,-24.4 0,0 -2.2,18.7 -8.4,35.1 -0.6,1.5 0.4,3.2 1.9,3.9 5,2.4 19.7,7.2 35.5,7.2 15.8,0 30.5,-4.8 35.5,-7.2 1.5,-0.7 2.5,-2.4 1.9,-3.9 C 95.2,86.8 93,68.2 93,68.2 c 5.8,9.1 11,20.1 12.6,24.5 0.4,1.1 1.4,2 2.6,2.1 1,0.1 2,0.2 2.9,0.2 4.7,0 8.6,-1.4 10.8,-2.4 1.3,-0.6 2.1,-1.9 2,-3.3 C 122.7,66.7 117.2,39.2 102.8,21 91,5.9 69.1,5.2 64.7,5.2 Z"
   id="path23" />
</g>
<polygon
   style="fill:#989898"
   points="51.4,22.3 50.1,8.3 78.2,8.3 75.9,21.8 64,37.5 "
   id="polygon27"
   transform="translate(-3.9915968,66.076271)" />

<path
   style="fill:#c6c6c6"
   d="m 47.408403,70.076271 c 0,0 -4.2,0.9 -8,2.7 0,0 -1,20.8 16.1,36.899999 l 7.6,-7.5 c -7.5,-6.899999 -14.2,-17.099999 -15.7,-32.099999 z"
   id="path31" />
<path
   style="fill:#c6c6c6"
   d="m 72.608403,70.076271 c 0,0 4.2,0.9 7.899997,2.7 0,0 4.8,43.099999 -49.399997,52.999999 l -0.1,-10.3 c 0,0 37.6,-6.7 41.6,-45.399999 z"
   id="path33" />
<path
   style="fill:url(#linearGradient1987);fill-opacity:1"
   d="m 55.708403,145.97627 c -0.5,-0.2 -1.2,-0.2 -1.6,0.2 -2.5,1.9 -3.5,4.2 -4.3,7.3 -0.8,3.4 -0.9,6.9 -1.4,10.3 -0.9,5.7 -3.1,11.2 -6.4,16 -0.5,0.7 -0.2,1.5 0.5,1.9 2.1,1.1 3.2,1.7 5.5,2.2 0.6,0.2 1.3,-0.1 1.6,-0.6 2.8,-4.2 5.3,-9.6 5.8,-14.5 1.2,-11.9 1.7,-14.5 4.5,-18.2 0.4,-0.5 0.6,-1.3 0.3,-1.9 -0.1,-0.4 -0.4,-0.6 -0.8,-0.9 -0.8,-0.8 -2.6,-1.3 -3.7,-1.8 z"
   id="path35" />
<path
   style="fill:url(#linearGradient1985);fill-opacity:1"
   d="m 56.708403,148.47627 c 0,0 5.2,4.8 5.6,11.7 0.3,6.1 0,6.9 0.2,13 0.2,5.6 1.1,11.4 4.1,16.3 0.4,0.6 1.2,0.8 1.9,0.5 1.8,-1 5.8,-3 7.4,-3.8 0.7,-0.3 0.9,-1.1 0.6,-1.7 -1.1,-2 -4.6,-6.7 -4.6,-23.2 0,-9.6 -6.8,-15 -6.8,-15 z"
   id="path37" />

<path
   style="fill:url(#linearGradient1989);fill-opacity:1"
   d="m 89.708403,133.57627 c -0.1,-0.8 -0.8,-1.3 -1.5,-0.9 -3.8,2 -15.2,7.2 -28.2,7.2 -13,0 -24.3,-5.2 -28.2,-7.2 -0.7,-0.3 -1.5,0.1 -1.5,0.9 l -0.5,7.2 c -0.1,1 0.4,2 1.2,2.5 12.7,7.7 29,7.7 29,7.7 0,0 16.4,0 29,-7.7 0.8,-0.5 1.3,-1.5 1.2,-2.5 0.1,0 -0.5,-7.2 -0.5,-7.2 z"
   id="path41" />
<g
   style="opacity:0.2"
   id="g45"
   transform="translate(-3.9915968,66.076271)">
	<path
   style="fill:#444444"
   d="m 51.5,6 c 1.4,0.2 6.4,0.7 12.9,0.7 4.3,0 8.4,-0.2 12.1,-0.7 0.9,0.2 3.5,0.9 6.1,2 0.1,3 0,11.6 -4.4,20.8 C 71.3,43.5 57.5,53.1 37.1,57.3 V 51 c 3.5,-0.9 11.8,-3.4 20.2,-9.4 0.5,-0.3 0.8,-0.8 0.8,-1.4 0,-0.6 -0.1,-1.1 -0.5,-1.5 C 46.8,26.3 45.6,12.1 45.4,8 48,6.9 50.6,6.2 51.5,6 m 12.3,4.6 c -3.7,0 -7.3,-0.3 -10.7,-0.9 -0.1,0 -0.2,0 -0.4,0 -0.5,0 -1.1,0.2 -1.5,0.6 -0.5,0.5 -0.7,1.2 -0.5,1.9 2.1,8.5 6,16 11.8,22.2 0.4,0.4 0.9,0.7 1.5,0.7 0.6,0 1.1,-0.2 1.5,-0.7 5.7,-6.2 9.7,-13.7 11.7,-22.2 0.2,-0.7 0,-1.4 -0.5,-1.8 -0.4,-0.4 -0.9,-0.6 -1.5,-0.6 -0.1,0 -0.2,0 -0.3,0 -1.9,0.2 -6,0.8 -11.1,0.8 M 51.4,4 c 0,0 -4.2,0.9 -8,2.7 0,0 -0.8,17.9 12.7,33.3 C 45.6,47.5 35,49.4 35,49.4 l 0.2,10.3 C 89.3,49.7 84.6,6.7 84.6,6.7 80.8,4.9 76.6,4 76.6,4 72.3,4.6 68.1,4.8 64.4,4.8 56.9,4.8 51.4,4 51.4,4 Z m 12.3,8.6 c 5.3,0 9.5,-0.6 11.6,-1 C 73.1,20.7 68.9,27.6 64,33 59.1,27.7 54.9,20.7 52.7,11.6 c 3.9,0.7 7.7,1 11,1 z"
   id="path43" />
</g><g
   id="neck"
   transform="matrix(2.1068938,0,0,2.1068938,-74.833714,-23.077074)"><path
     id="neck_1_"
     style="fill:#99674f"
     d="m 64,44.7 h -4.78 v 5.06 c 0,2.29 1.94,4.14 4.34,4.14 h 0.87 c 2.4,0 4.34,-1.85 4.34,-4.14 V 44.7 Z" /></g>


<path
   style="fill:url(#linearGradient1991);fill-opacity:1"
   d="m 65.408403,151.47627 -6.7,1.7 c -2.5,0.7 -5.1,-0.9 -5.8,-3.4 l -1.3,-5.3 c -0.7,-2.5 0.9,-5.1 3.4,-5.8 l 6.7,-1.7 c 2.5,-0.7 5.1,0.9 5.8,3.4 l 1.3,5.3 c 0.6,2.6 -0.9,5.2 -3.4,5.8 z"
   id="path39" /><g
   style="opacity:0.2;fill:#2d2d2d;fill-opacity:1"
   id="g51"
   transform="translate(-3.9916,66.245136)">
	<path
   style="fill:#2d2d2d;fill-opacity:1"
   d="m 36.2,69 c 3.9,1.9 11.7,5.2 21.1,6.3 0.1,0 0.2,0 0.2,0 0.4,0 0.8,-0.1 1.1,-0.3 0.3,-0.2 0.6,-0.3 0.8,-0.4 l 6.7,-1.7 c 0.2,-0.1 0.4,-0.1 0.7,-0.1 1,0 1.9,0.6 2.4,1.4 0.3,0.7 1,1 1.8,1 0.1,0 0.2,0 0.3,0 C 80.3,74 88,70.8 91.8,69 l 0.4,5.9 c 0,0.3 -0.1,0.5 -0.3,0.6 -6.7,4 -14.4,5.9 -19.8,6.7 -0.7,0.1 -1.2,0.5 -1.5,1.2 -0.3,0.7 -0.2,1.3 0.2,1.9 2,3 3.1,6.4 3.1,10 0,15.2 2.9,20.9 4.4,23.4 -1.9,0.9 -5.1,2.6 -6.3,3.2 -2.2,-3.8 -3.3,-8.6 -3.5,-14.8 -0.1,-2.7 -0.1,-4.3 -0.1,-5.9 0,-1.9 0,-3.8 -0.2,-7.2 -0.2,-2.7 -1,-5.5 -2.5,-8.1 -0.4,-0.6 -1,-1 -1.7,-1 -0.2,0 -0.3,0 -0.5,0.1 l -1.3,0.3 v 0 H 62 c -0.6,0.1 -1.2,0.5 -1.5,1.1 -1.6,3.2 -2.1,7.4 -3,16.1 -0.4,3.9 -2.4,8.9 -5.3,13.3 -1.7,-0.4 -2.6,-0.8 -4.1,-1.7 3.2,-4.9 5.4,-10.5 6.3,-16.2 0.2,-1.4 0.4,-2.8 0.5,-4.1 0.2,-2.1 0.4,-4.1 0.9,-6 0.3,-1.2 0.6,-2.2 1,-3 0.3,-0.6 0.2,-1.2 0,-1.8 C 56.5,82.4 56,82.1 55.3,82 50,81.2 42.5,79.4 36,75.5 35.8,75.4 35.7,75.2 35.7,74.9 L 36.2,69 m 56.4,-2.6 c -0.2,0 -0.3,0 -0.5,0.1 -3.1,1.6 -11.2,5.4 -21.2,6.7 -0.8,-1.5 -2.4,-2.5 -4.1,-2.5 -0.4,0 -0.8,0.1 -1.2,0.2 l -6.7,1.7 c -0.5,0.1 -1,0.4 -1.4,0.7 C 47.3,72 39,68.2 35.8,66.5 c -0.2,-0.1 -0.3,-0.1 -0.5,-0.1 -0.5,0 -1,0.4 -1,1 l -0.5,7.2 c -0.1,1 0.4,2 1.2,2.5 6.6,4 14.1,5.9 19.9,6.8 -0.5,1 -0.8,2.1 -1.1,3.3 -0.8,3.4 -0.9,6.9 -1.4,10.3 -0.9,5.7 -3.1,11.2 -6.4,16 -0.5,0.7 -0.2,1.5 0.5,1.9 2.1,1.1 3.2,1.7 5.5,2.2 0.1,0 0.2,0 0.3,0 0.5,0 1,-0.3 1.3,-0.7 2.8,-4.2 5.3,-9.6 5.8,-14.5 0.9,-8.9 1.4,-12.6 2.8,-15.4 0.1,0 0.3,0 0.4,-0.1 L 64,86.6 c 1.1,1.9 2.1,4.4 2.2,7.3 0.3,6.1 0,6.9 0.2,13 0.2,5.6 1.1,11.4 4.1,16.3 0.3,0.4 0.7,0.7 1.2,0.7 0.2,0 0.5,-0.1 0.7,-0.2 1.8,-1 5.8,-3 7.4,-3.8 0.7,-0.3 0.9,-1.1 0.6,-1.7 -1.1,-2 -4.6,-6.7 -4.6,-23.2 0,-4.8 -1.7,-8.5 -3.4,-11.1 5.8,-0.9 13.7,-2.8 20.5,-6.9 0.8,-0.5 1.3,-1.5 1.2,-2.5 l -0.5,-7.2 c 0,-0.4 -0.4,-0.9 -1,-0.9 z"
   id="path49" />
</g><g
   id="hairGroup"
   transform="matrix(0.64076499,0,0,0.64076499,18.43489,-2.5566523)"><path
     id="hair_2_"
     style="fill:#3c2c23"
     d="m 16.53,123.82 1.58,-7.48 -13.79,3.44 c 0,0 -0.97,-13.3 10.9,-20.98 13.01,-8.42 27.99,0.55 27.99,0.55 0,0 -1.47,10.04 -10.38,18.69 -6,5.81 -16.3,5.78 -16.3,5.78 z" /><path
     id="hair"
     style="fill:#3c2c23"
     d="m 111.47,123.82 -1.58,-7.48 13.79,3.44 c 0,0 0.97,-13.3 -10.9,-20.98 -13.01,-8.42 -27.99,0.55 -27.99,0.55 0,0 1.47,10.04 10.38,18.69 6,5.81 16.3,5.78 16.3,5.78 z" /><g
     id="hairHighlights"><radialGradient
       id="radialGradient384"
       cx="22.725901"
       cy="18.492399"
       r="23.0201"
       gradientTransform="matrix(0.8903,-0.4554,-0.2657,-0.5195,7.4017,129.4591)"
       gradientUnits="userSpaceOnUse"><stop
         offset="0.5255"
         style="stop-color:#554138;stop-opacity:0"
         id="stop380" /><stop
         offset="1"
         style="stop-color:#554138"
         id="stop382" /></radialGradient><path
       style="fill:url(#SVGID_1_-6)"
       d="m 16.53,123.82 1.58,-7.48 -13.79,3.44 c 0,0 -0.97,-13.3 10.9,-20.98 13.01,-8.42 27.99,0.55 27.99,0.55 0,0 -1.47,10.04 -10.38,18.69 -6,5.81 -16.3,5.78 -16.3,5.78 z"
       id="path9" /><radialGradient
       id="radialGradient391"
       cx="13.5301"
       cy="8.4808998"
       r="15.4297"
       gradientTransform="matrix(0.8381,-0.5456,-0.2765,-0.4247,4.5399,130.5066)"
       gradientUnits="userSpaceOnUse"><stop
         offset="0"
         style="stop-color:#554138"
         id="stop387" /><stop
         offset="0.6985"
         style="stop-color:#554138;stop-opacity:0"
         id="stop389" /></radialGradient><path
       style="fill:url(#SVGID_2_-6)"
       d="m 16.53,123.82 1.58,-7.48 -13.79,3.44 c 0,0 -0.97,-13.3 10.9,-20.98 13.01,-8.42 26.52,10.59 17.61,19.24 -6,5.81 -16.3,5.78 -16.3,5.78 z"
       id="path16" /><radialGradient
       id="radialGradient398"
       cx="37.584202"
       cy="18.492399"
       r="23.0201"
       gradientTransform="matrix(-0.8903,-0.4554,0.2657,-0.5195,133.8266,136.2254)"
       gradientUnits="userSpaceOnUse"><stop
         offset="0.5255"
         style="stop-color:#554138;stop-opacity:0"
         id="stop394" /><stop
         offset="1"
         style="stop-color:#554138"
         id="stop396" /></radialGradient><path
       style="fill:url(#SVGID_3_-61)"
       d="m 111.47,123.82 -1.58,-7.48 13.79,3.44 c 0,0 0.97,-13.3 -10.9,-20.98 -13.01,-8.42 -27.99,0.55 -27.99,0.55 0,0 1.47,10.04 10.38,18.69 6,5.81 16.3,5.78 16.3,5.78 z"
       id="path23-9" /><radialGradient
       id="radialGradient405"
       cx="28.388399"
       cy="8.4808998"
       r="15.4297"
       gradientTransform="matrix(-0.8381,-0.5456,0.2765,-0.4247,135.9121,138.6132)"
       gradientUnits="userSpaceOnUse"><stop
         offset="0"
         style="stop-color:#554138"
         id="stop401" /><stop
         offset="0.6985"
         style="stop-color:#554138;stop-opacity:0"
         id="stop403" /></radialGradient><path
       style="fill:url(#SVGID_4_-7)"
       d="m 111.47,123.82 -1.58,-7.48 13.79,3.44 c 0,0 0.97,-13.3 -10.9,-20.98 -13.01,-8.42 -26.52,10.59 -17.61,19.24 6,5.81 16.3,5.78 16.3,5.78 z"
       id="path30" /></g></g><path
   id="ears"
   style="fill:#7a4c32;stroke-width:0.640765"
   d="m 35.600983,58.213501 c -4.696807,0 -8.515766,-3.658768 -8.515766,-8.156938 0,-4.49817 3.818959,-8.156939 8.515766,-8.156939 h 48.332903 c 4.485354,0 7.875,3.504985 7.875,8.156939 0,4.651953 -3.383238,8.156938 -7.875,8.156938 z" /><path
   id="head"
   style="fill:#a56c43;stroke-width:0.640765"
   d="m 59.443848,75.89221 c -11.565807,0 -27.847645,-10.361173 -27.847645,-33.396675 0,-21.427181 12.232203,-38.2152239 27.847645,-38.2152239 15.615443,0 27.847645,16.7880429 27.847645,38.2152239 0,23.035502 -16.281837,33.396675 -27.847645,33.396675 z" /><path
   id="nose_1_"
   style="fill:#875334;stroke-width:0.640765"
   d="m 62.692526,53.247572 c -0.08971,-0.03845 -0.179414,-0.05767 -0.26912,-0.07048 h -5.959115 c -0.08971,0.01282 -0.179414,0.03204 -0.269122,0.07048 -0.538241,0.217859 -0.839401,0.781733 -0.583095,1.371237 0.256306,0.595911 1.441721,2.268308 3.831774,2.268308 2.390054,0 3.575469,-1.672397 3.831775,-2.268308 0.256306,-0.589504 -0.03845,-1.153378 -0.583097,-1.371237 z" /><g
   id="eyebrows_1_"
   transform="matrix(0.64076499,0,0,0.64076499,18.43489,-2.5566523)"><path
     style="fill:#42312c"
     d="m 32.45,68.38 c 4.07,-5.82 13.42,-6.04 18.48,-1.5 0.98,0.88 2.25,2.17 1.61,3.61 -0.58,1.31 -1.96,1.37 -3.12,0.92 -3.24,-1.25 -6.42,-1.97 -9.9,-1.34 -0.9,0.16 -1.77,0.42 -2.63,0.7 -0.69,0.22 -1.31,0.62 -2,0.83 -1.89,0.59 -3.57,-1.52 -2.44,-3.22 z"
     id="path37-2" /><path
     style="fill:#42312c"
     d="m 93.01,71.54 c -2.87,-1.27 -5.86,-2.01 -9.02,-1.65 -1.7,0.19 -3.34,0.66 -4.92,1.31 -1.08,0.45 -2.3,0.86 -3.22,-0.17 -2.41,-2.68 3.32,-5.81 5.2,-6.52 3.55,-1.34 7.66,-1.01 10.98,0.79 1.39,0.75 2.96,1.85 3.68,3.3 0.86,1.72 -0.9,3.67 -2.7,2.94 z"
     id="path39-0" /></g><g
   id="eyes_1_"
   transform="matrix(0.64076499,0,0,0.64076499,18.43489,-2.5566523)"><ellipse
     style="fill:#42312c"
     cx="42.400002"
     cy="80.300003"
     rx="6.48"
     ry="6.71"
     id="ellipse42" /><ellipse
     style="fill:#42312c"
     cx="85.599998"
     cy="80.300003"
     rx="6.48"
     ry="6.71"
     id="ellipse44" /></g><path
   id="mouth_1_"
   style="fill:#473530;stroke-width:0.640765"
   d="m 66.498671,60.219095 c -2.684805,1.595504 -11.476101,1.595504 -14.160906,0 -1.537836,-0.916294 -3.114118,0.486981 -2.473352,1.883849 0.627949,1.377644 5.427278,4.568654 9.579435,4.568654 4.14575,0 8.887411,-3.19101 9.515361,-4.568654 0.634357,-1.403275 -0.916295,-2.800143 -2.460538,-1.883849 z" /><g
   id="hair_1_"
   transform="matrix(0.64076499,0,0,0.64076499,18.43489,-2.5566523)"><path
     id="hair_3_"
     style="fill:#3c2c23"
     d="M 103.86,18.49 C 97.89,12.27 92.23,9.64 91.68,9.57 84.75,6.4 75.83,3.99 64.26,3.99 13.41,3.99 9.88,45.62 11.93,63.87 13.73,79.96 23.42,83.99 23.42,83.99 L 22.04,68.17 c 0,0 18.2,-4.79 27.8,-12.22 9.6,-7.43 14.03,-13.79 14.03,-13.79 0,0 3.24,4.8 13.91,13.67 10.67,8.87 28.26,12.59 28.26,12.59 l 0.07,15.53 c 0,0 8.46,-3.94 9.88,-20.07 1.76,-20.21 -0.66,-32.3 -12.13,-45.39 z" /><radialGradient
     id="radialGradient425"
     cx="64.018799"
     cy="74.010002"
     r="51.6642"
     gradientTransform="matrix(0.9998,0.0195,0.019,-0.9735,-1.3922,124.7851)"
     gradientUnits="userSpaceOnUse"><stop
       offset="0.6985"
       style="stop-color:#554138;stop-opacity:0"
       id="stop421" /><stop
       offset="1"
       style="stop-color:#554138"
       id="stop423" /></radialGradient><path
     id="hairHighlights_1_"
     style="fill:url(#hairHighlights_2_)"
     d="M 103.86,18.49 C 97.89,12.27 92.23,9.64 91.68,9.57 84.75,6.4 75.83,3.99 64.26,3.99 13.41,3.99 9.88,45.62 11.93,63.87 13.73,79.96 23.42,83.99 23.42,83.99 L 22.04,68.17 c 0,0 18.2,-4.79 27.8,-12.22 9.6,-7.43 14.03,-13.79 14.03,-13.79 0,0 3.24,4.8 13.91,13.67 10.67,8.87 28.26,12.59 28.26,12.59 l 0.07,15.53 c 0,0 8.46,-3.94 9.88,-20.07 1.76,-20.21 -0.66,-32.3 -12.13,-45.39 z" /></g></svg>
