<?xml version="1.0" encoding="UTF-8" standalone="no"?>
<svg
   xmlns:dc="http://purl.org/dc/elements/1.1/"
   xmlns:cc="http://creativecommons.org/ns#"
   xmlns:rdf="http://www.w3.org/1999/02/22-rdf-syntax-ns#"
   xmlns:svg="http://www.w3.org/2000/svg"
   xmlns="http://www.w3.org/2000/svg"
   xmlns:sodipodi="http://sodipodi.sourceforge.net/DTD/sodipodi-0.dtd"
   xmlns:inkscape="http://www.inkscape.org/namespaces/inkscape"
   version="1.1"
   id="Layer_1"
   x="0px"
   y="0px"
   viewBox="0 0 128 128"
   style="enable-background:new 0 0 128 128;"
   xml:space="preserve"
   sodipodi:docname="miguel2.svg"
   inkscape:version="1.0.2 (e86c870879, 2021-01-15)"><metadata
   id="metadata130"><rdf:RDF><cc:Work
       rdf:about=""><dc:format>image/svg+xml</dc:format><dc:type
         rdf:resource="http://purl.org/dc/dcmitype/StillImage" /></cc:Work></rdf:RDF></metadata><defs
   id="defs128"><radialGradient
     id="hairHighlights_1_"
     cx="64.282303"
     cy="64.161697"
     r="59.7216"
     gradientTransform="matrix(0,-1,-0.8131,0,116.4516,128.1205)"
     gradientUnits="userSpaceOnUse"><stop
       offset="0.7945"
       style="stop-color:#554138;stop-opacity:0"
       id="stop4-3" /><stop
       offset="1"
       style="stop-color:#554138"
       id="stop6-6" /></radialGradient></defs><sodipodi:namedview
   pagecolor="#ffffff"
   bordercolor="#666666"
   borderopacity="1"
   objecttolerance="10"
   gridtolerance="10"
   guidetolerance="10"
   inkscape:pageopacity="0"
   inkscape:pageshadow="2"
   inkscape:window-width="2560"
   inkscape:window-height="1005"
   id="namedview126"
   showgrid="false"
   inkscape:zoom="4.6182912"
   inkscape:cx="35.904826"
   inkscape:cy="59.433741"
   inkscape:window-x="0"
   inkscape:window-y="0"
   inkscape:window-maximized="1"
   inkscape:current-layer="Layer_1" />
<g
   id="g13">
	
		<linearGradient
   id="SVGID_1_"
   gradientUnits="userSpaceOnUse"
   x1="63.994"
   y1="119.4818"
   x2="63.994"
   y2="39.9189"
   gradientTransform="matrix(1 0 0 -1 0 128)">
		<stop
   offset="3.200000e-03"
   style="stop-color:#424242"
   id="stop2" />
		<stop
   offset="0.2705"
   style="stop-color:#353535"
   id="stop4" />
		<stop
   offset="0.7639"
   style="stop-color:#131313"
   id="stop6" />
		<stop
   offset="1"
   style="stop-color:#000000"
   id="stop8" />
	</linearGradient>
	<path
   style="fill:url(#SVGID_1_);"
   d="M119.99,88.01h-112c-2.21,0-4-1.79-4-4v-72c0-2.21,1.79-4,4-4h112c2.21,0,4,1.79,4,4v72   C123.99,86.22,122.2,88.01,119.99,88.01z"
   id="path11" />
</g>
<linearGradient
   id="SVGID_2_"
   gradientUnits="userSpaceOnUse"
   x1="63.994"
   y1="119.4818"
   x2="63.994"
   y2="39.9189"
   gradientTransform="matrix(1 0 0 -1 0 128)">
	<stop
   offset="1.200000e-03"
   style="stop-color:#BFBEBE"
   id="stop15" />
	<stop
   offset="0.15"
   style="stop-color:#212121;stop-opacity:0"
   id="stop17" />
	<stop
   offset="0.7759"
   style="stop-color:#212121;stop-opacity:0"
   id="stop19" />
	<stop
   offset="1"
   style="stop-color:#BFBEBE"
   id="stop21" />
</linearGradient>
<path
   style="opacity:0.3;fill:url(#SVGID_2_);enable-background:new    ;"
   d="M119.99,88.01h-112c-2.21,0-4-1.79-4-4v-72  c0-2.21,1.79-4,4-4h112c2.21,0,4,1.79,4,4v72C123.99,86.22,122.2,88.01,119.99,88.01z"
   id="path24" />
<linearGradient
   id="SVGID_3_"
   gradientUnits="userSpaceOnUse"
   x1="4.7706"
   y1="79.992"
   x2="124.1151"
   y2="79.992"
   gradientTransform="matrix(1 0 0 -1 0 128)">
	<stop
   offset="1.200000e-03"
   style="stop-color:#BFBEBE"
   id="stop26" />
	<stop
   offset="0.1"
   style="stop-color:#212121;stop-opacity:0"
   id="stop28" />
	<stop
   offset="0.9"
   style="stop-color:#212121;stop-opacity:0"
   id="stop30" />
	<stop
   offset="1"
   style="stop-color:#BFBEBE"
   id="stop32" />
</linearGradient>
<path
   style="opacity:0.3;fill:url(#SVGID_3_);enable-background:new    ;"
   d="M120.01,88.01h-112c-2.21,0-4-1.79-4-4v-72  c0-2.21,1.79-4,4-4h112c2.21,0,4,1.79,4,4v72C124.01,86.22,122.21,88.01,120.01,88.01z"
   id="path35" />
<g
   id="g59">
	<rect
   x="11.99"
   y="16.01"
   style="fill:#76FF03;"
   width="24"
   height="4"
   id="rect37" />
	<rect
   x="85.99"
   y="16.01"
   style="fill:#76FF03;"
   width="16"
   height="4"
   id="rect39" />
	<rect
   x="107.99"
   y="16.01"
   style="fill:#76FF03;"
   width="8"
   height="4"
   id="rect41" />
	<rect
   x="19.99"
   y="28.01"
   style="fill:#76FF03;"
   width="8"
   height="4"
   id="rect43" />
	<rect
   x="11.99"
   y="40.01"
   style="fill:#76FF03;"
   width="16"
   height="4"
   id="rect45" />
	<rect
   x="11.99"
   y="52.01"
   style="fill:#76FF03;"
   width="8"
   height="4"
   id="rect47" />
	<rect
   x="97.99"
   y="52.01"
   style="fill:#76FF03;"
   width="12"
   height="4"
   id="rect49" />
	<rect
   x="103.99"
   y="40.01"
   style="fill:#76FF03;"
   width="12"
   height="4"
   id="rect51" />
	<rect
   x="11.99"
   y="64.01"
   style="fill:#76FF03;"
   width="16"
   height="4"
   id="rect53" />
	<rect
   x="95.99"
   y="64.01"
   style="fill:#76FF03;"
   width="20"
   height="4"
   id="rect55" />
	<rect
   x="99.99"
   y="28.01"
   style="fill:#76FF03;"
   width="12"
   height="4"
   id="rect57" />
</g><path
   id="ears"
   style="fill:#7a4c32;stroke-width:1"
   d="M 89.017248,49.439204 H 36.402831 c -5.675845,0 -10.315681,4.943239 -10.315681,10.989087 0,6.045848 4.639836,10.989087 10.315681,10.989087 h 52.621817 c 5.675844,0 10.31568,-4.943239 10.31568,-10.989087 0,-6.045848 -4.647236,-10.989087 -10.32308,-10.989087 z" /><g
   id="hair_x5F_group"
   transform="matrix(0.74000587,0,0,0.74000587,15.349665,1.8050269)"
   style="stroke-width:1.35134"><path
     id="hair"
     style="fill:#3c2c23;stroke-width:1.35134"
     d="M 64.02,4 H 64 C 64,4 63.99,4 63.98,4 6.95,4.31 16.83,71.9 16.83,71.9 c 0,0 3.45,50.38 45.04,52.04 0.15,0.01 0.3,0.01 0.44,0.02 0.55,0.02 1.11,0.03 1.68,0.03 h 0.02 c 0.58,0 1.15,-0.01 1.71,-0.03 0.14,0 0.28,-0.01 0.42,-0.02 41.56,-1.64 44.37,-51.2 44.37,-51.2 0,0 12.62,-68.42 -46.49,-68.74 z" /><radialGradient
     id="radialGradient873"
     cx="64.282303"
     cy="64.161697"
     r="59.7216"
     gradientTransform="matrix(0,-1,-0.8131,0,116.4516,128.1205)"
     gradientUnits="userSpaceOnUse"><stop
       offset="0.7945"
       style="stop-color:#554138;stop-opacity:0"
       id="stop869" /><stop
       offset="1"
       style="stop-color:#554138"
       id="stop871" /></radialGradient><path
     id="hairHighlights"
     style="fill:url(#hairHighlights_1_);stroke-width:1.35134"
     d="M 64.02,4 H 64 C 64,4 63.99,4 63.98,4 6.95,4.31 16.83,71.9 16.83,71.9 c 0,0 3.57,52.09 47.17,52.09 43.6,0 46.51,-51.25 46.51,-51.25 0,0 12.62,-68.42 -46.49,-68.74 z" /></g><path
   id="head"
   style="fill:#a56c43;stroke-width:1"
   d="m 87.337435,68.886558 c -1.746413,3.182025 -4.114432,5.934847 -7.215057,6.593452 -2.146017,0.458804 -3.537228,-0.458803 -4.351234,-1.376411 -1.21361,-1.36901 -2.671421,-2.516019 -4.373435,-3.182025 -2.190417,-0.858407 -5.298442,-1.724213 -8.917071,-1.731614 -3.626028,0.0074 -6.726653,0.873207 -8.91707,1.731614 -1.702014,0.666006 -3.159825,1.813015 -4.373435,3.182025 -0.814007,0.917608 -2.205218,1.835215 -4.351235,1.376411 -3.959031,-0.843606 -6.489851,-4.802638 -8.080864,-8.991071 -2.101616,-5.527844 -0.0296,-25.759604 0.680806,-27.646619 0.999008,-2.656621 3.751829,-4.195834 6.541652,-3.69263 4.284634,0.777007 11.114888,1.739014 18.648147,1.739014 h 0.162802 c 7.53326,0 14.363514,-0.962007 18.648148,-1.739014 2.789822,-0.503204 5.542643,1.036009 6.541651,3.69263 0.769606,2.057216 2.486418,24.338793 -0.643805,30.044238 z" />
<g
   id="sleeve_1_">
	<path
   style="fill:#26A69A;"
   d="M7.63,123.99h12.83c1.12-0.09,2.01-1.18,2.01-2.52v-0.65c0-3.58-1.61-6.71-4.02-8.45   c0,0.15,0.01,0.3,0.01,0.45c0,4.1-1.98,7.42-4.41,7.42s-4.41-3.32-4.41-7.42c0-0.15,0.01-0.3,0.01-0.45   c-2.41,1.75-4.02,4.87-4.02,8.45v0.65C5.62,122.82,6.51,123.9,7.63,123.99z"
   id="path61" />
	<path
   style="fill:#00796B;"
   d="M14.04,120.25c9,0,4.41-3.32,4.41-7.42c0-0.15-0.01-0.3-0.01-0.45c-1.28-0.93-2.79-1.48-4.4-1.48   s-3.12,0.55-4.4,1.48c-0.01,0.15-0.01,0.3-0.01,0.45C9.62,116.93,5,120.25,14.04,120.25z"
   id="path63" />
</g>
<g
   id="hand_3_">
	
		<linearGradient
   id="SVGID_4_"
   gradientUnits="userSpaceOnUse"
   x1="20.4215"
   y1="15.0744"
   x2="10.7407"
   y2="28.851"
   gradientTransform="matrix(1 0 0 -1 0 128)">
		<stop
   offset="0"
   style="stop-color:#8D5738"
   id="stop66" />
		<stop
   offset="0.5"
   style="stop-color:#A56C43"
   id="stop68" />
	</linearGradient>
	<path
   style="fill:url(#SVGID_4_);"
   d="M27.98,106.81c-0.11-2.84-2.23-8.7-5-9.19c-0.17-0.03-0.32-0.11-0.41-0.25   c-0.44-0.67-1.85-2.47-4.43-1.05c-0.96,0.53-1.3,1-1.14,1.68c-0.12,0.14-0.34,0.31-0.66,0.18c-1.04-1.16-2.32-1.4-3.81-0.24   c-1.69,1.32-1.69,2.26-1.39,3.19l-0.01,0.01c0,0-0.07,0.65-0.56,0.6c-0.51-0.44-1.12-0.44-2.09,0.26c-2.6,1.88-1.53,3.66-1.09,4.71   c-0.06,0.1-0.16,0.17-0.32,0.16c-0.34-0.18-0.77-0.18-1.35,0.15c-1.38,0.79-1.18,3.39-0.79,4.24c0.43,0.93,2.8,4.19,3.61,5.11   c0.19,0.21,0.42,0.36,0.67,0.46c-0.03-0.01-0.06-0.02-0.08-0.03c0.71,0.44,1.95,0.97,3.16,0.22c0,0,0.77-0.56,0.84-1.15   c1.31,0.73,3.12-0.63,3.12-0.63c0.85-0.65,1.07-1.38,1.04-2.01l0,0c0.43,0.26,0.9,0.36,1.35,0.37c1.36,0.04,2.61-0.76,2.61-0.76   c1.95-1.11,2.34-2.27,2.33-3.04c1.01,0.63,2.26,0.16,2.26,0.16C28.05,108.95,27.98,106.81,27.98,106.81z"
   id="path71" />
</g>
<path
   style="fill:#26A69A;"
   d="M107.95,123.99h12.84c0,0,0.56-9.79-15.16-10.26C89.91,113.27,107.95,123.99,107.95,123.99z"
   id="path74" />
<g
   id="hand_2_">
	
		<linearGradient
   id="SVGID_5_"
   gradientUnits="userSpaceOnUse"
   x1="141.6282"
   y1="10.2316"
   x2="131.9473"
   y2="24.0081"
   gradientTransform="matrix(-1 0 0 -1 248.6394 128)">
		<stop
   offset="0"
   style="stop-color:#8D5738"
   id="stop76" />
		<stop
   offset="0.5"
   style="stop-color:#A56C43"
   id="stop78" />
	</linearGradient>
	<path
   style="fill:url(#SVGID_5_);"
   d="M99.46,111.65c0.11-2.84,2.23-8.7,5-9.19c0.17-0.03,0.32-0.11,0.41-0.25   c0.44-0.67,1.85-2.47,4.43-1.05c0.96,0.53,1.3,1,1.14,1.68c0.12,0.14,0.34,0.31,0.66,0.18c1.04-1.16,2.32-1.4,3.81-0.24   c1.69,1.32,1.69,2.26,1.39,3.19l0.01,0.01c0,0,0.07,0.65,0.56,0.6c0.51-0.44,1.12-0.44,2.09,0.26c2.6,1.88,1.53,3.66,1.09,4.71   c0.06,0.1,0.15,0.17,0.32,0.16c0.34-0.18,0.77-0.18,1.35,0.15c1.38,0.79,1.18,3.39,0.79,4.24c-0.43,0.93-2.79,4.19-3.61,5.11   c-0.19,0.21-0.42,0.36-0.67,0.46c0.03-0.01,0.06-0.02,0.08-0.03c-0.71,0.44-1.95,0.97-3.16,0.22c0,0-0.77-0.56-0.84-1.15   c-1.31,0.73-3.12-0.63-3.12-0.63c-0.85-0.65-1.07-1.38-1.04-2.01l0,0c-0.43,0.26-0.9,0.36-1.35,0.37   c-1.36,0.04-2.61-0.76-2.61-0.76c-1.95-1.11-2.34-2.27-2.33-3.04c-1.01,0.63-2.26,0.16-2.26,0.16   C99.39,113.8,99.46,111.65,99.46,111.65z"
   id="path81" />
</g>
<path
   id="tone_1_"
   style="fill:#875334;"
   d="M116.23,121.56c-0.17-0.09-0.33-0.19-0.48-0.32c-0.02-0.02-0.05-0.04-0.07-0.07  c-0.28-0.31-0.36-0.81,0.37-1.81c2-2.65,2.79-4.63,2.79-4.63c0.55-1.39,0.35-1.62,0.35-1.62c-0.19-0.31-0.58,0.59-0.58,0.59  c-1.98,3.57-3.34,5.13-3.93,5.71c-0.03,0.02-0.06,0.04-0.09,0.05c-0.11,0.07-0.23,0.14-0.36,0.19c-0.05,0.02-0.11,0.04-0.16,0.06  c-0.11,0.04-0.23,0.06-0.35,0.08c-0.06,0.01-0.12,0.02-0.19,0.02c-0.13,0-0.26-0.01-0.4-0.04c-0.06-0.01-0.12-0.01-0.18-0.03  c-0.2-0.06-0.41-0.13-0.62-0.26c-0.1-0.06-0.19-0.12-0.28-0.19c-0.04-0.04-0.09-0.08-0.13-0.12c-0.04-0.04-0.09-0.08-0.13-0.12  c-0.05-0.06-0.1-0.13-0.15-0.19c-0.02-0.03-0.05-0.06-0.07-0.1c-0.05-0.08-0.09-0.16-0.13-0.25c-0.01-0.03-0.03-0.06-0.04-0.09  c-0.04-0.09-0.06-0.19-0.08-0.29c-0.01-0.03-0.02-0.06-0.03-0.09c-0.02-0.1-0.02-0.21-0.03-0.31c0-0.04-0.01-0.07-0.01-0.1  c0-0.11,0.02-0.22,0.04-0.33c0.01-0.04,0.01-0.08,0.02-0.13c0.02-0.11,0.07-0.22,0.11-0.34c0.02-0.05,0.03-0.1,0.05-0.14  c2.28-3.22,3.46-6.03,3.46-6.03c0.38-0.78,0.52-1.6,0.52-1.6c-0.25-0.46-0.65,0.21-0.65,0.21c-2.6,4.84-4.14,6.78-4.14,6.78  s-1.21,2.11-3.86,0.53c0,0-1.31-0.84-1.53-1.43c-0.19-0.49-0.31-1.36,0.36-2.6c0,0,1.59-3.25,4.21-7.34c0,0,0.17-0.64-0.42-0.28  c-0.46,0.28-0.79,0.86-0.95,1.04c0,0-1.55,2.07-3.8,6.2c0,0-0.5,0.95-1.08,1.42c-0.57,0.24-1.29,0.15-2.08-0.44  c-1.71-1.28-1.07-3.07-0.12-4.91c0.52-1,1.71-3.25,2.84-5.05c0.11-0.04,0.22-0.08,0.33-0.1c0.36-0.06,0.65-0.25,0.83-0.53  c0.9-1.37,0.19-2.61-1.07-0.7c-3.16,0.54-5.4,6.72-5.51,9.77c0,0,0,0,0,0c0,0.11-0.05,2.59,2.51,3.73c0.08,0.03,1.01,0.37,2.01,0.14  c0.25,0.83,0.93,1.8,2.52,2.71c0.03,0.02,1.42,0.87,2.94,0.85c0.28-0.01,0.56-0.04,0.82-0.11c0.16,0.52,0.5,1.09,1.18,1.61  c0.08,0.06,1.64,1.23,3.14,0.93c0.29,0.46,0.71,0.78,0.82,0.86c0.46,0.29,0.95,0.44,1.45,0.48h0.45c0.64-0.04,1.31-0.26,1.97-0.67  c0.01,0,0.01-0.01,0.02-0.01c1.55-1.06,3.78-5.49,3.78-5.94C122.43,116.21,119.06,122.05,116.23,121.56z" />

<path
   id="tone"
   style="fill:#875334;"
   d="M28.43,106.25C28.43,106.25,28.43,106.25,28.43,106.25c-0.12-3.05-2.36-9.23-5.51-9.77  c-1.25-1.91-1.97-0.67-1.07,0.7c0.18,0.28,0.48,0.46,0.83,0.53c0.11,0.02,0.22,0.06,0.33,0.1c1.13,1.8,2.32,4.06,2.84,5.05  c0.95,1.83,1.58,3.62-0.12,4.91c-0.79,0.59-1.5,0.68-2.08,0.44c-0.57-0.47-1.08-1.42-1.08-1.42c-2.25-4.13-3.8-6.2-3.8-6.2  c-0.16-0.18-0.48-0.75-0.95-1.04c-0.59-0.36-0.42,0.28-0.42,0.28c2.62,4.08,4.21,7.34,4.21,7.34c0.68,1.24,0.56,2.11,0.36,2.6  c-0.22,0.59-1.53,1.43-1.53,1.43c-2.64,1.58-3.86-0.53-3.86-0.53s-1.55-1.94-4.14-6.78c0,0-0.41-0.67-0.65-0.21  c0,0,0.14,0.82,0.52,1.6c0,0,1.18,2.8,3.46,6.03c0.02,0.05,0.03,0.1,0.05,0.14c0.04,0.11,0.08,0.23,0.11,0.34  c0.01,0.04,0.01,0.08,0.02,0.13c0.02,0.11,0.04,0.22,0.04,0.33c0,0.04-0.01,0.07-0.01,0.1c0,0.11-0.01,0.21-0.03,0.31  c-0.01,0.03-0.02,0.06-0.02,0.09c-0.02,0.1-0.05,0.2-0.09,0.29c-0.01,0.03-0.03,0.06-0.04,0.09c-0.04,0.08-0.08,0.17-0.13,0.25  c-0.02,0.03-0.05,0.06-0.07,0.1c-0.05,0.07-0.1,0.13-0.15,0.19c-0.04,0.04-0.09,0.08-0.13,0.12c-0.04,0.04-0.08,0.08-0.13,0.12  c-0.09,0.07-0.19,0.14-0.28,0.19c-0.22,0.12-0.43,0.21-0.62,0.26c-0.06,0.02-0.12,0.02-0.19,0.03c-0.14,0.02-0.27,0.04-0.4,0.04  c-0.06,0-0.13-0.01-0.19-0.02c-0.12-0.02-0.24-0.04-0.35-0.08c-0.05-0.02-0.11-0.04-0.16-0.06c-0.12-0.05-0.24-0.12-0.36-0.19  c-0.03-0.02-0.06-0.03-0.09-0.05c-0.59-0.58-1.95-2.14-3.93-5.71c0,0-0.39-0.9-0.58-0.59c0,0-0.2,0.24,0.35,1.62  c0,0,0.79,1.98,2.79,4.63c0.73,1,0.65,1.5,0.37,1.81c-0.02,0.02-0.05,0.04-0.07,0.07c-0.14,0.13-0.31,0.23-0.48,0.32  c-2.83,0.49-6.2-5.36-6.2-5.36c0,0.46,2.23,4.89,3.78,5.94c0.01,0,0.01,0.01,0.02,0.01c0.66,0.41,1.32,0.63,1.97,0.67h0.45  c0.51-0.04,1-0.19,1.45-0.48c0.11-0.08,0.53-0.41,0.82-0.86c1.5,0.3,3.07-0.87,3.14-0.93c0.68-0.52,1.02-1.09,1.18-1.61  c0.26,0.07,0.53,0.11,0.82,0.11c1.52,0.03,2.91-0.83,2.94-0.85c1.59-0.9,2.27-1.88,2.52-2.71c1,0.22,1.93-0.11,2.01-0.14  C28.48,108.84,28.43,106.36,28.43,106.25z" />
<path
   id="mouth"
   style="fill:#68402a;stroke-width:1"
   d="m 62.74704,81.770059 c 3.655629,0 7.710862,-2.220016 9.701477,-3.92203 0.525405,-0.444003 0.207202,-1.30241 -0.481003,-1.30241 H 53.459967 c -0.688206,0 -1.006408,0.858407 -0.481004,1.30241 2.020216,1.702014 6.112448,3.92203 9.768077,3.92203 z" /><g
   id="computerscreen">
	<g
   id="g107">
		
			<linearGradient
   id="SVGID_6_"
   gradientUnits="userSpaceOnUse"
   x1="63.994"
   y1="53.4661"
   x2="63.994"
   y2="-14.9471"
   gradientTransform="matrix(1 0 0 -1 0 128)">
			<stop
   offset="0"
   style="stop-color:#4DD0E1"
   id="stop100" />
			<stop
   offset="1"
   style="stop-color:#00BCD4"
   id="stop102" />
		</linearGradient>
		<path
   style="fill:url(#SVGID_6_);"
   d="M109.99,123.99V81.18c0-3.58-2.92-6.5-6.5-6.5h-79c-3.58,0-6.5,2.92-6.5,6.5v42.82    L109.99,123.99L109.99,123.99z"
   id="path105" />
	</g>
	
		<linearGradient
   id="SVGID_7_"
   gradientUnits="userSpaceOnUse"
   x1="63.9935"
   y1="35.3958"
   x2="63.9935"
   y2="-3.8824"
   gradientTransform="matrix(1 0 0 -1 0 128)">
		<stop
   offset="0"
   style="stop-color:#00BCD4"
   id="stop109" />
		<stop
   offset="1"
   style="stop-color:#0097A7"
   id="stop111" />
	</linearGradient>
	<path
   style="fill:url(#SVGID_7_);"
   d="M78.99,123.99c-0.61-1.93-1.41-4.11-2.09-6.43c-1.37-4.66-1.94-12.44-2.18-17.87   c-0.15-3.43-2.99-6.14-6.45-6.14h-8.55c-3.46,0-6.3,2.7-6.45,6.14c-0.24,5.43-0.81,13.21-2.18,17.87c-0.68,2.32-1.47,4.5-2.09,6.43   H78.99z"
   id="path114" />
</g><path
   id="nose"
   style="fill:#875334;stroke-width:1"
   d="m 66.42487,66.400138 c -0.103601,-0.0444 -0.207202,-0.0666 -0.310803,-0.0814 h -6.808054 c -0.103601,0.0148 -0.207202,0.037 -0.310802,0.0814 -0.614205,0.251602 -0.954608,0.888007 -0.666006,1.568813 0.296003,0.680805 1.650213,2.59002 4.380835,2.59002 2.730622,0 4.084833,-1.909215 4.380835,-2.59002 0.288602,-0.673406 -0.0518,-1.317211 -0.666005,-1.568813 z" /><g
   id="eyes"
   transform="matrix(0.74000587,0,0,0.74000587,15.349665,1.8050269)"
   style="stroke-width:1.35134"><ellipse
     style="fill:#42312c;stroke-width:1.35134"
     cx="42.619999"
     cy="75.269997"
     rx="6.4099998"
     ry="6.6399999"
     id="ellipse14" /><ellipse
     style="fill:#42312c;stroke-width:1.35134"
     cx="85.379997"
     cy="75.269997"
     rx="6.4099998"
     ry="6.6399999"
     id="ellipse16" /></g><g
   id="eyebrows_1_"
   transform="matrix(0.74000587,0,0,0.74000587,15.349665,1.8050269)"
   style="stroke-width:1.35134"><path
     style="fill:#42312c;stroke-width:1.35134"
     d="m 95.18,64.82 v 0 c 0.01,-0.01 -2.96,-4.71 -9.83,-4.71 -6.87,0 -9.84,4.7 -9.84,4.7 l 0.01,0.01 c -0.24,0.34 -0.39,0.75 -0.39,1.2 0,1.14 0.91,2.06 2.04,2.06 0.23,0 0.81,-0.17 0.86,-0.19 4.12,-1.71 7.34,-1.72 7.34,-1.72 0,0 3.2,0.01 7.32,1.73 0.05,0.02 0.62,0.2 0.86,0.2 1.13,0 2.04,-0.92 2.04,-2.06 -0.02,-0.47 -0.16,-0.88 -0.41,-1.22 z"
     id="path19" /><path
     style="fill:#42312c;stroke-width:1.35134"
     d="m 52.45,64.81 v 0 c 0.01,-0.01 -2.96,-4.71 -9.83,-4.71 -6.87,0 -9.84,4.7 -9.84,4.7 l 0.01,0.01 c -0.24,0.34 -0.39,0.75 -0.39,1.2 0,1.14 0.91,2.06 2.04,2.06 0.23,0 0.81,-0.17 0.85,-0.19 4.12,-1.71 7.34,-1.72 7.34,-1.72 0,0 3.2,0.01 7.31,1.73 0.05,0.02 0.62,0.2 0.85,0.2 1.13,0 2.04,-0.92 2.04,-2.06 0.01,-0.47 -0.14,-0.89 -0.38,-1.22 z"
     id="path21" /></g>

</svg>
